<svg width="215" height="280" viewBox="0 0 215 280" fill="none" xmlns="http://www.w3.org/2000/svg">
<g id="chooseOne">
<g id="selected">
<path id="Vector" d="M200.498 108.209L179.924 101.317L178.658 132.487L200.311 139.718L200.498 108.209Z" fill="#43CCC1"/>
<path id="Vector_2" d="M55.668 59.7012V91.4174L178.658 132.487L179.924 101.317L55.668 59.7012Z" fill="#43CCC1"/>
<path id="Vector_3" opacity="0.1" d="M200.498 108.209L179.924 101.317L178.658 132.487L200.311 139.718L200.498 108.209Z" fill="black"/>
<path id="Vector_4" d="M185.154 119.195L188.523 124.792L195.259 115.464" stroke="white" stroke-width="7" stroke-miterlimit="10" stroke-linecap="round"/>
</g>
<g id="circle">
<path id="Vector_5" opacity="0.3" d="M140.714 111.733C143.039 111.733 144.924 107.556 144.924 102.404C144.924 97.2524 143.039 93.076 140.714 93.076C138.388 93.076 136.503 97.2524 136.503 102.404C136.503 107.556 138.388 111.733 140.714 111.733Z" fill="black"/>
<path id="Vector_6" opacity="0.1" d="M140.714 180.762C160.246 180.762 176.079 145.68 176.079 102.404C176.079 59.1284 160.246 24.0464 140.714 24.0464C121.182 24.0464 105.348 59.1284 105.348 102.404C105.348 145.68 121.182 180.762 140.714 180.762Z" fill="#3D6CB9"/>
<path id="Vector_7" opacity="0.1" d="M140.714 145.315C151.41 145.315 160.08 126.103 160.08 102.404C160.08 78.7056 151.41 59.494 140.714 59.494C130.018 59.494 121.347 78.7056 121.347 102.404C121.347 126.103 130.018 145.315 140.714 145.315Z" fill="white"/>
</g>
<g id="notSelected">
<g id="Group" opacity="0.4">
<path id="Vector_8" d="M200.498 48.5075L179.924 41.6161L178.658 72.7858L200.311 80.0161L200.498 48.5075Z" fill="#F5F5F5"/>
<path id="Vector_9" d="M55.668 0V31.7162L178.658 72.7858L179.924 41.6161L55.668 0Z" fill="#F5F5F5"/>
<path id="Vector_10" opacity="0.1" d="M200.498 48.5075L179.924 41.6161L178.658 72.7858L200.311 80.0161L200.498 48.5075Z" fill="black"/>
<path id="Vector_11" opacity="0.4" d="M185.342 53.897L192.078 66.9567" stroke="white" stroke-width="7" stroke-miterlimit="10" stroke-linecap="round"/>
<path id="Vector_12" opacity="0.4" d="M193.762 55.7627L185.342 65.091" stroke="white" stroke-width="7" stroke-miterlimit="10" stroke-linecap="round"/>
</g>
<g id="Group_2" opacity="0.4">
<path id="Vector_13" d="M200.498 164.178L179.924 157.287L178.658 188.457L200.311 195.687L200.498 164.178Z" fill="#F5F5F5"/>
<path id="Vector_14" d="M55.668 115.671V147.388L178.658 188.457L179.924 157.287L55.668 115.671Z" fill="#F5F5F5"/>
<path id="Vector_15" opacity="0.1" d="M200.498 164.178L179.924 157.287L178.658 188.457L200.311 195.687L200.498 164.178Z" fill="black"/>
<path id="Vector_16" opacity="0.4" d="M185.342 169.568L192.078 182.628" stroke="white" stroke-width="7" stroke-miterlimit="10" stroke-linecap="round"/>
<path id="Vector_17" opacity="0.4" d="M193.762 171.434L185.342 180.762" stroke="white" stroke-width="7" stroke-miterlimit="10" stroke-linecap="round"/>
</g>
</g>
<g id="stars">
<g id="Group_3" opacity="0.5">
<path id="Vector_18" opacity="0.5" d="M1.87117 46.3307H1.30981V49.8547H1.87117V46.3307Z" fill="#43CCC1"/>
<path id="Vector_19" opacity="0.5" d="M3.18103 48.4036V47.7818H1.66893e-06V48.4036H3.18103Z" fill="#43CCC1"/>
</g>
<g id="Group_4" opacity="0.5">
<path id="Vector_20" opacity="0.5" d="M200.945 218.142H200.384V221.666H200.945V218.142Z" fill="#43CCC1"/>
<path id="Vector_21" opacity="0.5" d="M202.255 220.215V219.593H199.074V220.215H202.255Z" fill="#43CCC1"/>
</g>
<g id="Group_5" opacity="0.5">
<path id="Vector_22" opacity="0.5" d="M187.119 143.345H186.558V146.869H187.119V143.345Z" fill="#43CCC1"/>
<path id="Vector_23" opacity="0.5" d="M188.429 145.418V144.796H185.248V145.418H188.429Z" fill="#43CCC1"/>
</g>
<g id="Group_6" opacity="0.5">
<path id="Vector_24" opacity="0.5" d="M163.168 215.07H162.607V218.594H163.168V215.07Z" fill="#43CCC1"/>
<path id="Vector_25" opacity="0.5" d="M164.478 217.143V216.521H161.297V217.143H164.478Z" fill="#43CCC1"/>
</g>
<g id="Group_7" opacity="0.5">
<path id="Vector_26" opacity="0.5" d="M146.327 260.053H145.766V263.577H146.327V260.053Z" fill="#43CCC1"/>
<path id="Vector_27" opacity="0.5" d="M147.637 262.126V261.504H144.456V262.126H147.637Z" fill="#43CCC1"/>
</g>
<g id="Group_8" opacity="0.5">
<path id="Vector_28" opacity="0.5" d="M25.8225 100.85H25.2611V104.374H25.8225V100.85Z" fill="#43CCC1"/>
<path id="Vector_29" opacity="0.5" d="M27.1323 102.923V102.301H23.9513V102.923H27.1323Z" fill="#43CCC1"/>
</g>
<path id="Vector_30" opacity="0.5" d="M33.9981 45.9794C33.8434 45.9048 33.7189 45.7697 33.6482 45.6C33.5776 45.4302 33.5658 45.2376 33.615 45.0588C33.623 45.0314 33.628 45.003 33.6299 44.9743V44.9743C33.6344 44.8924 33.615 44.8111 33.5745 44.7423C33.534 44.6736 33.4746 44.6212 33.4051 44.5928C33.3356 44.5644 33.2597 44.5615 33.1886 44.5846C33.1175 44.6078 33.0551 44.6556 33.0105 44.7212V44.7212C32.9951 44.7444 32.9823 44.7696 32.9723 44.7962C32.905 44.9676 32.783 45.1055 32.6298 45.1838C32.4766 45.262 32.3027 45.2752 32.1413 45.2206C32.1166 45.2118 32.091 45.2062 32.0651 45.2041V45.2041C31.9911 45.1991 31.9177 45.2206 31.8557 45.2655C31.7936 45.3103 31.7463 45.3761 31.7206 45.4531C31.695 45.5301 31.6924 45.6142 31.7133 45.6929C31.7342 45.7717 31.7774 45.8409 31.8366 45.8903V45.8903C31.8575 45.9073 31.8803 45.9215 31.9043 45.9326C32.059 46.0072 32.1835 46.1423 32.2541 46.312C32.3248 46.4818 32.3366 46.6744 32.2874 46.8532C32.2794 46.8806 32.2744 46.9089 32.2724 46.9377V46.9377C32.2679 47.0196 32.2874 47.1009 32.3279 47.1696C32.3684 47.2384 32.4277 47.2908 32.4972 47.3192C32.5668 47.3476 32.6427 47.3505 32.7137 47.3273C32.7848 47.3042 32.8473 47.2563 32.8919 47.1908C32.9072 47.1676 32.92 47.1424 32.93 47.1158C32.9974 46.9444 33.1193 46.8065 33.2726 46.7282C33.4258 46.6499 33.5996 46.6368 33.761 46.6914C33.7858 46.7002 33.8114 46.7057 33.8373 46.7079V46.7079C33.9112 46.7129 33.9847 46.6914 34.0467 46.6465C34.1087 46.6017 34.1561 46.5359 34.1817 46.4589C34.2074 46.3819 34.2099 46.2978 34.1891 46.219C34.1682 46.1403 34.125 46.0711 34.0658 46.0217V46.0217C34.0448 46.0047 34.0221 45.9905 33.9981 45.9794V45.9794Z" fill="#3D6CB9"/>
<path id="Vector_31" opacity="0.5" d="M160.341 14.8126C160.186 14.738 160.062 14.6029 159.991 14.4332C159.92 14.2634 159.908 14.0708 159.958 13.892C159.966 13.8646 159.971 13.8362 159.973 13.8075V13.8075C159.977 13.7256 159.958 13.6443 159.917 13.5755C159.877 13.5068 159.817 13.4544 159.748 13.426C159.678 13.3976 159.602 13.3947 159.531 13.4178C159.46 13.441 159.398 13.4889 159.353 13.5544V13.5544C159.338 13.5776 159.325 13.6028 159.315 13.6294C159.248 13.8008 159.126 13.9387 158.972 14.017C158.819 14.0952 158.645 14.1084 158.484 14.0538C158.459 14.045 158.434 14.0394 158.408 14.0373C158.334 14.0323 158.26 14.0538 158.198 14.0987C158.136 14.1435 158.089 14.2093 158.063 14.2863C158.038 14.3633 158.035 14.4474 158.056 14.5261C158.077 14.6049 158.12 14.6741 158.179 14.7235C158.2 14.7405 158.223 14.7547 158.247 14.7658C158.402 14.8404 158.526 14.9755 158.597 15.1452C158.667 15.315 158.679 15.5076 158.63 15.6864C158.622 15.7138 158.617 15.7421 158.615 15.7709C158.611 15.8528 158.63 15.9341 158.67 16.0028C158.711 16.0716 158.77 16.124 158.84 16.1524C158.909 16.1808 158.985 16.1837 159.056 16.1605C159.127 16.1374 159.19 16.0895 159.235 16.024V16.024C159.25 16.0008 159.263 15.9756 159.273 15.949C159.34 15.7776 159.462 15.6397 159.615 15.5614C159.768 15.4831 159.942 15.47 160.104 15.5246C160.128 15.5334 160.154 15.539 160.18 15.5411V15.5411C160.254 15.5461 160.327 15.5246 160.389 15.4797C160.451 15.4349 160.499 15.3691 160.524 15.2921C160.55 15.2151 160.553 15.131 160.532 15.0522C160.511 14.9735 160.468 14.9043 160.408 14.8549V14.8549C160.387 14.8379 160.365 14.8237 160.341 14.8126V14.8126Z" fill="#3D6CB9"/>
<path id="Vector_32" opacity="0.5" d="M5.03168 125.716C4.87698 125.641 4.75246 125.506 4.68181 125.337C4.61117 125.167 4.59933 124.974 4.64856 124.795C4.65652 124.768 4.66154 124.74 4.66351 124.711V124.711C4.66801 124.629 4.64858 124.548 4.60809 124.479C4.5676 124.41 4.50819 124.358 4.43869 124.329C4.36918 124.301 4.29328 124.298 4.2222 124.321C4.15112 124.344 4.08866 124.392 4.04406 124.458V124.458C4.02872 124.481 4.01592 124.506 4.00591 124.533C3.93853 124.704 3.81662 124.842 3.66339 124.92C3.51016 124.999 3.3363 125.012 3.17491 124.957C3.15016 124.948 3.12457 124.943 3.09865 124.941C3.0247 124.936 2.95128 124.957 2.88924 125.002C2.82721 125.047 2.77986 125.113 2.75422 125.19C2.72858 125.267 2.72601 125.351 2.74688 125.43C2.76776 125.508 2.81098 125.578 2.87014 125.627V125.627C2.89112 125.644 2.91384 125.658 2.93783 125.669C3.09253 125.744 3.21706 125.879 3.28771 126.049C3.35835 126.218 3.37018 126.411 3.32096 126.59C3.31299 126.617 3.30797 126.646 3.306 126.674V126.674C3.3015 126.756 3.32094 126.838 3.36143 126.906C3.40193 126.975 3.46132 127.027 3.53082 127.056C3.60033 127.084 3.67623 127.087 3.74731 127.064C3.81839 127.041 3.88085 126.993 3.92545 126.927V126.927C3.94079 126.904 3.9536 126.879 3.96361 126.852C4.03099 126.681 4.15289 126.543 4.30612 126.465C4.45935 126.387 4.63322 126.373 4.79462 126.428C4.81936 126.437 4.84496 126.442 4.87087 126.445V126.445C4.94482 126.45 5.01825 126.428 5.08028 126.383C5.14232 126.338 5.18965 126.273 5.21529 126.196C5.24093 126.119 5.2435 126.034 5.22263 125.956C5.20175 125.877 5.15853 125.808 5.09937 125.758V125.758C5.07839 125.741 5.05567 125.727 5.03168 125.716V125.716Z" fill="#3D6CB9"/>
<path id="Vector_33" opacity="0.5" d="M10.0839 204.074C9.92922 203.999 9.8047 203.864 9.73406 203.695C9.66341 203.525 9.65157 203.332 9.7008 203.153C9.70877 203.126 9.71379 203.098 9.71575 203.069V203.069C9.72025 202.987 9.70081 202.906 9.66032 202.837C9.61983 202.768 9.56043 202.716 9.49093 202.687C9.42143 202.659 9.34552 202.656 9.27444 202.679C9.20337 202.702 9.1409 202.75 9.09631 202.816V202.816C9.08097 202.839 9.06816 202.864 9.05815 202.891C8.99078 203.062 8.86887 203.2 8.71564 203.278C8.5624 203.357 8.38855 203.37 8.22715 203.315C8.20241 203.306 8.17681 203.301 8.15089 203.299C8.07695 203.294 8.00352 203.315 7.94149 203.36C7.87945 203.405 7.83211 203.471 7.80647 203.548C7.78083 203.625 7.77825 203.709 7.79913 203.788C7.82001 203.866 7.86323 203.935 7.92238 203.985V203.985C7.94337 204.002 7.96609 204.016 7.99008 204.027C8.14478 204.102 8.26931 204.237 8.33995 204.407C8.4106 204.576 8.42243 204.769 8.3732 204.948C8.36524 204.975 8.36022 205.003 8.35825 205.032V205.032C8.35375 205.114 8.37319 205.195 8.41368 205.264C8.45417 205.333 8.51357 205.385 8.58307 205.414C8.65257 205.442 8.72848 205.445 8.79956 205.422C8.87063 205.399 8.9331 205.351 8.97769 205.285C8.99303 205.262 9.00585 205.237 9.01586 205.21C9.08323 205.039 9.20513 204.901 9.35836 204.823C9.5116 204.744 9.68547 204.731 9.84686 204.786C9.8716 204.795 9.8972 204.8 9.92312 204.802V204.802C9.99707 204.807 10.0705 204.786 10.1325 204.741C10.1946 204.696 10.2419 204.63 10.2675 204.553C10.2932 204.476 10.2958 204.392 10.2749 204.314C10.254 204.235 10.2108 204.166 10.1516 204.116V204.116C10.1306 204.099 10.1079 204.085 10.0839 204.074V204.074Z" fill="#3D6CB9"/>
<path id="Vector_34" opacity="0.5" d="M94.3081 57.732C94.9282 57.732 95.4308 57.1751 95.4308 56.4882C95.4308 55.8013 94.9282 55.2444 94.3081 55.2444C93.6881 55.2444 93.1854 55.8013 93.1854 56.4882C93.1854 57.1751 93.6881 57.732 94.3081 57.732Z" fill="#F55F44"/>
<path id="Vector_35" opacity="0.5" d="M124.621 220.045C125.241 220.045 125.744 219.488 125.744 218.801C125.744 218.114 125.241 217.557 124.621 217.557C124.001 217.557 123.499 218.114 123.499 218.801C123.499 219.488 124.001 220.045 124.621 220.045Z" fill="#3D6CB9"/>
<path id="Vector_36" opacity="0.5" d="M193.668 91.314C194.288 91.314 194.791 90.7571 194.791 90.0702C194.791 89.3833 194.288 88.8264 193.668 88.8264C193.048 88.8264 192.546 89.3833 192.546 90.0702C192.546 90.7571 193.048 91.314 193.668 91.314Z" fill="#3D6CB9"/>
<path id="Vector_37" opacity="0.5" d="M213.877 147.284C214.497 147.284 215 146.727 215 146.04C215 145.353 214.497 144.796 213.877 144.796C213.257 144.796 212.755 145.353 212.755 146.04C212.755 146.727 213.257 147.284 213.877 147.284Z" fill="#43CCC1"/>
<path id="Vector_38" opacity="0.5" d="M138.655 6.11524C139.275 6.11524 139.778 5.55838 139.778 4.87146C139.778 4.18454 139.275 3.62768 138.655 3.62768C138.035 3.62768 137.533 4.18454 137.533 4.87146C137.533 5.55838 138.035 6.11524 138.655 6.11524Z" fill="#F55F44"/>
</g>
<g id="man">
<path id="Vector_39" d="M81.496 69.9886L89.9237 70.3507L90.3439 58.3467L81.9162 57.9846L81.496 69.9886Z" fill="#3D6CB9"/>
<path id="Vector_40" d="M119.934 100.025C119.934 100.025 131.605 93.8478 131.418 99.1829C131.231 104.518 119.653 108.028 119.653 108.028L119.934 100.025Z" fill="#FFB9B9"/>
<path id="Vector_41" d="M113.53 145.167C113.53 145.167 119.037 160.097 121.071 170.871C123.105 181.644 126.204 196.471 122.218 206.986C118.233 217.501 106.902 248.405 106.785 251.74C106.669 255.074 107.756 258.461 105.348 258.357C102.94 258.254 89.8367 253.683 89.3048 251.657C88.7728 249.63 93.7754 244.502 93.7754 244.502L106.128 201.62L93.2399 173.683L83.9435 215.36L82.1227 267.378C82.1227 267.378 73.1864 264.322 71.8891 266.938C71.8891 266.938 67.8853 260.755 67.3767 258.062C66.8682 255.368 69.2676 204.044 69.2676 204.044C69.2676 204.044 61.0648 145.585 67.6866 145.869C74.3084 146.154 100.245 128.567 113.53 145.167Z" fill="#3D6CB9"/>
<path id="Vector_42" d="M105.441 255.69C105.441 255.69 111.55 270.646 112.128 271.338C112.707 272.031 116.687 278.881 113.677 278.752C110.668 278.622 103.561 274.978 98.3295 269.41C93.0984 263.842 86.2015 254.195 86.8268 253.554C87.4521 252.913 91.736 251.093 91.736 251.093L105.441 255.69Z" fill="#3F3D56"/>
<path id="Vector_43" d="M81.0355 263.992C81.0355 263.992 81.4041 270.686 82.5147 273.406C83.6253 276.125 83.4852 280.126 80.4753 279.997C77.4654 279.868 69.6864 278.198 69.6864 278.198C69.6864 278.198 69.2245 274.17 69.8498 273.529C70.4751 272.888 73.1398 265.656 72.0059 263.604C70.8719 261.551 81.0355 263.992 81.0355 263.992Z" fill="#3F3D56"/>
<path id="Vector_44" d="M76.5827 46.7353C76.5827 46.7353 70.1661 57.8138 67.6648 60.3779C65.1635 62.942 72.2005 68.5874 72.2005 68.5874L84.7953 70.4643C84.7953 70.4643 84.6369 57.7675 85.2856 56.4596C85.9342 55.1517 76.5827 46.7353 76.5827 46.7353Z" fill="#FFB9B9"/>
<path id="Vector_45" d="M87.53 61.2313C87.53 61.2313 84.9354 66.463 82.5274 66.3595C80.1195 66.2561 67.6647 60.3779 67.1327 58.3514C66.6008 56.3248 63.0073 72.8678 63.0073 72.8678L93.4833 132.284L100.917 126.592L97.3152 91.7068L94.3569 72.8788L87.53 61.2313Z" fill="#3D6CB9"/>
<path id="Vector_46" d="M66.0087 114.406C67.2244 117.223 67.9836 120.161 67.8783 123.169C67.8737 123.302 67.869 123.436 67.8583 123.569C67.5699 129.741 65.5174 136.88 64.7811 142.071C64.2468 145.795 64.3988 148.513 66.366 149.152C71.1351 150.692 65.6706 151.793 84.1219 158.597C102.573 165.401 105.793 159.528 105.84 158.194C105.886 156.861 103.227 146.728 103.852 146.087C104.477 145.446 112.602 154.478 115.056 153.247C117.511 152.017 115.336 145.245 115.336 145.245C115.336 145.245 109.807 130.981 109.923 127.647C110.04 124.312 101.547 108.586 101.547 108.586L95.771 66.9285C95.771 66.9285 93.5498 61.4899 90.5633 60.6937C87.5767 59.8975 85.0988 61.7947 85.0988 61.7947L90.0964 74.0315L95.3692 95.6306L94.4871 103.607C94.4871 103.607 88.3556 89.3182 84.3284 83.8021C80.3013 78.286 71.7152 65.2271 71.7152 65.2271C71.7152 65.2271 69.7106 57.7341 71.2239 55.4949C72.7374 53.249 64.9116 52.9128 61.5749 62.1199C59.8065 66.9997 56.9352 74.2766 55.1366 81.052C53.5338 87.0542 52.7767 92.6654 54.3646 95.8727C56.7915 100.772 62.8964 107.213 66.0087 114.406Z" fill="#3F3D56"/>
<path id="Vector_47" opacity="0.1" d="M54.3646 95.8727C56.7915 100.772 62.8964 107.213 66.0087 114.406C66.8216 111.162 67.8133 107.805 67.8133 107.805C67.8133 107.805 71.6168 85.2597 60.366 79.4332C58.5018 79.2335 56.6374 79.8107 55.1366 81.052C53.5338 87.0542 52.7767 92.6654 54.3646 95.8727Z" fill="black"/>
<path id="Vector_48" d="M99.0277 94.452L108.566 97.5333L121.81 98.1022L123.172 110.851L101.407 112.587C101.407 112.587 95.9712 95.6564 99.0277 94.452Z" fill="#3F3D56"/>
<path id="Vector_49" d="M83.4742 137.316C83.4742 137.316 96.2345 139.662 93.3221 143.916C90.4097 148.17 79.1056 143.697 79.1056 143.697L83.4742 137.316Z" fill="#FFB9B9"/>
<path id="Vector_50" opacity="0.1" d="M67.8582 123.569C67.5698 129.741 65.5174 136.88 64.781 142.071C68.846 146.333 72.7115 150.092 74.1683 150.155C77.1782 150.284 82.0173 149.824 83.7999 150.569C85.5825 151.313 86.628 138.668 86.628 138.668C86.628 138.668 85.5641 134.615 80.8183 132.407C77.615 130.914 71.4748 126.863 67.8582 123.569Z" fill="black"/>
<path id="Vector_51" d="M60.506 75.4319C60.506 75.4319 50.3191 73.6585 50.8694 92.3831C51.4198 111.108 49.7956 123.06 53.8927 126.575C57.9899 130.091 71.2985 146.024 74.3084 146.154C77.3183 146.283 82.1574 145.823 83.94 146.567C85.7226 147.312 86.7682 134.667 86.7682 134.667C86.7682 134.667 85.7042 130.614 80.9584 128.406C76.2126 126.199 65.0318 118.371 65.1252 115.704C65.2186 113.036 67.9533 103.803 67.9533 103.803C67.9533 103.803 71.7569 81.2584 60.506 75.4319Z" fill="#3F3D56"/>
<path id="Vector_52" d="M85.5656 63.1395C92.8853 63.1395 98.8191 56.5659 98.8191 48.4569C98.8191 40.348 92.8853 33.7744 85.5656 33.7744C78.2459 33.7744 72.3121 40.348 72.3121 48.4569C72.3121 56.5659 78.2459 63.1395 85.5656 63.1395Z" fill="#FFB9B9"/>
<path id="Vector_53" d="M94.4895 27.4125C94.8092 27.7176 95.192 27.9305 95.6039 28.032C95.8107 28.0729 96.0236 28.0214 96.1963 27.8889C96.3689 27.7564 96.4873 27.5537 96.5254 27.3249C96.8287 28.0215 97.1708 28.764 97.7899 29.1215C98.409 29.4789 99.3663 29.1792 99.4555 28.4121C99.5459 28.9945 99.7785 29.5384 100.128 29.9849C100.512 30.3906 101.209 30.493 101.544 30.0373C101.273 31.6787 101.44 33.3668 101.355 35.0328C101.27 36.6988 100.869 38.465 99.7328 39.5605C98.0758 41.1582 95.5841 40.7639 93.4044 40.4612C93.0748 40.3846 92.7328 40.4053 92.4127 40.5213C91.5966 40.9065 91.6336 42.1651 91.6226 43.1478C91.556 44.872 90.94 46.5144 89.884 47.7831C88.828 49.0519 87.4002 49.865 85.8543 50.078C84.9892 50.226 84.1064 49.9873 83.4 49.4144C82.7812 48.8333 82.4651 47.8862 81.7559 47.4497C80.6024 46.7396 79.2034 47.7752 78.36 48.8996C77.5167 50.024 76.6855 51.4072 75.379 51.613C73.651 51.8852 72.335 49.9344 71.6893 48.138C70.7984 45.6204 70.3717 42.9306 70.4341 40.2272C70.4965 37.5239 71.0468 34.8618 72.0527 32.3979C75.6606 23.685 87.9855 22.3069 94.4895 27.4125Z" fill="#2F2E41"/>
</g>
</g>
</svg>
