<svg width="611" height="484" viewBox="0 0 611 484" fill="none" xmlns="http://www.w3.org/2000/svg">
<g id="doctor" clip-path="url(#clip10)">
<g id="background">
<path id="Vector" opacity="0.1" d="M39.9899 189.703H93.0935V267.295H43.8727C43.7471 268.097 43.6215 268.893 43.4802 269.695H93.0935V332.26C93.0097 332.26 92.926 332.193 92.8475 332.159C91.4521 331.565 90.0566 330.935 88.6612 330.269C88.3629 330.123 88.0699 329.972 87.7664 329.831C86.3709 329.125 84.9755 328.377 83.58 327.588C83.0934 327.313 82.6067 327.027 82.1305 326.735C74.3836 322.102 67.3425 316.226 61.2512 309.313C61.0681 309.128 60.9006 308.926 60.7279 308.752C59.8802 307.765 59.0481 306.766 58.2423 305.746C57.9388 305.37 57.6457 304.988 57.3475 304.624C56.3951 303.379 55.4741 302.088 54.5845 300.793C54.4484 300.596 54.3228 300.406 54.192 300.232C50.5478 294.826 47.5257 288.969 45.1914 282.787C45.1181 282.602 45.0501 282.4 44.9821 282.226C44.2599 280.263 43.6058 278.272 43.0407 276.241C42.8 275.394 42.5645 274.559 42.3656 273.678C42.2924 273.425 42.2348 273.167 42.172 272.915C39.2311 260.491 38.891 247.578 38.891 234.728C38.891 233.232 38.891 231.736 38.891 230.24C38.9328 224.994 38.9904 219.753 39.0637 214.518C39.0916 213.172 39.1177 211.82 39.1422 210.462C39.2154 207.026 39.3201 203.582 39.4561 200.13C39.4875 199.177 39.5294 198.217 39.5765 197.269C39.5974 196.72 39.6236 196.17 39.655 195.62C39.7492 193.635 39.8608 191.662 39.9899 189.703Z" fill="#3D6CB9"/>
<path id="Vector_2" opacity="0.1" d="M93.0935 103.31H63.9619C68.6995 95.3702 73.8735 87.7394 79.4565 80.4582C83.7894 74.7593 88.3525 69.2061 93.0935 63.855V103.31Z" fill="#3D6CB9"/>
<path id="Vector_3" opacity="0.1" d="M93.0935 105.7V187.302H40.1574C40.1574 187.066 40.1888 186.825 40.2097 186.59C40.2568 185.945 40.3039 185.305 40.3562 184.66C40.4085 183.908 40.4766 183.157 40.5446 182.416C40.6126 181.676 40.6807 180.778 40.7644 179.965C40.8481 179.152 40.9161 178.327 40.9999 177.514C41.0836 176.701 41.1673 175.887 41.2615 175.08C41.3557 174.272 41.4394 173.453 41.5441 172.645C41.6226 171.978 41.7011 171.305 41.79 170.631C41.9104 169.684 42.036 168.736 42.1668 167.793C42.1668 167.647 42.2087 167.507 42.2296 167.367C43.186 160.469 44.4856 153.631 46.1229 146.882C47.8423 139.803 50.0371 132.867 52.6902 126.128C55.5094 119.067 58.8116 112.239 62.5699 105.7H93.0935Z" fill="#3D6CB9"/>
<path id="Vector_4" opacity="0.1" d="M105.778 189.703V267.295H219.207V189.703H105.778ZM105.778 269.695V336.332C106.427 336.473 107.065 336.613 107.709 336.731C108.572 336.91 109.441 337.073 110.325 337.213L110.849 337.292C111.194 337.353 111.545 337.404 111.895 337.449C112.769 337.583 113.643 337.684 114.512 337.774C114.92 337.819 115.344 337.853 115.757 337.892L116.767 337.97C117.317 338.015 117.861 338.049 118.405 338.071C118.74 338.071 119.075 338.099 119.415 338.111C119.755 338.122 119.938 338.111 120.21 338.111H121.199C121.649 338.111 122.099 338.111 122.544 338.111H123.12C123.57 338.111 124.02 338.111 124.465 338.066H124.491C124.805 338.066 125.114 338.066 125.428 338.026C125.517 338.032 125.606 338.032 125.694 338.026C125.956 338.026 126.218 338.026 126.469 337.993C126.528 337.988 126.588 337.988 126.647 337.993C127.228 337.953 127.814 337.903 128.405 337.847C128.996 337.791 129.556 337.724 130.148 337.656L131.336 337.499C136.19 336.771 140.99 335.676 145.7 334.223C156.286 331.06 166.632 326.634 177.213 323.398C190.881 319.219 205.994 317.16 219.201 322.248V269.695H105.778ZM219.207 103.31V0.0111032C206.789 -0.135337 194.406 1.41979 182.356 4.63868C153.633 12.3738 127.84 29.1508 105.778 50.5779V103.304H111.487V105.699H105.778V187.302H219.207V105.699H134.842V103.299L219.207 103.31ZM364.933 68.4152C357.826 68.1459 350.762 65.7396 344.367 62.0095C332.154 54.8914 322.389 43.8862 311.484 34.6086C288.825 15.2737 260.725 3.60098 231.896 0.706642V103.31H393.808L394.211 102.856L364.933 68.4152ZM379.684 65.6106L395.326 84.0143V60.7698C390.061 61.4822 385.477 63.1369 379.684 65.5881V65.6106ZM395.326 352.88V269.695H361.971C361.887 269.342 361.793 268.983 361.688 268.624C361.788 268.983 361.877 269.342 361.966 269.695H231.896V329.848C233.131 330.83 234.351 331.868 235.559 332.911C236.864 334.055 238.16 335.212 239.448 336.383L240.745 337.533C241.368 338.094 242.001 338.655 242.629 339.188C243.889 340.276 245.157 341.353 246.433 342.418C247.072 342.957 247.714 343.486 248.359 344.006C258.58 352.379 269.361 359.936 280.615 366.616C283.137 368.125 285.686 369.578 288.25 370.997C289.956 371.94 291.674 372.863 293.404 373.768C296 375.126 298.616 376.434 301.253 377.695C325.569 389.394 351.281 397.421 377.654 401.545C383.508 402.469 389.388 403.198 395.294 403.732V352.868H395.817L395.326 352.88ZM231.896 105.699V187.302H395.326V105.699H231.896ZM231.896 189.691V267.295H395.326V189.703L231.896 189.691ZM408.01 60.6576V86.6282L427.968 63.1425C421.354 61.9721 414.701 61.1438 408.01 60.6576ZM408.01 189.703V267.295H566.96V189.703H408.01ZM566.4 359.033L566.96 269.695H408.01V404.636C418.248 405.092 428.502 404.959 438.727 404.237H438.905C443.789 403.901 448.651 403.422 453.489 402.801H453.599C479.421 399.579 504.669 392.35 528.55 381.341L566.4 359.033ZM597.625 202.447C597.021 200.951 596.402 199.455 595.767 197.959C594.584 195.155 593.339 192.429 592.052 189.708H579.65V267.295H611C610.974 245.318 605.783 222.881 597.625 202.447ZM579.65 269.695V346.541C588.478 337.471 595.945 327.089 601.314 315.219C607.777 300.922 610.733 285.451 610.979 269.69L579.65 269.695ZM579.65 167.092V187.285H590.89C587.483 180.344 583.73 173.603 579.65 167.092ZM471.852 75.8866C471.025 75.5444 470.193 75.2023 469.361 74.8769C460.588 71.4016 451.622 68.5129 442.516 66.2276L411.966 102.16L411.37 102.85L411.762 103.304H520.492C505.347 92.1342 489.02 82.9306 471.852 75.8866ZM523.684 105.699H410.239L408.01 107.881V187.302H427.555H566.96V148.823C554.355 132.483 539.805 117.985 523.684 105.699Z" fill="#3D6CB9"/>
<path id="Vector_5" opacity="0.1" d="M93.0935 146.865V187.302H40.1574C40.1574 187.067 40.1888 186.825 40.2097 186.59C40.2568 185.945 40.3039 185.305 40.3562 184.66C40.4085 183.909 40.4766 183.157 40.5446 182.416C40.6126 181.676 40.6807 180.779 40.7644 179.965C40.8481 179.152 40.9161 178.327 40.9999 177.514C41.0836 176.701 41.1673 175.887 41.2615 175.08C41.3557 174.272 41.4394 173.453 41.5441 172.645C41.6226 171.978 41.7011 171.305 41.79 170.632C41.9104 169.684 42.036 168.736 42.1668 167.793C42.1668 167.648 42.2087 167.507 42.2296 167.367C43.186 160.469 44.4856 153.631 46.1229 146.882L93.0935 146.865Z" fill="#3D6CB9"/>
<path id="Vector_6" opacity="0.1" d="M39.9899 189.703H93.0935V267.295H43.8727C43.7471 268.097 43.6215 268.893 43.4802 269.695H93.0935V332.26C93.0097 332.26 92.926 332.193 92.8475 332.159C91.4521 331.565 90.0566 330.935 88.6612 330.269C88.3629 330.123 88.0699 329.972 87.7664 329.831C86.3709 329.125 84.9755 328.377 83.58 327.588C83.0934 327.313 82.6067 327.027 82.1305 326.735C74.3836 322.102 67.3425 316.226 61.2512 309.313C61.0681 309.128 60.9006 308.926 60.7279 308.752C59.8802 307.765 59.0481 306.766 58.2423 305.746C57.9388 305.37 57.6457 304.988 57.3475 304.624C56.3951 303.379 55.4741 302.088 54.5845 300.793C54.4484 300.596 54.3228 300.406 54.192 300.232C50.5478 294.826 47.5257 288.969 45.1914 282.787C45.1181 282.602 45.0501 282.4 44.9821 282.226C44.2599 280.263 43.6058 278.272 43.0407 276.241C42.8 275.394 42.5645 274.559 42.3656 273.678C42.2924 273.425 42.2348 273.167 42.172 272.915C39.2311 260.491 38.891 247.578 38.891 234.728C38.891 233.232 38.891 231.736 38.891 230.24C38.9328 224.994 38.9904 219.753 39.0637 214.518C39.0916 213.172 39.1177 211.82 39.1422 210.462C39.2154 207.026 39.3201 203.582 39.4561 200.13C39.4875 199.177 39.5294 198.217 39.5765 197.269C39.5974 196.72 39.6236 196.17 39.655 195.62C39.7492 193.635 39.8608 191.662 39.9899 189.703Z" fill="#3D6CB9"/>
<path id="Vector_7" opacity="0.1" d="M145.705 117.389V187.302H105.773V117.389H111.466V93.7183H134.836V117.389H145.705Z" fill="#3D6CB9"/>
<path id="Vector_8" opacity="0.1" d="M145.7 189.697H105.773V267.289H145.7V189.697Z" fill="#3D6CB9"/>
<path id="Vector_9" opacity="0.1" d="M105.778 269.695H145.705V334.201C140.995 335.655 136.195 336.747 131.341 337.471C130.943 337.533 130.551 337.583 130.153 337.628C129.567 337.701 128.986 337.768 128.405 337.825L126.652 337.976H126.474L125.7 338.021H125.433C125.119 338.021 124.81 338.06 124.496 338.066H124.47C124.02 338.066 123.575 338.099 123.125 338.111H122.549C122.105 338.111 121.66 338.111 121.205 338.111H120.221H119.42C119.08 338.111 118.745 338.111 118.405 338.066C117.868 338.043 117.324 338.01 116.772 337.965L115.762 337.886C115.344 337.853 114.925 337.808 114.512 337.763C113.633 337.681 112.76 337.574 111.895 337.443L110.849 337.286L110.325 337.208C109.452 337.067 108.583 336.91 107.709 336.731C107.06 336.607 106.422 336.467 105.778 336.321V269.695Z" fill="#3D6CB9"/>
<path id="Vector_10" opacity="0.1" d="M395.32 109.132H362.395V187.296H395.32V109.132Z" fill="#3D6CB9"/>
<path id="Vector_11" opacity="0.1" d="M395.326 189.697V267.295H231.896V233.825H318.946V253.569H362.395V189.697H395.326Z" fill="#3D6CB9"/>
<path id="Vector_12" opacity="0.1" d="M395.843 352.896C395.671 352.896 395.498 352.896 395.32 352.863V403.766C389.421 403.246 383.543 402.519 377.685 401.584C351.303 397.462 325.581 389.439 301.253 377.745C294.231 374.35 287.351 370.65 280.615 366.645C269.365 359.961 258.586 352.404 248.364 344.034C245.79 341.925 243.254 339.769 240.756 337.567C239.024 336.03 237.307 334.459 235.559 332.939C234.356 331.89 233.137 330.852 231.896 329.865V269.695H361.966C361.871 269.336 361.788 268.983 361.694 268.624C361.793 268.983 361.887 269.336 361.971 269.695H395.325V352.857C395.498 352.863 395.671 352.88 395.843 352.896Z" fill="#3D6CB9"/>
<path id="Vector_13" opacity="0.1" d="M481.198 103.31H459.743V96.1639H469.355V74.877C470.189 75.2061 471.02 75.5426 471.846 75.8867V96.1639H481.192L481.198 103.31Z" fill="#3D6CB9"/>
<path id="Vector_14" opacity="0.1" d="M532.894 187.302H427.555C427.565 187.305 427.576 187.305 427.586 187.302H427.539H408.01V109.138H413.547V166.913H438.842V132.697H459.748V105.7H481.203V132.713H502.098V166.929H532.899L532.894 187.302Z" fill="#3D6CB9"/>
<path id="Vector_15" opacity="0.1" d="M408.01 189.703V267.295H532.899V189.703H408.01ZM566.782 358.623L566.96 297.203H532.899V269.718H408.01V404.636C418.248 405.092 428.502 404.959 438.727 404.237H438.905C443.789 403.901 448.651 403.422 453.489 402.801H453.599C479.421 399.579 504.669 392.35 528.55 381.341" fill="#3D6CB9"/>
<path id="Vector_16" opacity="0.1" d="M581.847 269.695H610.979C610.728 285.452 607.777 300.927 601.314 315.22C595.945 327.094 588.477 337.477 579.65 346.547V297.186H581.847V269.695Z" fill="#3D6CB9"/>
<path id="Vector_17" opacity="0.1" d="M611 267.295H581.847V202.447H597.625C605.783 222.881 610.974 245.318 611 267.295Z" fill="#3D6CB9"/>
<path id="Vector_18" opacity="0.1" d="M395.326 130.862H377.685V155.369H395.326V130.862Z" fill="#3D6CB9"/>
<path id="Vector_19" opacity="0.1" d="M395.326 181.659H377.685V187.302H395.326V181.659Z" fill="#3D6CB9"/>
<path id="Vector_20" opacity="0.1" d="M395.326 189.697H377.685V206.16H395.326V189.697Z" fill="#3D6CB9"/>
<path id="Vector_21" opacity="0.1" d="M395.326 232.456H377.685V256.962H395.326V232.456Z" fill="#3D6CB9"/>
<path id="Vector_22" opacity="0.1" d="M395.326 283.253H377.685V307.759H395.326V283.253Z" fill="#3D6CB9"/>
<path id="Vector_23" opacity="0.1" d="M395.326 352.857C395.498 352.857 395.671 352.857 395.849 352.896C395.676 352.896 395.503 352.896 395.326 352.863V358.556H377.685V334.05H395.326V352.857Z" fill="#3D6CB9"/>
<path id="Vector_24" opacity="0.1" d="M395.325 384.841V403.766C389.423 403.246 383.543 402.519 377.685 401.584V384.841H395.325Z" fill="#3D6CB9"/>
<path id="Vector_25" opacity="0.1" d="M307.496 265.494H231.896V267.295H307.496V265.494Z" fill="#3D6CB9"/>
<path id="Vector_26" opacity="0.1" d="M307.496 269.69H231.896V276.589H307.496V269.69Z" fill="#3D6CB9"/>
<path id="Vector_27" opacity="0.1" d="M307.496 299.205H231.896V310.3H307.496V299.205Z" fill="#3D6CB9"/>
<path id="Vector_28" opacity="0.1" d="M307.496 332.917V344.012H248.365C245.79 341.91 243.254 339.752 240.756 337.539C239.019 336.007 237.302 334.437 235.56 332.917H307.496Z" fill="#3D6CB9"/>
<path id="Vector_29" opacity="0.1" d="M307.496 366.622V377.745H301.254C294.231 374.35 287.351 370.649 280.615 366.645L307.496 366.622Z" fill="#3D6CB9"/>
<path id="Vector_30" opacity="0.1" d="M453.61 197.219H438.727V213.172H453.61V197.219Z" fill="#3D6CB9"/>
<path id="Vector_31" opacity="0.1" d="M131.377 122.892H116.495V138.844H131.377V122.892Z" fill="#3D6CB9"/>
<path id="Vector_32" opacity="0.1" d="M131.377 159.946H116.495V175.899H131.377V159.946Z" fill="#3D6CB9"/>
<path id="Vector_33" opacity="0.1" d="M131.377 197H116.495V212.953H131.377V197Z" fill="#3D6CB9"/>
<path id="Vector_34" opacity="0.1" d="M131.377 234.049H116.495V250.002H131.377V234.049Z" fill="#3D6CB9"/>
<path id="Vector_35" opacity="0.1" d="M131.377 271.103H116.495V287.056H131.377V271.103Z" fill="#3D6CB9"/>
<path id="Vector_36" opacity="0.1" d="M131.377 308.158H116.495V324.11H131.377V308.158Z" fill="#3D6CB9"/>
<path id="Vector_37" opacity="0.1" d="M510.423 197.219H495.541V213.172H510.423V197.219Z" fill="#3D6CB9"/>
<path id="Vector_38" opacity="0.1" d="M453.61 236.567H438.727V252.52H453.61V236.567Z" fill="#3D6CB9"/>
<path id="Vector_39" opacity="0.1" d="M510.423 236.567H495.541V252.52H510.423V236.567Z" fill="#3D6CB9"/>
<path id="Vector_40" opacity="0.1" d="M453.61 275.91H438.727V291.863H453.61V275.91Z" fill="#3D6CB9"/>
<path id="Vector_41" opacity="0.1" d="M510.423 275.91H495.541V291.863H510.423V275.91Z" fill="#3D6CB9"/>
<path id="Vector_42" opacity="0.1" d="M453.61 315.259H438.727V331.211H453.61V315.259Z" fill="#3D6CB9"/>
<path id="Vector_43" opacity="0.1" d="M510.423 315.259H495.541V331.211H510.423V315.259Z" fill="#3D6CB9"/>
<path id="Vector_44" opacity="0.1" d="M453.61 354.607H438.727V370.56H453.61V354.607Z" fill="#3D6CB9"/>
<path id="Vector_45" opacity="0.1" d="M510.423 354.607H495.541V370.56H510.423V354.607Z" fill="#3D6CB9"/>
<path id="Vector_46" opacity="0.1" d="M438.727 404.237V393.95H453.605V402.773L438.727 404.237Z" fill="#3D6CB9"/>
<path id="Vector_47" opacity="0.1" d="M42.1668 167.35V176.476H93.0935V167.35H42.1668ZM47.2375 175.904H43.0512V167.928H47.2375V175.904ZM52.3082 175.904H48.1219V167.928H52.3082V175.904ZM57.3684 175.904H53.1821V167.928H57.3684V175.904ZM62.4391 175.904H58.2528V167.928H62.4391V175.904ZM67.5046 175.904H63.3182V167.928H67.5046V175.904ZM72.5753 175.904H68.3889V167.928H72.5753V175.904ZM77.646 175.904H73.4596V167.928H77.646V175.904ZM82.7114 175.904H78.5251V167.928H82.7114V175.904ZM87.7769 175.904H83.5905V167.928H87.7769V175.904ZM92.8476 175.904H88.6612V167.928H92.8476V175.904Z" fill="#3D6CB9"/>
<path id="Vector_48" opacity="0.1" d="M42.1668 193.915V203.041H93.0935V193.915H42.1668ZM47.2375 202.469H43.0512V194.493H47.2375V202.469ZM52.3082 202.469H48.1219V194.493H52.3082V202.469ZM57.3684 202.469H53.1821V194.493H57.3684V202.469ZM62.4391 202.469H58.2528V194.493H62.4391V202.469ZM67.5046 202.469H63.3182V194.493H67.5046V202.469ZM72.5753 202.469H68.3889V194.493H72.5753V202.469ZM77.646 202.469H73.4596V194.493H77.646V202.469ZM82.7114 202.469H78.5251V194.493H82.7114V202.469ZM87.7769 202.469H83.5905V194.493H87.7769V202.469ZM92.8476 202.469H88.6612V194.493H92.8476V202.469Z" fill="#3D6CB9"/>
<path id="Vector_49" opacity="0.1" d="M42.1668 220.486V229.606H93.0935V220.486H42.1668ZM47.2375 229.029H43.0512V221.052H47.2375V229.029ZM52.3082 229.029H48.1219V221.052H52.3082V229.029ZM57.3684 229.029H53.1821V221.052H57.3684V229.029ZM62.4391 229.029H58.2528V221.052H62.4391V229.029ZM67.5046 229.029H63.3182V221.052H67.5046V229.029ZM72.5753 229.029H68.3889V221.052H72.5753V229.029ZM77.646 229.029H73.4596V221.052H77.646V229.029ZM82.7114 229.029H78.5251V221.052H82.7114V229.029ZM87.7769 229.029H83.5905V221.052H87.7769V229.029ZM92.8476 229.029H88.6612V221.052H92.8476V229.029Z" fill="#3D6CB9"/>
<path id="Vector_50" opacity="0.1" d="M42.1668 247.051V256.172H93.0935V247.051H42.1668ZM47.2375 255.6H43.0512V247.612H47.2375V255.6ZM52.3082 255.6H48.1219V247.612H52.3082V255.6ZM57.3684 255.6H53.1821V247.612H57.3684V255.6ZM62.4391 255.6H58.2528V247.612H62.4391V255.6ZM67.5046 255.6H63.3182V247.612H67.5046V255.6ZM72.5753 255.6H68.3889V247.612H72.5753V255.6ZM77.646 255.6H73.4596V247.612H77.646V255.6ZM82.7114 255.6H78.5251V247.612H82.7114V255.6ZM87.7769 255.6H83.5905V247.612H87.7769V255.6ZM92.8476 255.6H88.6612V247.612H92.8476V255.6Z" fill="#3D6CB9"/>
<path id="Vector_51" opacity="0.1" d="M42.4128 273.605C42.6117 274.469 42.8471 275.321 43.0879 276.168V274.183H47.2742V282.153H45.0293C45.0921 282.344 45.1601 282.54 45.2334 282.714H93.1145V273.605H42.4128ZM52.3553 282.153H48.169V274.183H52.3553V282.153ZM57.4156 282.153H53.2292V274.183H57.4156V282.153ZM62.4863 282.153H58.2999V274.183H62.4863V282.153ZM67.5517 282.153H63.3654V274.183H67.5517V282.153ZM72.6224 282.153H68.4361V274.183H72.6224V282.153ZM77.6931 282.153H73.5068V274.183H77.6931V282.153ZM82.7586 282.153H78.5722V274.183H82.7586V282.153ZM87.824 282.153H83.6377V274.183H87.824V282.153ZM92.8947 282.153H88.7084V274.183H92.8947V282.153Z" fill="#3D6CB9"/>
<path id="Vector_52" opacity="0.1" d="M54.2077 300.17C54.3438 300.35 54.4693 300.552 54.6002 300.731H57.3684V304.562L58.2632 305.684V300.709H62.4495V308.752H60.7279C60.8954 308.937 61.0576 309.134 61.2512 309.313H93.083V300.17H54.2077ZM67.5307 308.752H63.3444V300.742H67.5307V308.752ZM72.6014 308.752H68.415V300.742H72.6014V308.752ZM77.6721 308.752H73.4857V300.742H77.6721V308.752ZM82.7375 308.752H78.5512V300.742H82.7375V308.752ZM87.803 308.752H83.6166V300.742H87.803V308.752ZM92.8737 308.752H88.6873V300.742H92.8737V308.752Z" fill="#3D6CB9"/>
<path id="Vector_53" opacity="0.1" d="M82.1463 326.735C82.6277 327.027 83.1144 327.296 83.6011 327.582V327.302H87.7874V329.831C88.0909 329.972 88.3787 330.123 88.677 330.269V327.302H92.8633V332.159C92.9429 332.198 93.0252 332.23 93.1093 332.255V326.735H82.1463Z" fill="#3D6CB9"/>
<path id="Vector_54" opacity="0.1" d="M395.32 352.857H395.844H395.32ZM361.688 268.624C361.788 268.983 361.877 269.342 361.966 269.695C361.887 269.342 361.793 268.983 361.688 268.624ZM111.487 103.31V105.699H134.863V103.299L111.487 103.31ZM395.325 352.857H395.849H395.325ZM361.688 268.624C361.788 268.983 361.877 269.342 361.966 269.695C361.887 269.342 361.793 268.983 361.688 268.624ZM395.32 352.857H395.844H395.32ZM361.688 268.624C361.788 268.983 361.877 269.342 361.966 269.695C361.887 269.342 361.793 268.983 361.688 268.624Z" fill="#3D6CB9"/>
</g>
<g id="woman">
<path id="Vector_55" opacity="0.1" d="M230.232 475.222C258.393 475.222 281.222 471.291 281.222 466.443C281.222 461.595 258.393 457.665 230.232 457.665C202.072 457.665 179.243 461.595 179.243 466.443C179.243 471.291 202.072 475.222 230.232 475.222Z" fill="#3D6CB9"/>
<path id="Vector_56" d="M288.935 234.324C288.923 234.268 288.895 234.218 288.857 234.178C288.077 233.354 278.134 218.282 278.134 218.282C278.134 218.282 277.611 216.599 276.763 214.411C277.035 214.034 277.239 213.606 277.365 213.149C277.411 212.956 277.444 212.759 277.465 212.56C277.465 212.499 277.506 212.448 277.522 212.386C277.704 211.626 277.686 210.826 277.47 210.075C277.412 210.268 277.34 210.455 277.255 210.636C277.058 209.983 276.795 209.355 276.47 208.763C275.152 206.328 273.268 204.275 271.881 201.903C269.781 198.216 268.947 193.86 269.521 189.585C269.521 189.804 269.521 190.028 269.521 190.247C269.573 189.399 269.678 188.556 269.835 187.723C270.054 186.775 270.346 185.848 270.709 184.952C271.954 181.895 273.969 179.23 275.193 176.162C275.604 175.127 275.916 174.05 276.125 172.948C276.556 171.107 276.714 169.205 276.591 167.311C276.591 167.76 276.523 168.208 276.46 168.652C276.327 164.099 274.612 159.763 271.651 156.496C267.375 151.891 261.237 150.102 255.366 149.16C252.899 148.851 250.542 147.887 248.511 146.355C246.255 144.79 243.341 144.414 240.703 144.756C237.672 145.108 234.855 146.6 232.755 148.969C229.965 152.256 228.757 156.912 225.502 159.682C223.529 161.365 221.028 162.15 218.73 163.295C216.433 164.439 214.261 166.099 213.524 168.556C213.524 168.556 213.524 168.523 213.524 168.506V168.646L213.492 168.736C212.728 171.641 214.204 174.597 214.973 177.497C215.774 180.498 215.826 183.667 215.868 186.769C215.926 190.561 215.978 194.358 215.92 198.156C215.894 199.648 215.847 201.157 215.742 202.643C214.504 203.045 213.301 203.563 212.147 204.191C210.975 205.01 206.59 210.087 206.59 210.087L198.013 245.211L198.128 245.352L198.013 245.828L198.448 245.722C199.662 247.124 203.288 251.118 207.202 253.608L207.569 260.496C207.569 260.496 208.008 267.407 213.937 270.262C214.073 272.657 214.497 282.383 212.535 286.237C211.176 289.052 210.537 292.203 210.682 295.369C210.682 295.369 211.368 301.213 210.588 304.287C210.132 306.342 210.099 308.477 210.489 310.547C210.489 310.547 210.489 311.226 210.489 312.393C210.489 318.613 210.557 338.548 210.489 340.803C210.389 343.468 210.489 382.872 210.489 382.872C210.489 382.872 210.002 402.566 208.442 407.9C206.883 413.235 207.276 430.898 207.276 430.898C207.276 430.898 206.297 451.938 209.756 456.089C209.756 456.274 209.725 456.465 209.719 456.65C209.719 456.734 209.719 456.829 209.719 456.913C209.677 458.512 209.965 460.212 211.247 460.733C213.864 461.81 217.323 465.041 217.977 465.967C218.631 466.892 222.435 469.197 227.396 468.58C230.504 468.206 233.631 468.052 236.758 468.12C236.758 468.12 238.715 467.739 238.082 465.131C237.674 463.504 236.146 461.002 235.057 459.359C235.256 459.415 235.45 459.46 235.633 459.499L235.821 459.538H235.968C236.048 459.544 236.128 459.544 236.208 459.538H236.313C236.41 459.547 236.508 459.547 236.606 459.538C237.919 459.404 242.817 461.849 243.691 463.465C244.565 465.08 247.647 466.309 249.971 466.617C251.352 466.797 254.837 466.494 257.763 466.09C259.236 465.927 260.695 465.642 262.127 465.237C262.818 464.957 262.964 464.059 262.765 463.05C262.53 461.767 261.891 460.611 260.955 459.774C260.107 459.129 258.987 457.429 258.16 456.038L257.941 455.662C259.401 454.17 262.038 449.29 262.839 448.281C263.812 447.052 261.269 402.128 261.269 402.128V379.607L265.167 358.293L267.894 347.013L270.233 329.983C270.233 329.983 274.325 310.093 273.064 308.141C273.064 308.102 272.017 287.622 270.918 282.703C270.442 280.51 270.562 275.574 270.845 270.772C271.14 270.458 271.346 270.06 271.439 269.625C271.531 269.19 271.507 268.736 271.368 268.316C271.29 268.028 271.189 267.748 271.065 267.48C271.065 267.396 271.065 267.306 271.065 267.222C273.325 266.107 275.687 265.246 278.113 264.653C282.012 263.834 281.039 261.68 281.039 261.68C281.039 261.68 281.918 259.835 282.499 258.707C283.079 257.58 282.598 247.629 282.499 246.81C282.462 246.479 282.221 244.65 281.944 242.575C283.195 241.621 284.822 240.438 286.596 239.316C289.971 237.173 289.212 234.913 288.935 234.324ZM238.071 376.534C238.071 376.534 235.146 384.532 236.318 386.58C237.49 388.627 236.125 396.228 236.125 396.228L235.146 407.508C235.146 407.508 232.42 428.43 233.393 433.349C234.157 437.208 234.44 448.735 234.529 453.542C234.462 453.57 234.397 453.604 234.335 453.643L234.204 453.716C234.654 451.826 234.466 448 232.231 440.305L232.043 408.517C232.043 408.517 231.698 371.8 234.403 367.694C237.108 363.588 238.066 356.615 238.066 356.615C238.066 356.615 237.48 366.673 237.098 369.337C236.716 372.001 238.071 376.534 238.071 376.534ZM232.624 455.545C232.598 455.612 232.566 455.679 232.545 455.741L232.399 455.539C232.474 455.547 232.549 455.549 232.624 455.545Z" fill="url(#paint0_linear)"/>
<path id="Vector_57" d="M262.457 468.143C260.944 468.765 252.744 469.826 250.452 469.528C248.16 469.231 245.125 467.986 244.262 466.359C243.398 464.732 238.558 462.276 237.26 462.433C236.728 462.45 236.197 462.37 235.69 462.197C234.795 461.906 233.921 461.547 233.074 461.12C232.956 460.413 232.975 459.687 233.131 458.989C233.162 458.848 233.2 458.709 233.247 458.574C233.552 457.653 234.184 456.899 235.005 456.476L235.193 456.38C235.556 456.212 235.935 456.088 236.324 456.01C240.437 455.163 257.407 456.863 257.407 456.863C257.407 456.863 257.883 457.777 258.537 458.91C259.354 460.312 260.463 462.023 261.3 462.668C262.228 463.518 262.857 464.682 263.085 465.966C263.283 466.959 263.137 467.868 262.457 468.143Z" fill="white"/>
<path id="Vector_58" opacity="0.1" d="M262.457 468.143C260.944 468.766 252.75 469.826 250.458 469.528C248.166 469.231 245.131 467.98 244.262 466.359C243.393 464.738 238.563 462.276 237.265 462.433C235.968 462.59 233.079 461.12 233.079 461.12C233.079 461.12 232.629 458.877 233.937 457.345L236.554 459.337C236.554 459.337 243.555 461.664 244.853 463.824C246.151 465.983 248.516 467.189 251.933 467.408C254.487 467.588 260.353 466.522 263.1 465.989C263.283 466.959 263.142 467.868 262.457 468.143Z" fill="black"/>
<path id="Vector_59" d="M237.407 471.004C234.32 470.939 231.233 471.095 228.165 471.469C223.252 472.086 219.5 469.786 218.846 468.838C218.191 467.891 214.806 464.688 212.205 463.566C210.933 463.039 210.635 461.322 210.693 459.718C210.693 459.634 210.693 459.538 210.693 459.454C210.741 458.438 210.881 457.429 211.111 456.442L231.473 455.977L233.236 458.54L233.508 458.933L234.581 460.498C234.581 460.498 235.068 461.182 235.706 462.18C236.784 463.863 238.291 466.348 238.694 467.991C239.338 470.622 237.407 471.004 237.407 471.004Z" fill="white"/>
<path id="Vector_60" opacity="0.1" d="M237.407 471.004C234.32 470.939 231.233 471.095 228.165 471.469C223.257 472.086 219.5 469.786 218.851 468.838C218.202 467.891 214.806 464.66 212.205 463.577C210.933 463.05 210.635 461.333 210.693 459.729C212.147 460.094 215.203 461.025 216.402 462.646C217.972 464.811 220.782 468.451 224.775 468.681C227.998 468.867 235.847 468.249 238.725 468.003C239.343 470.622 237.407 471.004 237.407 471.004Z" fill="black"/>
<path id="Vector_61" opacity="0.1" d="M234.984 456.453C234.748 458.327 234.021 458.832 233.498 458.944C233.37 458.971 233.238 458.971 233.111 458.944C233.042 458.939 232.974 458.927 232.906 458.91C232.906 458.91 214.623 463.241 210.928 459.735C210.834 459.645 210.747 459.547 210.667 459.443C210.715 458.427 210.855 457.418 211.085 456.431L231.446 455.965L233.21 458.529C233.515 457.609 234.147 456.855 234.968 456.431L234.984 456.453Z" fill="black"/>
<path id="Vector_62" opacity="0.1" d="M258.532 458.888C258.124 459.37 257.784 459.645 257.569 459.55C256.606 459.135 248.715 457.693 246.209 458.933C243.702 460.172 235.22 459.134 235.22 459.134C235.22 459.134 235.219 458.058 235.172 456.33C235.535 456.162 235.914 456.038 236.303 455.96C240.416 455.113 257.386 456.812 257.386 456.812C257.386 456.812 257.883 457.755 258.532 458.888Z" fill="black"/>
<path id="Vector_63" d="M270.474 332.008L268.161 349.138L265.471 360.491L261.62 381.952V404.669C261.62 404.669 264.121 449.868 263.158 451.102C262.195 452.336 258.537 459.364 257.575 458.955C256.612 458.545 248.72 457.098 246.214 458.332C243.707 459.566 235.225 458.54 235.225 458.54C235.225 458.54 235.031 441 234.068 436.047C233.105 431.094 235.8 410.043 235.8 410.043L236.763 398.695C236.763 398.695 238.113 391.056 236.957 388.992C235.8 386.927 238.689 378.895 238.689 378.895C238.689 378.895 237.344 374.346 237.731 371.665C238.119 368.984 238.689 358.87 238.689 358.87C238.689 358.87 237.731 365.893 235.057 370.016C232.383 374.138 232.723 411.086 232.723 411.086L232.912 443.058C237.731 459.987 232.912 458.332 232.912 458.332C232.912 458.332 214.628 462.668 210.934 459.157C207.239 455.646 208.296 433.545 208.296 433.545C208.296 433.545 207.914 415.798 209.453 410.435C210.991 405.073 211.478 385.256 211.478 385.256C211.478 385.256 211.378 345.627 211.478 342.951C211.551 340.708 211.478 320.621 211.478 314.344C211.478 313.178 211.478 312.488 211.478 312.488L213.686 306.609L239.851 303.098H252.368C252.368 303.098 271.206 307.843 273.153 309.891C273.194 309.925 273.23 309.967 273.258 310.014C274.519 311.994 270.474 332.008 270.474 332.008Z" fill="#3D6CB9"/>
<path id="Vector_64" opacity="0.1" d="M238.705 421.99C238.705 421.99 244.461 436.849 247.177 437.881C249.892 438.913 238.705 421.99 238.705 421.99Z" fill="black"/>
<path id="Vector_65" opacity="0.1" d="M240.834 443.866C240.834 443.866 260.269 444.898 260.076 447.17C259.882 449.442 240.834 443.866 240.834 443.866Z" fill="black"/>
<path id="Vector_66" opacity="0.1" d="M214.832 437.926C215.601 438.706 229.657 440.17 228.5 441.594C227.344 443.019 215.988 445.79 215.988 445.79L214.832 437.926Z" fill="black"/>
<path id="Vector_67" opacity="0.1" d="M212.524 412.292C212.524 412.909 215.413 432.104 216.187 432.928C216.962 433.753 223.309 434.577 223.309 434.577L212.524 412.292Z" fill="black"/>
<path id="Vector_68" d="M233.482 149.928C230.724 153.232 229.531 157.915 226.318 160.709C224.366 162.392 221.896 163.194 219.625 164.338C217.354 165.482 215.104 167.227 214.429 169.818C213.675 172.735 215.13 175.713 215.894 178.63C216.684 181.648 216.731 184.8 216.779 187.958C216.831 191.778 216.888 195.598 216.826 199.418C216.731 205.369 216.271 211.595 213.325 216.638C223.963 220.267 235.277 220.761 246.433 221.226C248.577 221.39 250.731 221.332 252.865 221.052C254.714 220.658 256.542 220.161 258.344 219.566C261.905 218.556 265.575 218.052 269.259 218.068C270.866 218.068 272.504 218.175 274.053 217.726C275.602 217.278 277.093 216.128 277.512 214.467C277.883 212.975 277.339 211.388 276.627 210.047C275.33 207.602 273.488 205.56 272.096 203.148C270.675 200.6 269.832 197.73 269.634 194.77C269.437 191.809 269.891 188.84 270.96 186.102C272.195 183.022 274.184 180.341 275.398 177.256C276.641 173.944 276.972 170.318 276.35 166.811C275.729 163.303 274.181 160.06 271.892 157.467C267.669 152.834 261.609 151.039 255.811 150.085C253.37 149.776 251.04 148.811 249.039 147.28C246.815 145.71 243.932 145.328 241.326 145.676C238.32 146.037 235.535 147.547 233.482 149.928Z" fill="#3F3D56"/>
<g id="Group" opacity="0.1">
<path id="Vector_69" opacity="0.1" d="M271.122 182.865C270.055 185.568 269.598 188.503 269.788 191.43C269.905 189.337 270.357 187.28 271.122 185.35C272.352 182.271 274.341 179.589 275.555 176.504C276.547 173.928 276.965 171.139 276.774 168.36C276.666 170.308 276.254 172.223 275.555 174.025C274.341 177.11 272.352 179.786 271.122 182.865Z" fill="black"/>
<path id="Vector_70" opacity="0.1" d="M216.936 187.195C216.967 189.394 216.998 191.599 217.004 193.797C217.004 190.768 216.978 187.745 216.936 184.722C216.894 181.586 216.841 178.411 216.051 175.388C215.528 173.47 214.754 171.523 214.481 169.588C214.016 172.337 215.34 175.124 216.051 177.867C216.841 180.863 216.894 184.06 216.936 187.195Z" fill="black"/>
<path id="Vector_71" opacity="0.1" d="M274.231 214.518C272.661 214.972 271.049 214.871 269.443 214.86C265.761 214.835 262.093 215.329 258.532 216.33C256.73 216.922 254.902 217.417 253.053 217.81C250.918 218.095 248.762 218.155 246.617 217.99C235.837 217.536 224.905 217.048 214.581 213.744C214.274 214.477 213.925 215.189 213.534 215.875C224.173 219.499 235.486 219.998 246.638 220.464C248.783 220.628 250.939 220.568 253.074 220.284C254.916 219.894 256.738 219.402 258.532 218.809C262.085 217.805 265.747 217.305 269.422 217.322C271.028 217.322 272.661 217.429 274.21 216.975C275.759 216.52 277.25 215.382 277.669 213.721C277.845 212.952 277.827 212.147 277.616 211.388C277.151 212.958 275.712 214.052 274.231 214.518Z" fill="black"/>
</g>
<path id="Vector_72" d="M258.731 207.871C258.344 208.802 256.711 216.846 256.324 217.67C255.936 218.495 253.822 231.693 253.629 232.434C253.435 233.174 239.693 229.337 239.693 229.337L231.42 221.905L222.917 212.835C222.917 212.835 222.666 204.651 228.929 202.026C229.355 201.847 229.792 201.701 230.238 201.589C237.836 199.631 237.072 174.867 237.072 174.867L252.666 182.086C252.666 182.086 249.777 196.535 249.877 199.323C249.903 200.259 250.588 200.843 251.483 201.196C252.867 201.618 254.307 201.785 255.743 201.69C255.743 201.69 259.118 206.945 258.731 207.871Z" fill="#FBBEBE"/>
<path id="Vector_73" d="M286.648 235.008L288.862 235.631C288.862 235.631 290.5 238.301 286.648 240.786C284.203 242.378 281.855 244.137 279.621 246.053L268.239 249.766L266.046 242.39L276.638 233.774L286.648 235.008Z" fill="#3D6CB9"/>
<path id="Vector_74" opacity="0.1" d="M286.648 235.008L288.862 235.631C288.862 235.631 290.5 238.301 286.648 240.786C284.203 242.378 281.855 244.137 279.621 246.053L268.239 249.766L266.046 242.39L276.638 233.774L286.648 235.008Z" fill="black"/>
<path id="Vector_75" d="M203.586 242.132L199.159 246.776C199.159 246.776 207.145 256.682 213.288 257.299C219.432 257.916 223.393 249.766 223.393 249.766L218.076 240.791L203.586 242.132Z" fill="#3D6CB9"/>
<path id="Vector_76" opacity="0.1" d="M203.586 242.132L199.159 246.776C199.159 246.776 207.145 256.682 213.288 257.299C219.432 257.916 223.393 249.766 223.393 249.766L218.076 240.791L203.586 242.132Z" fill="black"/>
<path id="Vector_77" opacity="0.1" d="M245.638 191.049C254.144 191.049 261.039 183.658 261.039 174.541C261.039 165.424 254.144 158.033 245.638 158.033C237.133 158.033 230.238 165.424 230.238 174.541C230.238 183.658 237.133 191.049 245.638 191.049Z" fill="black"/>
<path id="Vector_78" d="M245.638 189.809C254.144 189.809 261.039 182.419 261.039 173.301C261.039 164.184 254.144 156.794 245.638 156.794C237.133 156.794 230.238 164.184 230.238 173.301C230.238 182.419 237.133 189.809 245.638 189.809Z" fill="#FBBEBE"/>
<path id="Vector_79" opacity="0.1" d="M273.268 311.888C269.761 312.318 266.307 313.147 262.964 314.361C257.208 316.414 212.1 314.395 211.473 314.361C211.473 313.195 211.473 312.505 211.473 312.505L213.681 306.626L239.845 303.115H252.362C252.362 303.115 271.201 307.86 273.148 309.908C273.226 311.142 273.268 311.888 273.268 311.888Z" fill="black"/>
<path id="Vector_80" opacity="0.1" d="M258.731 207.871C258.344 208.802 256.711 216.846 256.324 217.67C255.936 218.495 253.822 231.693 253.629 232.433C253.435 233.174 239.693 229.337 239.693 229.337L231.42 221.905L222.917 212.835C222.917 212.835 222.666 204.651 228.929 202.026L244.482 221.193L251.483 201.196C252.867 201.618 254.307 201.785 255.743 201.69C255.743 201.69 259.118 206.945 258.731 207.871Z" fill="black"/>
<path id="Vector_81" d="M244.482 221.81L228.563 202.178C227.631 201.54 226.566 201.161 225.464 201.073C224.361 200.986 223.256 201.194 222.247 201.678C218.683 203.333 214.256 204.674 213.1 205.498C211.943 206.323 207.611 211.427 207.611 211.427L220.515 247.612L214.832 271.445C214.832 271.445 215.701 283.623 213.487 288.06C212.139 290.897 211.508 294.062 211.656 297.242C211.656 297.242 212.331 303.126 211.561 306.217C211.112 308.283 211.078 310.429 211.462 312.51C211.462 312.51 257.192 314.574 262.964 312.51C266.306 311.293 269.761 310.463 273.268 310.037C273.268 310.037 272.221 289.395 271.175 284.442C270.128 279.489 272.043 260.608 272.043 260.608L270.793 240.382L278.297 219.628C278.297 219.628 274.231 206.323 269.992 204.982C269.992 204.982 262.295 203.019 260.657 202.093C259.019 201.168 254.204 200.338 254.204 200.338L251.677 201.246L244.482 221.81Z" fill="#3D6CB9"/>
<path id="Vector_82" opacity="0.1" d="M266.691 239.699L233.194 237.257C232.347 237.196 231.613 237.882 231.555 238.791L227.959 295.481C227.901 296.39 228.542 297.176 229.389 297.238L262.886 299.68C263.734 299.741 264.468 299.055 264.526 298.146L268.122 241.456C268.18 240.547 267.539 239.761 266.691 239.699Z" fill="black"/>
<path id="Vector_83" d="M267.845 238.468L234.348 236.026C233.5 235.964 232.766 236.651 232.708 237.559L229.112 294.25C229.054 295.158 229.695 295.945 230.543 296.007L264.04 298.448C264.887 298.51 265.621 297.824 265.679 296.915L269.275 240.225C269.333 239.316 268.692 238.529 267.845 238.468Z" fill="#3F3D56"/>
<path id="Vector_84" d="M266.739 242.911L234.882 240.589L231.608 292.198L263.466 294.52L266.739 242.911Z" fill="white"/>
<path id="Vector_85" opacity="0.1" d="M263.883 256.084L237.86 254.132L237.352 261.906L263.375 263.859L263.883 256.084Z" fill="black"/>
<path id="Vector_86" opacity="0.1" d="M262.941 286.979L258.811 286.678L258.554 290.73L262.684 291.031L262.941 286.979Z" fill="black"/>
<path id="Vector_87" opacity="0.1" d="M258.868 277.2L237.728 275.66L237.471 279.711L258.611 281.252L258.868 277.2Z" fill="black"/>
<path id="Vector_88" d="M262.796 240.982L240.785 239.377L240.39 245.606L262.401 247.21L262.796 240.982Z" fill="#3F3D56"/>
<path id="Vector_89" opacity="0.1" d="M262.796 240.982L240.785 239.377L240.39 245.606L262.401 247.21L262.796 240.982Z" fill="black"/>
<path id="Vector_90" opacity="0.1" d="M246.407 310.749C246.407 310.749 246.214 341.297 238.705 358.837C238.705 358.837 247.757 335.721 247.757 334.796C247.757 333.87 252.76 324.166 251.421 321.277C250.081 318.389 246.407 310.749 246.407 310.749Z" fill="black"/>
<path id="Vector_91" opacity="0.1" d="M246.816 169.173C246.528 166.469 247.145 163.744 248.558 161.483C248.39 163.749 248.988 166.005 250.243 167.838C251.497 169.671 253.325 170.959 255.392 171.467C255.216 171.303 255.09 171.086 255.031 170.843C254.972 170.601 254.983 170.345 255.063 170.11C256.135 171.411 256.957 172.954 258.171 174.098C259.385 175.242 261.206 175.927 262.635 175.113C264.576 173.991 264.597 171.035 264.095 168.736C263.017 163.838 260.805 159.31 257.663 155.571C256.88 154.441 255.862 153.52 254.691 152.882C253.52 152.243 252.227 151.904 250.913 151.891C247.941 151.644 244.853 151.925 242.19 153.355C240.691 154.232 239.287 155.284 238.003 156.491L230.677 162.896C229.972 163.441 229.369 164.122 228.898 164.905C228.584 165.559 228.395 166.274 228.343 167.008C228.156 169.106 228.518 171.218 229.389 173.108C230.26 174.997 231.605 176.589 233.273 177.705C233.237 176.047 233.663 174.415 234.495 173.016C235.327 171.618 236.528 170.517 237.946 169.852C238.168 170.051 238.348 170.298 238.473 170.578C238.598 170.858 238.667 171.163 238.673 171.473L240.217 168.522C240.446 167.986 240.808 167.526 241.263 167.193C242.216 166.632 243.404 167.294 244.215 168.085C245.026 168.876 245.816 169.863 246.905 169.986L246.946 165.594" fill="black"/>
<path id="Vector_92" d="M246.815 168.556C246.527 165.851 247.145 163.123 248.558 160.86C248.087 165.348 251.243 169.981 255.397 170.845C255.221 170.682 255.095 170.465 255.036 170.224C254.977 169.982 254.988 169.727 255.068 169.493C256.141 170.794 256.962 172.331 258.176 173.481C259.39 174.631 261.211 175.31 262.64 174.491C264.581 173.369 264.602 170.413 264.1 168.119C263.022 163.221 260.81 158.693 257.669 154.954C256.694 153.68 255.465 152.657 254.074 151.959C253.066 151.559 252.007 151.328 250.934 151.274C247.961 151.027 244.874 151.302 242.21 152.733C240.713 153.613 239.309 154.667 238.024 155.874L230.698 162.279C229.992 162.822 229.388 163.504 228.919 164.288C228.604 164.942 228.415 165.657 228.364 166.391C228.177 168.488 228.54 170.599 229.411 172.488C230.281 174.376 231.626 175.967 233.294 177.082C233.26 175.424 233.686 173.793 234.518 172.395C235.35 170.997 236.55 169.895 237.967 169.229C238.188 169.429 238.367 169.677 238.492 169.956C238.618 170.236 238.687 170.54 238.694 170.85L240.232 167.911C240.461 167.373 240.823 166.913 241.279 166.582C242.231 166.021 243.419 166.683 244.23 167.474C245.042 168.264 245.832 169.246 246.92 169.375L246.962 164.977" fill="#3F3D56"/>
<path id="Vector_93" d="M254.11 272.679C252.765 271.95 230.525 275.669 230.525 275.669C230.525 275.669 226.862 274.547 218.008 272.988C209.154 271.429 208.589 262.151 208.589 262.151L207.621 243.579L210.609 240.774L223.409 249.749C223.409 249.749 223.608 254.287 223.409 255.106C223.283 255.667 222.948 256.334 222.98 256.789C222.989 256.912 223.037 257.028 223.114 257.119C223.192 257.21 223.295 257.272 223.409 257.293C224.277 257.529 236.114 259.582 236.114 259.582C236.114 259.582 263.55 257.568 270.39 267.474C270.932 268.201 271.342 269.031 271.599 269.92C273.294 276.69 255.329 273.324 254.11 272.679Z" fill="#FBBEBE"/>
<path id="Vector_94" opacity="0.1" d="M271.614 269.959C270.568 270.458 269.919 270.817 269.919 270.817C269.919 270.817 260.102 270.509 254.586 268.366C249.071 266.223 242.368 266.605 242.368 266.605C242.368 266.605 219.385 262.364 222.948 256.828C222.958 256.951 223.005 257.067 223.083 257.158C223.16 257.25 223.264 257.311 223.377 257.333C224.246 257.568 236.083 259.621 236.083 259.621C236.083 259.621 263.519 257.608 270.358 267.513C270.917 268.237 271.343 269.066 271.614 269.959Z" fill="black"/>
<path id="Vector_95" d="M281.159 237.28C281.159 237.28 282.509 247.494 282.603 248.324C282.698 249.155 283.184 259.156 282.603 260.294C282.023 261.433 281.159 263.284 281.159 263.284C281.159 263.284 282.122 265.449 278.271 266.279C274.419 267.11 269.898 269.578 269.898 269.578C269.898 269.578 260.076 269.269 254.592 267.104C249.108 264.939 242.368 265.348 242.368 265.348C242.368 265.348 213.194 259.98 225.711 253.429C238.228 246.877 247.082 255.751 247.082 255.751L261.039 254.825C261.039 254.825 266.24 251.415 267.684 251.729C268.704 251.868 269.74 251.689 270.667 251.213L270.767 240.376L281.159 237.28Z" fill="#FBBEBE"/>
<path id="Vector_96" opacity="0.1" d="M210.389 212.207L207.595 212.05L199.128 247.388C199.128 247.388 208.27 244.908 212.21 247.388C216.151 249.867 223.377 250.377 223.377 250.377L220.682 222.208L210.389 212.207Z" fill="black"/>
<path id="Vector_97" d="M210.389 211.584L207.595 211.427L199.128 246.765C199.128 246.765 208.27 244.286 212.21 246.765C216.151 249.244 223.377 249.755 223.377 249.755L220.682 221.585L210.389 211.584Z" fill="#3D6CB9"/>
<path id="Vector_98" opacity="0.1" d="M274.424 219.325L278.27 220.256C278.27 220.256 288.093 235.401 288.862 236.248C289.631 237.095 285.199 240.174 283.373 240.174C281.546 240.174 272.593 241.296 269.992 243.888C267.391 246.479 268.474 233.438 268.474 233.14C268.474 232.843 271.703 224.614 271.703 224.614L274.424 219.325Z" fill="black"/>
<path id="Vector_99" d="M274.424 218.708L278.27 219.633C278.27 219.633 288.093 234.806 288.862 235.631C289.631 236.455 285.199 239.557 283.373 239.557C281.546 239.557 272.593 240.679 269.992 243.27C267.391 245.862 268.474 232.82 268.474 232.523C268.474 232.226 271.724 223.969 271.724 223.969L274.424 218.708Z" fill="#3D6CB9"/>
</g>
<g id="Group_2" opacity="0.1">
<path id="Vector_100" opacity="0.1" d="M248.532 160.911C248.509 160.481 248.518 160.049 248.558 159.621C247.761 160.902 247.213 162.342 246.946 163.856V165.157C246.946 165.157 246.946 165.129 246.946 165.112V165.421C246.946 166.329 246.946 167.244 246.92 168.152H246.847V168.573C246.847 168.427 246.847 168.287 246.821 168.141C245.774 167.962 245.026 167.019 244.246 166.268C243.466 165.516 242.247 164.798 241.295 165.376C240.839 165.707 240.476 166.167 240.248 166.705L238.694 169.644C238.687 169.335 238.619 169.031 238.493 168.752C238.368 168.474 238.188 168.227 237.967 168.029C236.549 168.694 235.348 169.795 234.516 171.193C233.684 172.592 233.258 174.224 233.294 175.882C231.864 174.921 230.668 173.61 229.804 172.057C228.941 170.503 228.435 168.751 228.328 166.946C228.237 168.962 228.649 170.967 229.522 172.754C230.395 174.542 231.697 176.047 233.294 177.116C233.26 175.458 233.686 173.827 234.518 172.429C235.35 171.031 236.55 169.929 237.967 169.263C238.188 169.463 238.367 169.71 238.493 169.99C238.618 170.269 238.687 170.574 238.694 170.884L240.233 167.945C240.461 167.407 240.823 166.947 241.279 166.615C242.232 166.054 243.419 166.716 244.23 167.507C245.042 168.298 245.832 169.28 246.92 169.409C246.92 167.973 246.934 166.541 246.962 165.112C247.219 163.614 247.753 162.185 248.532 160.911Z" fill="black"/>
<path id="Vector_101" opacity="0.1" d="M246.763 166.559C246.79 166.178 246.832 165.796 246.885 165.437L246.943 163.889C246.784 164.769 246.724 165.665 246.763 166.559Z" fill="black"/>
<path id="Vector_102" opacity="0.1" d="M262.64 173.251C261.211 174.07 259.39 173.386 258.176 172.241C256.962 171.097 256.141 169.555 255.068 168.253C254.988 168.489 254.977 168.744 255.036 168.987C255.095 169.229 255.221 169.447 255.397 169.611C255.293 169.611 255.193 169.555 255.094 169.527C256.141 170.817 256.973 172.331 258.176 173.453C259.38 174.575 261.211 175.282 262.64 174.463C264.068 173.644 264.477 171.725 264.351 169.857C264.257 171.327 263.765 172.6 262.64 173.251Z" fill="black"/>
<path id="Vector_103" opacity="0.1" d="M255.063 169.515C253.313 169.004 251.75 167.932 250.585 166.442C249.42 164.952 248.707 163.116 248.542 161.18C248.244 165.583 251.342 169.998 255.398 170.845C255.225 170.684 255.101 170.472 255.041 170.235C254.981 169.998 254.989 169.748 255.063 169.515Z" fill="black"/>
</g>
<g id="man">
<path id="Vector_104" opacity="0.1" d="M460.198 484C488.359 484 511.187 480.07 511.187 475.222C511.187 470.373 488.359 466.443 460.198 466.443C432.037 466.443 409.209 470.373 409.209 475.222C409.209 480.07 432.037 484 460.198 484Z" fill="#3D6CB9"/>
<path id="Vector_105" d="M506.368 261.192C506.368 261.192 504.306 260.883 504.306 257.669C504.306 254.455 502.83 248.437 502.83 248.437C502.83 248.437 501.554 237.964 499.79 236.304C498.027 234.644 495.761 224.895 495.761 224.895C495.761 224.895 495.373 219.605 494.583 218.467C493.793 217.328 492.726 214.54 491.151 210.563C489.575 206.587 483.024 203.86 483.024 203.86C483.024 203.86 471.15 196.479 467.786 194.072C467.478 193.873 467.19 193.64 466.927 193.377C466.341 192.558 463.788 192.541 463.788 192.541C463.521 190.729 463.264 188.654 463.181 186.775C463.181 186.573 463.181 186.371 463.181 186.169C466.933 183.792 469.759 180.044 471.14 175.613C471.203 175.399 471.255 175.181 471.313 174.962C471.542 174.886 471.754 174.759 471.935 174.589C472.115 174.418 472.26 174.209 472.359 173.975C472.657 173.251 472.668 172.41 473.045 171.731C473.484 170.935 474.321 170.508 474.981 169.914C476.645 168.394 477.074 165.841 476.995 163.525C476.943 161.64 476.661 159.744 476.77 157.876C476.77 157.719 476.77 157.562 476.802 157.405C476.833 157.13 476.87 156.844 476.917 156.575C477.173 155.184 477.733 153.871 478.047 152.491C478.361 151.112 478.393 149.558 477.66 148.369C476.587 146.624 474.353 146.277 472.391 146.125C470.167 145.923 468.204 146.181 466.755 144.201C466.09 143.167 465.34 142.198 464.515 141.307C464.222 141.015 461.375 139.147 461.375 139.029C458.59 137.641 455.43 137.38 452.479 138.295C450.998 138.755 449.612 139.506 448.11 139.882C444.886 140.701 441.171 139.815 438.429 141.795C436.901 142.917 435.985 144.706 435.127 146.439C434.429 147.868 433.721 149.298 433.002 150.73C431.841 153.08 430.669 155.47 430.182 158.073C430.08 158.641 430.015 159.217 429.988 159.795C429.988 160.002 429.988 160.21 429.988 160.417C429.988 160.507 429.988 160.597 429.988 160.687C429.988 160.877 429.988 161.068 430.02 161.247C430.051 161.427 430.02 161.477 430.056 161.595C430.093 161.713 430.103 161.977 430.135 162.156C430.166 162.336 430.229 162.655 430.292 162.897C430.292 163.003 430.355 163.104 430.386 163.211C430.417 163.317 430.501 163.586 430.569 163.772C430.637 163.957 430.642 163.968 430.684 164.063C430.763 164.26 430.857 164.45 430.951 164.624C430.993 164.697 431.024 164.77 431.066 164.843C431.21 165.105 431.371 165.357 431.548 165.595C432.662 167.092 434.316 168.046 435.535 169.448C435.535 169.504 435.535 169.56 435.535 169.616C435.535 169.768 435.535 169.919 435.535 170.076C435.61 173.204 436.396 176.265 437.826 178.992C439.256 181.72 441.287 184.031 443.74 185.726C443.74 185.939 443.767 186.158 443.777 186.377C443.879 188.04 443.86 189.709 443.719 191.369C443.506 191.1 443.239 190.887 442.938 190.743C442.638 190.599 442.311 190.529 441.982 190.539C441.757 190.527 441.532 190.547 441.312 190.6L441.265 190.561V190.612C440.114 190.914 438.696 192.199 437.341 195.851C437.341 195.851 433.217 200.831 430.077 200.624C426.938 200.416 418.989 205.812 418.989 205.812C418.989 205.812 411.234 211.203 409.57 216.7C408.639 219.818 407.522 222.868 406.226 225.832L396.613 246.989L394.849 263.817C394.849 263.817 395.828 271.283 395.634 272.427C395.441 273.571 399.658 283.836 399.658 283.836C399.658 283.836 413.594 310.076 419.287 311.422L419.695 311.119C419.94 311.252 420.198 311.353 420.464 311.422L421.637 310.542C421.709 311.528 421.678 312.519 421.542 313.498C420.763 316.095 421.841 333.001 423.212 336.316C424.583 339.631 424.096 383.102 424.096 383.102L423.902 386.933C423.902 386.933 423.902 387.056 423.95 387.27L423.902 388.178L424.044 388.257C424.19 389.476 424.143 390.712 423.902 391.914C423.411 393.597 423.212 398.348 423.212 398.348C423.212 398.348 419.287 425.205 421.15 430.601C423.013 435.997 424.588 441.909 424.588 441.909C424.588 441.909 426.55 448.64 424.682 449.762C422.814 450.883 417.524 452.875 418.602 455.674C419.596 458.265 423.369 465.209 423.929 466.225L423.882 466.785L423.112 475.721C423.237 476.901 423.535 478.052 423.997 479.131C424.839 481.083 426.472 483.097 429.591 482.878C430.114 482.839 430.716 482.777 431.307 482.693C437.006 481.869 444.018 479.143 444.018 479.143C443.654 478.896 443.322 478.6 443.029 478.262C442.749 477.971 442.527 477.622 442.376 477.236C442.226 476.851 442.151 476.436 442.155 476.018C442.239 474.386 439.397 466.64 438.685 464.727L438.523 464.301C438.523 464.301 445.002 457.037 443.924 450.609C443.924 450.609 436.754 446.121 439.115 443.653C441.475 441.185 445.692 434.118 445.692 434.118C445.692 434.118 445.886 407.67 445.692 403.727C445.49 400.984 445.612 398.225 446.053 395.515C446.132 395.111 446.226 394.713 446.325 394.315C449.592 394.843 452.891 395.111 456.195 395.117C457.402 395.117 458.623 395.091 459.858 395.038C459.858 395.412 459.873 395.816 459.905 396.25C460.177 402.801 460.685 414.295 461.098 418.563C461.684 424.677 464.923 441.174 464.923 441.174C464.923 441.174 458.743 445.42 466.001 455.904C466.001 455.904 466.001 459.695 465.52 460.251C465.005 462.05 464.591 463.879 464.28 465.731C463.976 467.7 463.85 469.702 464.342 470.734C465.52 473.214 472.584 473.012 472.584 473.012C472.641 472.998 472.699 472.988 472.757 472.984C474.09 472.833 475.438 472.968 476.722 473.382C478.006 473.796 479.2 474.481 480.235 475.396C482.919 477.707 493.102 476.697 498.623 475.957C500.784 475.659 502.229 475.396 502.229 475.396C502.298 475.133 502.323 474.86 502.302 474.588C502.244 473.135 501.182 469.949 493.982 467.105C493.982 467.105 487.21 462.225 487.304 457.973H487.153H486.373C486.865 457.957 487.21 457.957 487.21 457.957C487.21 457.957 484.557 447.585 485.64 446.738C486.723 445.891 483.479 434.398 483.479 434.398C483.479 434.398 481.621 415.102 481.517 413.756C481.524 412.596 481.689 411.443 482.009 410.335L481.517 399.75C481.517 399.75 481.423 396.233 481.517 395.089C481.506 394.096 481.433 393.104 481.297 392.122C481.25 391.729 481.203 391.319 481.15 390.916C483.688 390.226 485.337 389.592 485.337 389.592L485.044 352.768C487.2 348.28 487.597 338.43 487.587 331.453C487.587 326.965 487.399 323.645 487.399 323.645L490.345 318.49C490.345 318.49 491.025 312.32 489.947 310.968C489.471 310.356 489.685 309.723 490.078 309.201C490.284 309.02 490.503 308.855 490.732 308.707C490.706 308.668 490.683 308.627 490.664 308.584C490.87 308.4 491.088 308.233 491.318 308.085C491.318 308.085 490.271 306.346 491.208 305.611C492.087 306.251 492.872 306.761 493.469 307.126C493.427 307.535 493.385 307.771 493.385 307.771L493.636 307.21C494.212 307.557 494.562 307.771 494.562 307.771C494.562 307.771 499.178 297.915 499.078 296.468C498.979 295.021 502.218 288.896 502.218 288.896C502.218 288.896 502.611 285.676 504.379 284.33C506.148 282.984 505.75 273.229 505.75 273.229C505.75 273.229 506.242 268.147 507.42 266.078C508.597 264.008 506.368 261.192 506.368 261.192ZM418.057 256.867L418.146 259.218C417.623 258.314 417.246 257.669 417.246 257.669L418.057 256.867Z" fill="url(#paint1_linear)"/>
<path id="Vector_106" d="M494.835 303.508L493.704 308.668C493.704 308.668 484.651 303.704 483.024 297.422C481.396 291.139 485.75 288.744 485.75 288.744L494.191 292.57L494.835 303.508Z" fill="white"/>
<path id="Vector_107" opacity="0.1" d="M494.835 303.508L493.704 308.668C493.704 308.668 484.651 303.704 483.024 297.422C481.396 291.139 485.75 288.744 485.75 288.744L494.191 292.57L494.835 303.508Z" fill="black"/>
<path id="Vector_108" d="M444.028 479.137C444.028 479.137 435.656 482.435 429.899 482.85C426.843 483.069 425.237 481.061 424.41 479.126C423.961 478.058 423.668 476.923 423.541 475.76L424.3 466.87L424.698 462.141L436.927 458.731L438.659 464.413L438.821 464.839C439.512 466.741 442.307 474.448 442.223 476.057C442.216 476.474 442.288 476.887 442.435 477.273C442.581 477.659 442.799 478.008 443.076 478.301C443.359 478.622 443.679 478.903 444.028 479.137Z" fill="white"/>
<path id="Vector_109" d="M501.192 474.616C501.214 474.888 501.189 475.161 501.119 475.423C501.119 475.423 483.212 478.621 479.549 475.423C478.52 474.49 477.319 473.796 476.026 473.388C474.732 472.979 473.372 472.864 472.035 473.051C472.035 473.051 465.107 473.253 463.95 470.807C463.469 469.781 463.594 467.789 463.893 465.832C464.197 463.99 464.603 462.17 465.107 460.38L465.384 460.144L467.032 458.725L486.331 458.114H486.478C486.383 462.343 493.024 467.195 493.024 467.195C500.094 469.999 501.135 473.169 501.192 474.616Z" fill="white"/>
<path id="Vector_110" opacity="0.1" d="M501.198 474.616C501.216 474.888 501.19 475.161 501.119 475.424C501.119 475.424 483.212 478.621 479.555 475.424C478.524 474.489 477.323 473.795 476.028 473.386C474.733 472.978 473.373 472.864 472.035 473.051C472.035 473.051 465.101 473.253 463.945 470.807C463.469 469.781 463.589 467.79 463.887 465.826C466.556 466.112 470.768 466.825 472.422 468.53C474.923 471.11 479.162 473.69 481.758 473.898C483.809 474.032 496.007 474.448 501.198 474.616Z" fill="black"/>
<path id="Vector_111" opacity="0.1" d="M444.028 479.137C444.028 479.137 435.656 482.435 429.899 482.85C426.843 483.069 425.237 481.061 424.41 479.126C426.545 479.894 429.502 480.696 431.056 479.961C432.898 479.081 439.429 478.52 443.092 478.279C443.368 478.607 443.683 478.895 444.028 479.137Z" fill="black"/>
<path id="Vector_112" d="M456.451 213.323C449.544 210.445 440.658 200.938 442.877 196.495C443.367 195.373 443.66 194.164 443.74 192.928C443.883 191.25 443.904 189.562 443.803 187.88C443.647 185.123 443.338 182.379 442.877 179.662C442.877 179.662 464.442 180.184 463.186 183.589C462.82 184.593 462.757 186.326 462.861 188.261C462.966 190.196 463.223 192.401 463.495 194.257C463.866 196.798 464.248 198.745 464.248 198.745C464.248 198.745 462.924 200.725 462.155 200.831C461.386 200.938 466.362 217.446 456.451 213.323Z" fill="#CF6F80"/>
<path id="Vector_113" opacity="0.1" d="M438.8 464.811L438.638 465.002C432.191 456.644 424.394 467.066 424.394 467.066L424.279 466.842L424.677 462.113L436.906 458.703L438.638 464.385L438.8 464.811Z" fill="black"/>
<path id="Vector_114" opacity="0.1" d="M486.488 458.702C486.488 458.702 481.778 458.602 479.267 460.98C476.755 463.358 464.614 461.49 465.138 460.98C465.29 460.721 465.384 460.427 465.41 460.122L467.058 458.702L486.357 458.091C486.431 458.484 486.488 458.702 486.488 458.702Z" fill="black"/>
<path id="Vector_115" d="M446.823 393.069C446.473 393.999 446.206 394.963 446.027 395.947C445.591 398.643 445.47 401.386 445.666 404.114C445.86 408.04 445.666 434.353 445.666 434.353C445.666 434.353 441.527 441.37 439.214 443.844C436.901 446.318 443.924 450.76 443.924 450.76C444.97 457.16 438.628 464.385 438.628 464.385C432.181 456.027 424.384 466.443 424.384 466.443C424.384 466.443 420.145 458.59 419.088 455.786C418.031 452.981 423.227 451.046 425.054 449.902C426.88 448.758 424.96 442.049 424.96 442.049C424.96 442.049 423.421 436.165 421.59 430.797C419.758 425.429 423.61 398.712 423.61 398.712C423.61 398.712 423.808 393.961 424.285 392.307C424.522 391.112 424.57 389.883 424.426 388.672C424.394 388.262 424.358 387.926 424.332 387.69C424.306 387.455 424.285 387.354 424.285 387.354L424.358 387.219L426.974 381.991C426.974 381.991 448.079 389.777 446.823 393.069Z" fill="#3D6CB9"/>
<path id="Vector_116" d="M486.488 458.086C486.488 458.086 481.778 457.979 479.267 460.329C476.755 462.679 464.614 460.845 465.138 460.329C465.661 459.813 465.614 455.999 465.614 455.999C458.492 445.571 464.567 441.342 464.567 441.342C464.567 441.342 461.391 424.935 460.815 418.849C460.412 414.603 459.915 403.144 459.648 396.654C459.533 393.849 459.465 391.914 459.465 391.914L465.232 390.686L465.98 390.528L480.015 387.505C480.015 387.505 480.402 390.31 480.664 392.604C480.796 393.583 480.868 394.571 480.878 395.56C480.789 396.682 480.878 400.199 480.878 400.199L481.36 410.722C481.049 411.826 480.887 412.973 480.878 414.126C480.978 415.473 482.804 434.662 482.804 434.662C482.804 434.662 485.98 446.116 484.897 446.94C483.814 447.765 486.488 458.086 486.488 458.086Z" fill="#3D6CB9"/>
<path id="Vector_117" opacity="0.1" d="M463.186 183.606C462.82 184.61 462.757 186.343 462.861 188.278C459.973 190.142 456.652 191.096 453.281 191.028C449.91 190.961 446.625 189.875 443.803 187.897C443.647 185.14 443.338 182.396 442.877 179.679C442.877 179.679 464.442 180.201 463.186 183.606Z" fill="black"/>
<path id="Vector_118" d="M471.511 171.22C471.568 176.31 469.737 181.215 466.42 184.856C463.103 188.498 458.572 190.578 453.824 190.639C449.076 190.7 444.5 188.737 441.103 185.182C437.705 181.626 435.765 176.77 435.708 171.68C435.708 171.523 435.708 171.377 435.708 171.22C435.708 166.13 437.595 161.247 440.953 157.648C444.311 154.048 448.866 152.026 453.615 152.026C458.364 152.026 462.919 154.048 466.277 157.648C469.635 161.247 471.522 166.13 471.522 171.22H471.511Z" fill="#CF6F80"/>
<path id="Vector_119" opacity="0.1" d="M456.451 213.323C449.544 210.445 440.658 200.938 442.877 196.495C443.367 195.373 443.66 194.164 443.74 192.928L453.196 201.263L459.047 206.407L463.495 194.274C463.866 196.815 464.248 198.762 464.248 198.762C464.248 198.762 462.924 200.742 462.155 200.848C461.386 200.955 466.362 217.446 456.451 213.323Z" fill="black"/>
<path id="Vector_120" d="M480.905 250.159L473.008 392.351L462.71 393.075L436.038 310.626L440.412 212.74L441.339 192.059L453.196 202.497L459.047 207.641L463.626 195.149L472.14 203.103L480.905 250.159Z" fill="#3D6CB9"/>
<path id="Vector_121" opacity="0.1" d="M446.823 393.069C446.473 393.999 446.206 394.963 446.027 395.947C438.527 394.709 431.242 392.272 424.415 388.717L424.274 388.638L424.321 387.735V387.264L426.938 382.036C426.938 382.036 448.079 389.777 446.823 393.069Z" fill="black"/>
<path id="Vector_122" opacity="0.1" d="M465.405 395.969C463.489 396.32 461.557 396.558 459.617 396.682C459.502 393.877 459.434 391.942 459.434 391.942L465.232 390.686L465.405 395.969Z" fill="black"/>
<path id="Vector_123" opacity="0.1" d="M480.685 392.604C476.964 393.642 471.213 394.808 466.074 394.079L466.001 390.528L480.036 387.505C480.036 387.505 480.407 390.287 480.685 392.604Z" fill="black"/>
<path id="Vector_124" opacity="0.1" d="M465.98 394.73C444.525 398.656 424.876 387.399 424.876 387.399L425.064 383.584C425.064 383.584 425.551 340.343 424.201 337.028C422.851 333.713 421.799 316.925 422.563 314.361C423.327 311.798 419.774 273.094 419.774 273.094L419.198 257.389L398.115 248.207L407.534 227.155C408.806 224.204 409.9 221.169 410.81 218.068C412.448 212.599 420.051 207.231 420.051 207.231C420.051 207.231 427.848 201.869 430.93 202.071C434.013 202.273 438.052 197.326 438.052 197.326C441.035 189.175 443.735 192.838 443.735 192.838C443.735 193.231 443.735 192.838 443.589 194.044C442.542 202.991 460.512 231.261 460.768 231.766L462.501 276.449L464.233 332.995L465.98 394.73Z" fill="black"/>
<path id="Vector_125" d="M465.405 394.73C443.95 398.656 424.295 387.399 424.295 387.399L424.488 383.584C424.488 383.584 424.97 340.343 423.62 337.028C422.27 333.713 421.218 316.908 421.987 314.322C422.756 311.736 419.182 273.072 419.182 273.072L418.601 257.366L397.523 248.184L406.943 227.133C408.212 224.183 409.306 221.149 410.218 218.052C411.856 212.599 419.486 207.226 419.486 207.226C419.486 207.226 427.283 201.863 430.36 202.065C433.437 202.267 437.497 197.326 437.497 197.326C440.485 189.175 443.777 192.838 443.777 192.838C443.777 193.231 443.463 193.399 443.63 194.044C445.933 202.722 459.978 231.261 460.234 231.766L461.967 276.449L463.662 333.023L465.405 394.73Z" fill="white"/>
<path id="Vector_126" opacity="0.1" d="M459.622 233.028C457.315 231.996 445.091 217.036 445.091 217.036V213.631C444.646 212.51 441.998 213.194 439.858 213.979L440.779 193.298L441.825 194.229C444.112 202.901 459.371 232.529 459.622 233.028Z" fill="black"/>
<path id="Vector_127" d="M460.203 231.794C457.89 230.756 445.666 215.802 445.666 215.802V212.392C445.221 211.27 442.579 211.954 440.433 212.74L441.339 192.081L442.385 193.007C444.693 201.667 459.947 231.289 460.203 231.794Z" fill="white"/>
<path id="Vector_128" opacity="0.1" d="M424.876 306.396C425.164 306.396 439.795 304.747 439.795 304.747C439.795 304.747 448.654 323.426 448.073 327.964C447.493 332.501 446.441 336.529 442.877 335.817C439.314 335.104 423.698 336.377 423.698 336.377L424.876 306.396Z" fill="black"/>
<path id="Vector_129" d="M424.295 305.157C424.588 305.157 439.219 303.508 439.219 303.508C439.219 303.508 448.073 322.214 447.498 326.702C446.922 331.189 445.86 335.267 442.301 334.554C438.743 333.842 423.118 335.115 423.118 335.115L424.295 305.157Z" fill="white"/>
<path id="Vector_130" d="M435.321 296.412C435.321 296.412 448.749 304.153 449.036 306.508C449.324 308.864 442.202 305.476 440.664 305.061C439.65 304.803 438.62 304.631 437.581 304.545L427.32 304.842L435.321 296.412Z" fill="#CF6F80"/>
<path id="Vector_131" opacity="0.1" d="M455.87 233.993C456.651 233.993 457.283 233.315 457.283 232.478C457.283 231.642 456.651 230.964 455.87 230.964C455.09 230.964 454.458 231.642 454.458 232.478C454.458 233.315 455.09 233.993 455.87 233.993Z" fill="black"/>
<path id="Vector_132" d="M455.87 233.376C456.651 233.376 457.283 232.698 457.283 231.861C457.283 231.025 456.651 230.347 455.87 230.347C455.09 230.347 454.458 231.025 454.458 231.861C454.458 232.698 455.09 233.376 455.87 233.376Z" fill="#3F3D56"/>
<path id="Vector_133" opacity="0.1" d="M458.471 299.553C459.251 299.553 459.884 298.875 459.884 298.039C459.884 297.202 459.251 296.524 458.471 296.524C457.691 296.524 457.058 297.202 457.058 298.039C457.058 298.875 457.691 299.553 458.471 299.553Z" fill="black"/>
<path id="Vector_134" d="M458.471 298.93C459.251 298.93 459.884 298.252 459.884 297.416C459.884 296.579 459.251 295.901 458.471 295.901C457.691 295.901 457.058 296.579 457.058 297.416C457.058 298.252 457.691 298.93 458.471 298.93Z" fill="#3F3D56"/>
<path id="Vector_135" opacity="0.1" d="M457.283 266.773C458.063 266.773 458.696 266.095 458.696 265.258C458.696 264.422 458.063 263.744 457.283 263.744C456.503 263.744 455.87 264.422 455.87 265.258C455.87 266.095 456.503 266.773 457.283 266.773Z" fill="black"/>
<path id="Vector_136" d="M457.283 266.156C458.063 266.156 458.696 265.478 458.696 264.642C458.696 263.805 458.063 263.127 457.283 263.127C456.503 263.127 455.87 263.805 455.87 264.642C455.87 265.478 456.503 266.156 457.283 266.156Z" fill="#3F3D56"/>
<path id="Vector_137" d="M489.853 304.231C489.853 304.231 490.816 305.779 489.853 306.475C488.89 307.17 489.947 308.954 489.947 308.954C489.947 308.954 487.545 310.457 488.602 311.82C489.659 313.183 488.989 319.303 488.989 319.303L486.101 324.458C486.101 324.458 486.273 327.762 486.284 332.227C486.284 339.193 485.902 348.987 483.788 353.452L484.07 390.085C484.07 390.085 473.955 394.051 465.488 392.84L464.232 334.055C464.232 334.055 466.064 300.72 466.739 294.325C467.134 291.006 467.295 287.659 467.22 284.313C467.22 284.313 466.933 274.306 465.965 269.667C465.965 269.667 464.918 249.542 464.813 243.972C464.766 241.307 464.897 233.533 465.044 226.14C465.206 218.057 465.389 210.434 465.389 210.434L463.479 194.229C463.479 194.229 465.389 194.027 465.965 194.846C466.222 195.105 466.503 195.336 466.802 195.536C470.104 197.926 481.752 205.274 481.752 205.274C481.752 205.274 488.199 208.022 489.743 211.96C491.287 215.898 492.359 218.691 493.108 219.813C493.856 220.935 494.264 226.207 494.264 226.207C494.264 226.207 496.483 235.911 498.215 237.555C499.947 239.198 501.192 249.631 501.192 249.631L485.886 262.532C485.886 262.532 484.541 283.993 484.253 284.823C483.966 285.654 489.853 304.231 489.853 304.231Z" fill="white"/>
<path id="Vector_138" d="M490.434 304.231C490.434 304.231 491.391 305.779 490.434 306.475C489.476 307.17 490.523 308.954 490.523 308.954C490.523 308.954 488.121 310.457 489.178 311.82C490.235 313.183 489.565 319.303 489.565 319.303L486.687 324.458C486.687 324.458 486.86 327.762 486.875 332.227C486.875 339.193 486.493 348.987 484.379 353.452L484.667 390.085C484.667 390.085 474.552 394.051 466.085 392.839L464.834 334.055C464.834 334.055 466.661 300.72 467.341 294.325C467.736 291.006 467.896 287.659 467.817 284.313C467.817 284.313 467.529 274.306 466.566 269.667C466.566 269.667 465.52 249.542 465.41 243.972C465.363 241.307 465.494 233.533 465.64 226.14C465.802 218.057 465.986 210.434 465.986 210.434L463.463 194.011C463.463 194.011 465.986 194.011 466.566 194.846C466.822 195.108 467.103 195.339 467.404 195.536C470.7 197.926 482.349 205.274 482.349 205.274C482.349 205.274 488.78 208.022 490.35 211.96C491.92 215.898 492.966 218.691 493.715 219.813C494.463 220.935 494.871 226.207 494.871 226.207C494.871 226.207 497.09 235.911 498.822 237.555C500.554 239.198 501.805 249.631 501.805 249.631L486.499 262.532C486.499 262.532 485.154 283.993 484.861 284.823C484.568 285.654 490.434 304.231 490.434 304.231Z" fill="white"/>
<path id="Vector_139" opacity="0.1" d="M472.103 215.196L473.49 219.516L466.211 227.368C466.373 219.286 466.556 211.663 466.556 211.663L464.034 195.245C464.034 195.245 466.556 195.245 467.137 196.08C467.392 196.342 467.673 196.573 467.974 196.77L474.159 215.892L472.103 215.196Z" fill="black"/>
<path id="Vector_140" d="M471.512 213.957L472.898 218.27L465.624 226.123C465.781 218.04 465.97 210.417 465.97 210.417L463.442 193.994C463.442 193.994 465.97 193.994 466.545 194.83C466.802 195.089 467.083 195.32 467.383 195.519L473.605 214.658L471.512 213.957Z" fill="white"/>
<path id="Vector_141" opacity="0.1" d="M471.511 171.22C471.513 173.241 471.217 175.25 470.632 177.172C470.534 177.189 470.433 177.186 470.336 177.161C470.239 177.135 470.147 177.09 470.067 177.026C469.926 171.978 467.613 167.232 464.761 163.199C463.959 161.983 462.988 160.905 461.883 160.002C460.764 159.102 459.372 158.68 457.979 158.818C456.409 159.048 455.023 160.193 453.437 160.339C451.344 160.524 449.47 158.97 447.393 158.897C446.548 158.905 445.715 159.106 444.949 159.487C444.182 159.868 443.501 160.42 442.95 161.107C441.858 162.488 441.047 164.099 440.569 165.836C439.747 168.471 439.298 171.224 439.24 174.003C439.214 175.573 439.073 177.542 437.712 178.114C437.815 176.96 437.693 175.795 437.353 174.694C437.014 173.594 436.464 172.58 435.739 171.72L435.708 171.68C435.708 171.523 435.708 171.377 435.708 171.22C435.708 166.13 437.595 161.247 440.953 157.648C444.311 154.048 448.866 152.026 453.615 152.026C458.364 152.026 462.919 154.048 466.277 157.648C469.635 161.247 471.522 166.13 471.522 171.22H471.511Z" fill="black"/>
<path id="Vector_142" d="M461.046 140.746C458.326 139.375 455.234 139.115 452.349 140.017C450.899 140.477 449.533 141.223 448.063 141.598C444.923 142.412 441.26 141.531 438.565 143.5C437.068 144.622 436.168 146.394 435.331 148.122L433.238 152.39C432.097 154.729 430.946 157.108 430.47 159.682C429.994 162.257 430.281 165.14 431.804 167.216C432.908 168.719 434.551 169.667 435.755 171.086C436.478 171.951 437.026 172.967 437.365 174.071C437.703 175.174 437.825 176.341 437.723 177.497C439.083 176.936 439.219 174.956 439.251 173.386C439.309 170.607 439.757 167.854 440.58 165.219C441.057 163.482 441.868 161.871 442.961 160.49C443.511 159.803 444.192 159.249 444.959 158.867C445.725 158.485 446.558 158.283 447.403 158.274C449.497 158.353 451.375 159.907 453.447 159.716C455.017 159.576 456.409 158.432 457.99 158.202C459.383 158.06 460.775 158.482 461.893 159.385C463 160.285 463.969 161.364 464.766 162.582C467.623 166.621 469.942 171.344 470.078 176.409C470.669 176.869 471.522 176.263 471.815 175.545C472.108 174.827 472.118 173.986 472.49 173.301C472.919 172.511 473.741 172.084 474.384 171.49C476.017 169.981 476.425 167.44 476.362 165.135C476.3 162.829 475.881 160.49 476.289 158.224C476.535 156.839 477.09 155.532 477.393 154.157C477.697 152.783 477.733 151.241 477.016 150.057C475.97 148.324 473.767 147.976 471.846 147.813C469.664 147.611 467.712 147.869 466.32 145.901C465.665 144.875 464.93 143.91 464.123 143.018C463.835 142.72 461.046 140.869 461.046 140.746Z" fill="#512E4E"/>
<path id="Vector_143" opacity="0.1" d="M404.154 259.032L398.69 248.201L396.958 264.916C396.958 264.916 397.921 272.343 397.728 273.482C397.534 274.62 401.673 284.829 401.673 284.829C401.673 284.829 415.347 310.94 420.93 312.28L439.769 297.831L434.766 291.021C434.766 291.021 433.034 290.298 432.6 291.021C432.6 291.021 423.306 273.891 422.348 272.657C421.391 271.423 421.574 268.938 421.574 268.938C421.574 268.938 420.13 267.289 420.611 265.741C421.092 264.193 417.848 258.83 417.848 258.83L420.831 255.841L404.154 259.032Z" fill="black"/>
<path id="Vector_144" d="M398.978 246.961L397.534 248.201L395.802 264.916C395.802 264.916 396.765 272.343 396.571 273.482C396.377 274.62 400.522 284.829 400.522 284.829C400.522 284.829 414.19 310.94 419.774 312.28L438.644 297.831L433.636 291.022C433.636 291.022 431.904 290.298 431.469 291.022C431.469 291.022 422.181 273.891 421.218 272.657C420.255 271.423 420.449 268.938 420.449 268.938C420.449 268.938 419.004 267.289 419.486 265.741C419.967 264.193 416.692 258.83 416.692 258.83L419.674 255.841L398.978 246.961Z" fill="white"/>
<path id="Vector_145" opacity="0.1" d="M488.602 312.465C489.649 313.828 488.989 319.954 488.989 319.954L486.101 325.075C486.101 325.075 486.273 328.384 486.284 332.849L481.428 334.476C480.988 334.623 480.522 334.655 480.069 334.569C479.615 334.484 479.187 334.284 478.821 333.985C478.454 333.687 478.159 333.298 477.961 332.853C477.763 332.408 477.667 331.918 477.681 331.424L478.523 302.481L489.853 307.12C488.89 307.838 489.947 309.599 489.947 309.599C489.947 309.599 487.545 311.102 488.602 312.465Z" fill="black"/>
<path id="Vector_146" d="M489.178 311.848C490.224 313.206 489.565 319.331 489.565 319.331L486.687 324.458C486.687 324.458 486.86 327.762 486.875 332.227L481.93 333.881C481.501 334.026 481.045 334.058 480.602 333.975C480.159 333.892 479.74 333.697 479.382 333.405C479.023 333.114 478.735 332.734 478.541 332.299C478.347 331.864 478.253 331.385 478.267 330.903L479.11 301.858L490.434 306.508C489.466 307.226 490.523 308.988 490.523 308.988C490.523 308.988 488.121 310.485 489.178 311.848Z" fill="white"/>
<path id="Vector_147" d="M492.935 298.039C492.935 298.039 492.166 303.306 490.24 303.614C488.314 303.923 487.451 312.135 485.531 311.848C483.61 311.562 484.882 304.209 484.95 302.784C485.018 301.359 482.857 295.458 484.468 294.118C486.08 292.777 491.208 294.118 491.208 294.118L492.935 298.039Z" fill="#CF6F80"/>
<path id="Vector_148" opacity="0.1" d="M497.006 257.484L500.633 249.631C500.633 249.631 502.082 255.616 502.082 258.814C502.082 262.011 504.102 262.325 504.102 262.325C504.102 262.325 506.316 265.13 505.149 267.177C503.982 269.224 503.516 274.295 503.516 274.295C503.516 274.295 503.898 283.993 502.166 285.334C500.434 286.674 500.047 289.877 500.047 289.877C500.047 289.877 496.87 295.963 496.97 297.41C497.069 298.858 492.543 308.657 492.543 308.657C492.543 308.657 494.756 296.479 481.857 291.218C481.857 291.218 481.758 287.089 482.72 285.956C483.683 284.823 485.185 284.274 484.243 278.575C483.301 272.876 483.971 266.005 483.971 264.63C483.971 263.256 486.86 254.691 486.86 254.691L497.006 257.484Z" fill="black"/>
<path id="Vector_149" d="M498.618 248.509L501.789 249.631C501.789 249.631 503.239 255.616 503.239 258.813C503.239 262.011 505.259 262.325 505.259 262.325C505.259 262.325 507.472 265.129 506.305 267.177C505.138 269.224 504.667 274.295 504.667 274.295C504.667 274.295 505.054 283.993 503.322 285.334C501.59 286.674 501.229 289.877 501.229 289.877C501.229 289.877 498.053 295.963 498.152 297.41C498.252 298.857 493.72 308.657 493.72 308.657C493.72 308.657 495.933 296.479 483.034 291.218C483.034 291.218 482.94 287.089 483.903 285.956C484.866 284.823 486.368 284.274 485.426 278.575C484.484 272.876 485.154 266.004 485.154 264.63C485.154 263.256 488.042 254.691 488.042 254.691L498.618 248.509Z" fill="white"/>
<path id="Vector_150" opacity="0.1" d="M428.56 452.05C428.56 452.05 433.615 448.645 436.932 451.119C440.25 453.593 428.56 452.05 428.56 452.05Z" fill="black"/>
<path id="Vector_151" opacity="0.1" d="M467.849 441.522C467.849 441.522 472.323 440.905 476.08 445.241C479.837 449.576 467.849 441.522 467.849 441.522Z" fill="black"/>
</g>
<g id="Group_3" opacity="0.1">
<path id="Vector_152" opacity="0.1" d="M474.384 170.256C473.741 170.856 472.914 171.277 472.485 172.068C472.118 172.746 472.108 173.588 471.815 174.311C471.522 175.035 470.669 175.635 470.072 175.175C469.936 170.127 467.618 165.387 464.766 161.348C463.969 160.131 463 159.055 461.893 158.157C460.774 157.252 459.38 156.828 457.984 156.968C456.414 157.198 455.033 158.342 453.447 158.488C451.354 158.673 449.476 157.119 447.398 157.046C446.554 157.053 445.721 157.254 444.956 157.635C444.19 158.016 443.51 158.569 442.961 159.256C441.868 160.637 441.057 162.248 440.58 163.985C439.757 166.62 439.309 169.373 439.251 172.152C439.219 173.717 439.083 175.669 437.733 176.252C437.764 176.668 437.764 177.087 437.733 177.503C439.099 176.942 439.235 174.962 439.266 173.391C439.325 170.613 439.773 167.86 440.595 165.224C441.073 163.487 441.884 161.877 442.976 160.496C443.526 159.809 444.206 159.256 444.972 158.874C445.737 158.491 446.57 158.289 447.414 158.28C449.507 158.359 451.391 159.912 453.463 159.722C455.033 159.581 456.425 158.437 458 158.207C459.395 158.066 460.789 158.488 461.909 159.391C463.015 160.291 463.985 161.369 464.782 162.588C467.634 166.627 469.952 171.35 470.088 176.415C470.685 176.875 471.538 176.269 471.831 175.551C472.124 174.833 472.134 173.991 472.5 173.307C472.929 172.516 473.756 172.09 474.4 171.495C476.033 169.987 476.441 167.446 476.378 165.14C476.378 165.067 476.378 165 476.378 164.927C476.273 166.935 475.776 168.971 474.384 170.256Z" fill="black"/>
<path id="Vector_153" opacity="0.1" d="M435.75 169.863C434.551 168.444 432.908 167.49 431.804 165.987C430.871 164.66 430.34 163.059 430.281 161.399C430.117 163.475 430.658 165.544 431.804 167.227C432.908 168.73 434.551 169.678 435.75 171.097C436.907 172.484 437.603 174.244 437.728 176.1C437.806 174.972 437.672 173.837 437.332 172.766C436.992 171.694 436.454 170.707 435.75 169.863Z" fill="black"/>
<path id="Vector_154" opacity="0.1" d="M477.393 152.923C477.085 154.298 476.535 155.605 476.284 156.99C476.133 157.927 476.079 158.879 476.122 159.828C476.139 159.292 476.193 158.757 476.284 158.23C476.535 156.844 477.085 155.537 477.393 154.163C477.571 153.405 477.629 152.62 477.566 151.841C477.532 152.206 477.475 152.567 477.393 152.923Z" fill="black"/>
</g>
<g id="flower">
<path id="Vector_155" opacity="0.1" d="M69.4565 470.544C97.6172 470.544 120.446 466.613 120.446 461.765C120.446 456.917 97.6172 452.987 69.4565 452.987C41.2958 452.987 18.467 456.917 18.467 461.765C18.467 466.613 41.2958 470.544 69.4565 470.544Z" fill="#3D6CB9"/>
<path id="Vector_156" d="M71.0995 293.596H67.8185V372.781H71.0995V293.596Z" fill="#535461"/>
<path id="Vector_157" d="M91.7224 372.545L91.5131 376.113L91.2253 381.161L91.105 383.259L90.8119 388.307L90.6863 390.405L90.3985 395.453L87.0861 452.706C86.9448 455.17 85.9323 457.482 84.2549 459.173C82.5776 460.864 80.3617 461.805 78.0593 461.804H60.8587C58.55 461.806 56.3284 460.859 54.6498 459.16C52.9712 457.461 51.963 455.138 51.832 452.667L48.5195 395.414L48.2317 390.366L48.1113 388.268L47.8131 383.22L47.6927 381.122L47.4049 376.074L47.1956 372.506C47.1594 371.822 47.2533 371.138 47.4718 370.494C47.6902 369.851 48.0286 369.261 48.4662 368.762C48.9038 368.263 49.4316 367.865 50.0174 367.592C50.6033 367.318 51.2349 367.175 51.8738 367.172H87.0494C87.6912 367.176 88.3255 367.32 88.9133 367.596C89.5011 367.873 90.03 368.275 90.4676 368.778C90.9052 369.281 91.2423 369.875 91.4581 370.523C91.6738 371.171 91.7638 371.859 91.7224 372.545Z" fill="#3F3D56"/>
<path id="Vector_158" d="M91.5131 376.107L91.2201 381.144H47.6927L47.3997 376.107H91.5131Z" fill="#9D9CB5"/>
<path id="Vector_159" d="M91.0997 383.242L90.8119 388.279H48.1062L47.8131 383.242H91.0997Z" fill="#9D9CB5"/>
<path id="Vector_160" d="M90.6863 390.383L90.3985 395.414H48.5195L48.2265 390.383H90.6863Z" fill="#9D9CB5"/>
<path id="Vector_161" d="M42.4126 323.28C61.5232 338.1 69.4824 361.277 69.4824 361.277C69.4824 361.277 46.4576 360.43 27.3418 345.61C8.22596 330.791 0.256241 307.63 0.256241 307.63C0.256241 307.63 23.281 308.461 42.4126 323.28Z" fill="#3D6CB9"/>
<path id="Vector_162" d="M0.256241 307.63C0.256241 307.63 24.1549 321.85 31.8212 333.623C39.4874 345.397 69.4615 361.288 69.4615 361.288" stroke="#535461" stroke-width="2" stroke-miterlimit="10"/>
<path id="Vector_163" d="M54.7257 293.428C65.1288 301.488 69.4616 314.103 69.4616 314.103C69.4616 314.103 56.9026 313.643 46.5258 305.583C36.1489 297.523 31.7899 284.902 31.7899 284.902C31.7899 284.902 44.3279 285.362 54.7257 293.428Z" fill="#3D6CB9"/>
<path id="Vector_164" d="M31.7899 284.902C31.7899 284.902 44.7989 292.643 48.9748 299.048C53.1506 305.454 69.4616 314.103 69.4616 314.103" stroke="#535461" stroke-width="2" stroke-miterlimit="10"/>
<path id="Vector_165" d="M84.5743 313.464C72.6275 327.537 70.1 345.93 70.1 345.93C70.1 345.93 86.9448 341.499 98.8811 327.419C110.817 313.34 113.355 294.953 113.355 294.953C113.355 294.953 96.521 299.39 84.5743 313.464Z" fill="#3D6CB9"/>
<path id="Vector_166" d="M113.366 294.959C113.366 294.959 97.8031 309.386 93.847 319.325C89.8909 329.265 70.1 345.93 70.1 345.93" stroke="#535461" stroke-width="2" stroke-miterlimit="10"/>
</g>
</g>
<defs>
<linearGradient id="paint0_linear" x1="243.608" y1="468.681" x2="243.608" y2="144.667" gradientUnits="userSpaceOnUse">
<stop stop-color="#808080" stop-opacity="0.25"/>
<stop offset="0.54" stop-color="#808080" stop-opacity="0.12"/>
<stop offset="1" stop-color="#808080" stop-opacity="0.1"/>
</linearGradient>
<linearGradient id="paint1_linear" x1="99571.3" y1="303654" x2="99571.3" y2="91277.9" gradientUnits="userSpaceOnUse">
<stop stop-color="#808080" stop-opacity="0.25"/>
<stop offset="0.54" stop-color="#808080" stop-opacity="0.12"/>
<stop offset="1" stop-color="#808080" stop-opacity="0.1"/>
</linearGradient>
<clipPath id="clip0">
<rect width="611" height="484" fill="white"/>
</clipPath>
</defs>
</svg>
