<svg width="530" height="526" viewBox="0 0 530 526" fill="none" xmlns="http://www.w3.org/2000/svg">
<g id="information" clip-path="url(#clip12)">
<g id="background">
<path id="Vector" opacity="0.1" d="M232.041 7.69405C255.888 -2.86014 284.919 6.21684 309.71 19.4552C387.575 61.0434 444.301 139.989 489.37 220.419C505.689 249.542 521.189 279.947 527.323 312.458C539.814 378.631 507.236 447.136 451.829 471.142C432.987 479.314 412.287 482.664 391.555 484.531C354.69 487.857 316.521 486.536 279.951 474.222C253.871 465.422 229.201 451.266 205.539 435.626C139.458 391.926 79.1103 335.176 35.6563 265.854C16.598 235.448 0.47502 201.171 0.0104408 166.089C-0.454138 131.007 18.7467 95.7546 50.3381 89.7892C63.3991 87.3251 77.215 89.8898 90.6931 92.5299C110.538 96.421 130.652 100.513 150.27 98.8159C170.537 97.0496 196.897 87.6206 200.592 64.5824C204.504 39.847 208.226 18.2357 232.041 7.69405Z" fill="#3D6CB9"/>
<path id="Vector_2" d="M128.826 483.274C128.826 483.274 154.304 481.445 151.3 502.704C151.3 502.704 151.896 506.476 149.035 508.167C149.035 508.167 148.993 506.589 146.422 507.123C145.508 507.31 144.58 507.365 143.655 507.287C142.405 507.184 141.217 506.599 140.271 505.621C140.271 505.621 133.107 502.101 130.325 488.158C130.325 488.158 128.261 485.122 128.345 484.336L132.643 486.524C132.643 486.524 131.175 490.22 132.331 493.288C132.331 493.288 132.468 486.662 133.297 486.813C133.461 486.845 135.53 488.07 135.53 488.07C135.53 488.07 133.002 494.501 134.907 499.178C134.907 499.178 134.184 491.251 136.317 488.535L139.347 490.641C139.347 490.641 136.391 497.286 138.397 502.704C138.397 502.704 137.869 494.388 139.981 491.15L142.726 493.665C142.726 493.665 139.949 500.215 141.644 504.716C141.644 504.716 141.86 495.029 143.317 494.3C143.317 494.3 145.719 496.814 146.084 497.858C146.084 497.858 144.183 502.61 145.36 505.118C145.36 505.118 146.084 498.668 146.68 498.637C146.68 498.637 149.067 502.912 149.32 505.841C149.32 505.841 149.214 501.485 147.256 498.228C147.256 498.228 149.568 498.7 150.92 500.485C150.92 500.485 150.545 497.462 146.67 497.198C146.67 497.198 144.695 493.96 144.162 493.759C144.162 493.759 148.021 493.376 150.36 494.614C150.36 494.614 148.301 491.76 143.455 493.055L140.746 490.428C140.746 490.428 145.83 489.598 147.979 490.516C147.979 490.516 145.503 488.001 140.018 489.83L137.072 487.731C137.072 487.731 141.401 486.618 143.983 487.021C143.983 487.021 141.258 485.273 136.206 487.165L134.094 486.04C134.094 486.04 137.262 485.298 138.196 485.179C139.131 485.059 139.173 484.758 139.173 484.758C137.164 484.357 135.1 484.629 133.213 485.543C133.213 485.543 128.747 483.639 128.826 483.274Z" fill="#3D6CB9"/>
<path id="Vector_3" opacity="0.1" d="M146.374 513.648C156.334 513.648 164.408 512.024 164.408 510.021C164.408 508.018 156.334 506.394 146.374 506.394C136.414 506.394 128.34 508.018 128.34 510.021C128.34 512.024 136.414 513.648 146.374 513.648Z" fill="#3D6CB9"/>
<path id="Vector_4" d="M94.695 468.973C94.695 468.973 109.06 467.942 107.365 479.93C107.455 480.538 107.38 481.163 107.151 481.717C106.922 482.271 106.552 482.723 106.093 483.01C106.093 483.01 106.067 482.124 104.62 482.425C104.106 482.53 103.583 482.56 103.063 482.513C102.356 482.462 101.684 482.132 101.152 481.577C101.152 481.577 97.1182 479.584 95.5344 471.727C95.5344 471.727 94.373 470.011 94.4152 469.571L96.8437 470.828C96.8437 470.828 96.0148 472.915 96.6642 474.643C96.6642 474.643 96.7434 470.903 97.1921 470.991C97.2871 470.991 98.4539 471.714 98.4539 471.714C98.4539 471.714 97.0284 475.341 98.1054 478C98.1054 478 97.6936 473.531 98.8973 471.997L100.603 473.185C100.603 473.185 98.9396 476.957 100.075 479.986C100.075 479.986 99.7842 475.297 100.967 473.474L102.514 474.907C102.514 474.907 100.93 478.597 101.907 481.137C101.907 481.137 102.028 475.674 102.852 475.266C102.852 475.266 104.203 476.686 104.409 477.271C104.409 477.271 103.353 479.949 104.002 481.363C104.002 481.363 104.409 477.73 104.747 477.711C104.747 477.711 106.093 480.118 106.23 481.772C106.163 480.245 105.763 478.765 105.069 477.478C105.846 477.647 106.563 478.085 107.133 478.735C107.133 478.735 106.927 477.032 104.736 476.881C104.736 476.881 103.622 475.052 103.327 474.945C103.327 474.945 105.502 474.725 106.822 475.423C106.822 475.423 105.66 473.814 102.925 474.543L101.4 473.059C101.4 473.059 104.266 472.594 105.481 473.11C105.481 473.11 104.082 471.689 100.988 472.726L99.3302 471.538C100.607 471.206 101.915 471.073 103.221 471.142C103.221 471.142 101.69 470.155 98.8392 471.224L97.6514 470.595C97.6514 470.595 99.4411 470.174 99.9637 470.111C100.486 470.048 100.518 469.872 100.518 469.872C99.384 469.648 98.22 469.803 97.1551 470.319C97.1551 470.319 94.6528 469.181 94.695 468.973Z" fill="#3D6CB9"/>
<path id="Vector_5" opacity="0.1" d="M104.588 486.096C110.204 486.096 114.756 485.179 114.756 484.047C114.756 482.915 110.204 481.998 104.588 481.998C98.9727 481.998 94.4204 482.915 94.4204 484.047C94.4204 485.179 98.9727 486.096 104.588 486.096Z" fill="#3D6CB9"/>
<path id="Vector_6" d="M448.097 480.496C448.097 480.496 465.439 479.238 463.407 493.696C463.511 494.431 463.418 495.186 463.141 495.853C462.864 496.521 462.418 497.069 461.865 497.418C461.865 497.418 461.834 496.343 460.086 496.707C459.464 496.833 458.831 496.869 458.201 496.814C457.351 496.748 456.542 496.351 455.9 495.683C455.9 495.683 451.022 493.288 449.126 483.796C449.126 483.796 447.722 481.728 447.78 481.2L450.705 482.683C450.705 482.683 449.707 485.198 450.494 487.291C450.494 487.291 450.589 482.777 451.148 482.891C451.264 482.891 452.669 483.758 452.669 483.758C452.669 483.758 450.948 488.158 452.246 491.301C452.246 491.301 451.755 485.908 453.207 484.06L455.266 485.487C455.266 485.487 453.255 490.013 454.622 493.703C454.622 493.703 454.268 488.045 455.678 485.839L457.547 487.574C457.547 487.574 455.657 492.03 456.808 495.117C456.808 495.117 456.961 488.529 457.953 488.026C457.953 488.026 459.585 489.742 459.833 490.446C459.833 490.446 458.539 493.684 459.342 495.393C459.342 495.393 459.833 490.993 460.239 490.993C460.239 490.993 461.865 493.904 462.034 495.896C461.956 494.054 461.473 492.268 460.635 490.717C461.574 490.928 462.44 491.461 463.127 492.25C463.127 492.25 462.874 490.195 460.229 490.013C460.229 490.013 458.888 487.806 458.529 487.674C458.529 487.674 461.168 487.41 462.752 488.253C462.752 488.253 461.348 486.316 458.048 487.196L456.206 485.405C456.206 485.405 459.664 484.839 461.131 485.462C461.131 485.462 459.442 483.745 455.71 484.996L453.703 483.569C453.703 483.569 456.649 482.815 458.407 483.085C458.407 483.085 456.554 481.897 453.128 483.186L451.692 482.419C451.692 482.419 453.851 481.91 454.485 481.835C455.118 481.759 455.15 481.545 455.15 481.545C453.783 481.274 452.38 481.459 451.095 482.08C451.095 482.08 448.044 480.734 448.097 480.496Z" fill="#3D6CB9"/>
<path id="Vector_7" opacity="0.1" d="M460.039 501.177C466.817 501.177 472.313 500.071 472.313 498.706C472.313 497.342 466.817 496.236 460.039 496.236C453.26 496.236 447.764 497.342 447.764 498.706C447.764 500.071 453.26 501.177 460.039 501.177Z" fill="#3D6CB9"/>
</g>
<g id="woman">
<path id="Vector_8" opacity="0.1" d="M376.678 525.994C406.581 525.994 430.823 523.148 430.823 519.638C430.823 516.129 406.581 513.283 376.678 513.283C346.775 513.283 322.534 516.129 322.534 519.638C322.534 523.148 346.775 525.994 376.678 525.994Z" fill="#3D6CB9"/>
<path id="Vector_9" d="M430.818 327.89C430.485 325.677 430.293 323.437 430.242 321.189C430.242 318.493 427.165 316.104 427.165 316.104C427.165 316.104 425.264 310.868 423.997 310.095C422.73 309.322 418.818 302.47 418.818 302.47C418.773 301.118 418.36 299.821 417.641 298.774C416.469 296.939 415.398 295.016 414.436 293.016C413.908 292.249 414.172 291.708 413.38 287.239C413.338 287.006 413.291 286.78 413.232 286.566C413.232 286.466 413.18 286.378 413.148 286.277C413.988 285.273 414.574 284.008 414.838 282.626C415.103 281.244 415.035 279.802 414.642 278.464C414.5 277.931 414.241 277.454 413.892 277.081C413 276.213 411.575 276.571 410.656 275.748L411.633 270.606C411.865 269.349 411.987 267.758 411.063 267.08C410.716 266.884 410.351 266.738 409.975 266.646C408.391 266.017 407.473 264.025 407.061 262.107C406.665 260.261 406.558 258.343 406.744 256.45C406.924 254.627 407.372 252.854 407.536 251.025C407.834 247.642 407.15 244.239 405.599 241.382C404.995 240.15 404.106 239.15 403.038 238.503C402.061 237.982 400.926 237.875 400.013 237.246C398.049 235.756 398.149 232.217 396.581 230.187C395.014 228.157 392.237 228.163 389.951 228.861C387.665 229.558 385.389 230.747 383.045 230.451C381.535 230.25 380.121 229.433 378.605 229.244C378.172 229.195 377.735 229.218 377.307 229.313V229.257C376.188 229.496 375.158 230.237 374.894 231.501C374.835 231.801 374.81 232.11 374.82 232.419C374.82 233.154 374.968 233.921 374.979 234.625C374.998 234.905 374.97 235.186 374.897 235.453C374.823 235.72 374.706 235.966 374.551 236.178C374.25 236.561 373.807 236.762 373.495 237.158C373.368 237.31 373.268 237.49 373.202 237.689C373.136 237.888 373.104 238.101 373.11 238.315C373.11 239.434 374.282 240.421 375.068 240.873H375.1C374.889 241.125 374.678 241.389 374.482 241.659C372.227 244.691 370.984 248.603 370.987 252.653C371.007 255.925 371.828 259.118 373.351 261.841C374.875 264.564 377.033 266.697 379.561 267.979L379.45 268.387C379.228 269.195 378.969 269.989 378.674 270.763C378.128 270.544 377.548 270.471 376.976 270.547C376.403 270.623 375.851 270.847 375.359 271.203C373.849 272.46 370.898 272.36 370.111 272.127C369.324 271.895 361.136 270.663 360.476 270.971C359.816 271.279 358.512 269.896 357.662 271.744C356.812 273.592 356.417 274.591 355.551 275.057C354.685 275.522 353.191 276.98 353.391 277.288C353.592 277.596 351.227 279.444 351.227 279.444C351.227 279.444 349.194 281.959 348.017 282.292C346.84 282.625 344.348 284.53 344.348 284.53L341.46 287.22C341.46 287.22 339.301 287.61 339.956 285.837C340.61 284.064 338.773 281.833 338.773 281.833C338.773 281.833 335.104 272.976 335.104 271.147C335.104 269.317 332.09 261.517 332.09 261.517L331.72 261.473L331.551 260.9C330.997 259.046 330.279 256.771 329.73 255.438C328.674 252.892 328.024 252.628 328.024 252.628C328.024 252.628 315.312 241.263 307.055 244.727C298.798 248.19 322.127 258.512 324.223 259.593C324.957 259.97 325.485 261.19 325.855 262.617C323.995 263.684 322.429 265.361 321.341 267.45C321.341 267.45 326.388 280.771 326.52 284.083C326.652 287.396 329.994 296.655 329.994 296.655C329.994 296.655 331.24 303.513 337.986 303.124C337.986 303.124 347.294 305.16 349.326 303.124C351.359 301.087 353.191 299.49 354.178 299.258C354.904 298.974 355.542 298.437 356.01 297.718C356.01 297.718 352.932 320.819 351.422 322.824C349.912 324.829 336.572 350.765 341.36 355.404C345.152 358.901 349.16 362.052 353.349 364.833C353.756 365.072 354.975 362.652 356.717 360.936C356.717 361.37 356.717 361.81 356.717 362.275C356.749 371.503 357.773 385.533 359.188 388.676C361.3 393.296 360.434 402.229 360.434 402.229C361.544 402.851 362.75 403.195 363.976 403.241C364.04 403.542 364.114 403.869 364.182 404.184C365.339 409.382 367.213 417.422 368.168 419.559C369.61 422.796 370.655 433.043 370.655 433.043C370.655 433.043 371.51 443.1 371.183 444.515C371.056 445.049 371.61 449.235 372.481 454.572C371.954 461.795 370.95 475.718 370.782 480.753C370.782 480.848 370.782 480.942 370.782 481.03V481.118C370.784 481.174 370.784 481.231 370.782 481.288C370.782 481.401 370.782 481.501 370.782 481.596C370.765 481.912 370.776 482.23 370.813 482.545C370.879 483.024 370.848 483.515 370.723 483.978C370.35 485.37 369.875 486.72 369.303 488.014C369.063 488.649 368.851 489.3 368.67 489.962C368.142 490.239 367.498 490.911 367.139 492.552C366.484 495.557 365.502 503.867 365.502 503.867C365.502 503.867 365.106 508.952 364.325 510.109C363.544 511.266 362.741 518.501 368.321 519.425C373.902 520.349 376.314 515.905 376.314 515.905L376.119 495.739V495.701C376.232 495.532 376.329 495.349 376.409 495.155V495.104C376.446 495.01 376.488 494.909 376.525 494.796L376.573 494.645L376.657 494.4C376.654 494.371 376.654 494.341 376.657 494.312C377.199 492.381 377.361 490.327 377.133 488.309V488.208V488.051C377.133 488.001 377.133 487.944 377.133 487.894V487.58C377.133 487.542 377.133 487.498 377.133 487.46C377.133 487.326 377.143 487.188 377.164 487.046C377.164 487.046 377.164 486.995 377.164 486.97L377.196 486.725V486.618C377.196 486.536 377.196 486.455 377.238 486.367C377.236 486.346 377.236 486.325 377.238 486.304C377.291 486.015 377.354 485.675 377.423 485.399V485.329L377.502 485.028C377.581 484.707 377.671 484.399 377.766 484.06V483.997C377.766 483.896 377.824 483.796 377.856 483.701V483.664C377.951 483.356 378.051 483.035 378.146 482.771L378.173 482.689L378.257 482.438L378.283 482.363L378.484 481.803L380.031 487.492C380.031 487.492 380.886 491.729 380.427 492.728C379.968 493.728 380.955 497.889 381.604 497.964L380.997 503.201C380.669 506.088 380.473 508.994 380.411 511.907C380.369 512.24 380.327 512.535 380.295 512.736C379.873 515.421 380.886 519.582 380.886 519.582C386.06 526.867 392.226 520.148 392.226 520.148C392.226 520.148 392.944 516.294 392.226 515.527C391.508 514.761 391.83 511.982 391.83 511.982C391.83 511.982 392.157 505.124 392.221 500.12C392.284 495.117 388.784 490.691 388.784 490.691L388.589 490.899C387.95 488.938 387.221 486.65 387.374 485.625C387.638 483.852 386.651 465.139 386.651 465.139C387.016 460.122 387.094 455.082 386.883 450.052C386.968 449.204 387.047 448.368 387.126 447.538C387.522 443.515 387.844 440.077 387.971 438.273V438.059C388.003 437.575 388.018 437.229 388.013 437.066C388.013 436.437 388.013 435.72 388.066 434.935C388.187 432.772 388.472 430.365 388.472 430.365L389.845 420.427C389.845 420.427 390.901 415.574 392.406 412.883L392.585 412.544C392.643 412.424 392.701 412.292 392.765 412.154L392.791 412.098C392.849 411.966 392.912 411.827 392.97 411.683L392.997 411.626C393.208 411.13 393.435 410.558 393.673 409.929C393.673 409.879 393.71 409.835 393.725 409.784L393.905 409.307C393.905 409.244 393.947 409.181 393.974 409.118C394 409.055 394.084 408.797 394.142 408.64C394.169 408.577 394.191 408.512 394.211 408.445C394.28 408.257 394.354 408.062 394.422 407.861L394.523 407.572C394.57 407.427 394.623 407.283 394.676 407.138L394.802 406.755C394.839 406.66 394.871 406.566 394.903 406.472L395.045 406.038C395.045 405.975 395.093 405.906 395.114 405.843C395.489 404.73 395.848 403.63 396.17 402.631C396.27 402.317 396.37 402.002 396.46 401.726C399.818 401.971 402.098 402.191 402.098 402.191C402.098 402.191 403.154 393.183 402.816 387.255C402.595 383.207 403.228 378.115 403.645 375.312C403.693 375.004 403.735 374.727 403.777 374.476L403.867 374.564C405.509 376.104 406.686 371.019 406.686 371.019C406.686 371.019 406.243 366.273 405.63 360.521L405.567 359.949C406.513 360.189 407.47 360.363 408.434 360.471C408.434 360.471 408.961 360.414 409.685 360.307C411.686 361.686 413.797 362.824 415.988 363.702L419.478 356.033C420.134 354.443 420.902 352.923 421.774 351.488C422.83 349.948 426.557 345.02 426.494 344.096C426.431 343.172 427.74 337.854 429.049 335.465C430.358 333.076 430.881 328.274 430.818 327.89ZM416.268 333.743C414.89 334.434 413.581 338.287 413.518 339.444C413.454 340.601 412.008 345.68 410.503 346.296C409.115 346.862 406.464 349.766 406.042 350.231C405.609 350.275 405.118 350.344 404.606 350.445C404.031 345.585 403.46 341.562 403.096 340.752C402.04 338.438 404.252 331.046 404.252 331.046C404.252 331.046 404.469 323.578 405.836 321.806C407.203 320.033 406.892 315.564 406.892 315.564C406.892 315.564 407.219 313.715 407.351 312.873C407.483 312.031 409.299 312.873 409.315 312.873C409.315 312.873 412.852 315.18 413.38 318.644C413.908 322.107 417.773 328.117 417.773 328.117C417.773 328.117 417.181 330.197 417.773 331.26C418.364 332.322 417.646 333.051 416.268 333.743Z" fill="url(#paint0_linear)"/>
<path id="Vector_10" d="M321.489 267.922C322.565 265.808 324.141 264.12 326.018 263.066C327.896 262.013 329.993 261.642 332.047 262.001V270.996H327.46L323.87 269.915L321.489 267.922Z" fill="#4DC3FF"/>
<path id="Vector_11" opacity="0.1" d="M321.489 267.922C322.565 265.808 324.141 264.12 326.018 263.066C327.896 262.013 329.993 261.642 332.047 262.001V270.996H327.46L323.87 269.915L321.489 267.922Z" fill="black"/>
<path id="Vector_12" d="M332.39 264.383L326.768 269.072C326.768 269.072 326.72 268.136 326.578 266.853C326.298 264.427 325.67 260.787 324.313 260.083C322.249 259.002 299.268 248.706 307.419 245.242C315.57 241.778 328.077 253.131 328.077 253.131C328.077 253.131 328.721 253.395 329.751 255.928C330.279 257.261 331.002 259.53 331.546 261.384C332.047 263.057 332.39 264.383 332.39 264.383Z" fill="#AE6E79"/>
<path id="Vector_13" d="M377.307 271.606L377.946 271.247L379.741 273.686L378.273 277.414L375.771 276.219L376.351 273.24L377.307 271.606Z" fill="#4DC3FF"/>
<path id="Vector_14" d="M368.802 489.925C368.802 489.925 367.186 489.698 366.542 492.697C365.898 495.695 364.927 504.012 364.927 504.012C364.927 504.012 364.541 509.084 363.765 510.241C362.989 511.398 362.218 518.62 367.703 519.538C373.189 520.456 375.58 516.024 375.58 516.024L375.385 495.865L368.802 489.925Z" fill="#444053"/>
<path id="Vector_15" d="M387.944 490.83C387.944 490.83 391.397 495.23 391.334 500.221C391.27 505.212 390.943 512.058 390.943 512.058C390.943 512.058 390.626 514.83 391.334 515.597C392.041 516.364 391.334 520.211 391.334 520.211C391.334 520.211 385.263 526.918 380.163 519.645C380.163 519.645 379.17 515.49 379.582 512.812C379.994 510.134 381.145 498.096 381.145 498.096L387.944 490.83Z" fill="#444053"/>
<path id="Vector_16" d="M396.497 398.91C396.497 398.91 393.013 410.514 391.524 413.204C390.035 415.894 389.011 420.747 389.011 420.747L387.654 430.66C387.389 432.877 387.238 435.11 387.2 437.349C387.264 439.58 383.843 472.091 383.843 472.091L378.421 480.32C378.421 480.32 376.035 486.084 376.42 488.491C376.805 490.899 376.161 494.721 375.364 495.871C375.364 495.871 375.237 503.414 375.042 505.093C374.847 506.771 375.755 511.555 375.042 512.397C374.329 513.239 364.842 512.862 364.584 511.473C364.325 510.084 365.745 503.402 365.745 503.402L366.585 496.946C366.585 496.946 368.263 493.413 367.878 492.257C367.493 491.1 368.585 488.416 368.649 488.183C368.712 487.951 370.46 484.186 370.138 482.727C369.816 481.269 372.17 450.254 372.17 450.254L378.817 394.679L396.497 398.91Z" fill="#AE6E79"/>
<path id="Vector_17" opacity="0.1" d="M396.497 398.91C396.497 398.91 395.969 400.657 395.246 402.951C394.095 406.572 392.437 411.557 391.524 413.204C390.041 415.894 389.006 420.747 389.006 420.747L387.649 430.666C387.387 432.883 387.237 435.117 387.2 437.355C387.2 438.235 386.704 443.848 386.071 450.316C385.094 460.204 383.843 472.097 383.843 472.097L378.421 480.326C378.421 480.326 378.146 480.954 377.803 481.948C377.122 483.833 376.161 486.895 376.42 488.473C376.805 490.855 376.161 494.696 375.364 495.852C375.364 495.852 375.232 503.395 375.042 505.074C374.852 506.752 375.755 511.53 375.042 512.378C374.329 513.227 364.842 512.843 364.584 511.46C364.325 510.078 365.745 503.389 365.745 503.389L366.585 496.927C366.585 496.927 368.263 493.394 367.873 492.238C367.482 491.081 368.585 488.397 368.649 488.165C368.712 487.932 370.46 484.167 370.138 482.708C369.889 481.596 371.193 463.385 371.801 454.748C372.006 452.033 372.138 450.266 372.138 450.266L377.856 402.455L378.321 398.602L378.785 394.692L396.497 398.91Z" fill="black"/>
<path id="Vector_18" d="M390.69 514.515C390.748 515.364 381.583 516.596 380.274 515.672C378.964 514.748 380.274 503.295 380.274 503.295L380.87 498.071C380.232 497.989 379.26 493.841 379.709 492.841C380.158 491.842 379.323 487.618 379.323 487.618L377.803 481.96L376.874 478.497C375.364 474.53 373.178 463.215 371.822 454.767C370.966 449.462 370.423 445.281 370.544 444.747C370.866 443.364 370.016 433.294 370.016 433.294C370.016 433.294 368.96 423.067 367.567 419.842C366.622 417.705 364.779 409.677 363.639 404.498C363.058 401.839 362.657 399.928 362.657 399.928C362.657 399.928 372.413 398.954 378.331 398.614C381.05 398.457 382.961 398.438 382.739 398.702C382.517 398.966 382.459 400.374 382.47 402.411C382.496 407.685 383.114 416.963 383.769 419.459C384.671 422.916 385.574 433.288 385.189 434.293C384.803 435.299 384.93 441.981 384.93 441.981C385.595 444.696 385.978 447.497 386.07 450.323C386.277 455.329 386.203 460.346 385.849 465.34C385.849 465.34 386.815 484.022 386.556 485.788C386.297 487.555 388.62 493.093 388.62 494.168C388.62 495.242 389.264 502.547 389.264 502.547C389.264 502.547 390.648 513.673 390.69 514.515Z" fill="#AE6E79"/>
<path id="Vector_19" d="M395.784 289.98L394.675 291.406L393.952 292.337L389.729 297.743L378.816 299.207L373.009 297.359L371.573 296.9C371.573 296.9 371.573 293.431 371.832 289.269C372.201 283.932 373.083 277.452 375.19 275.685C376.244 274.702 377.086 273.433 377.644 271.983C378.066 270.983 378.419 269.945 378.7 268.877C378.743 268.739 378.774 268.607 378.811 268.469C379.286 266.606 379.629 264.699 379.835 262.767C379.835 262.767 381.229 261.85 383.167 260.781C388.219 257.971 396.946 254.093 393.91 262.767C393.464 264.038 393.083 265.339 392.77 266.665C392.722 266.86 392.68 267.054 392.643 267.243C391.629 272.071 392.3 275 393.055 276.615C393.182 276.895 393.329 277.162 393.493 277.414C393.699 277.751 393.946 278.05 394.227 278.3L395.483 287.798L395.589 288.584L395.784 289.98Z" fill="#AE6E79"/>
<path id="Vector_20" opacity="0.1" d="M393.916 263.233C393.34 264.88 394.196 261.887 393.916 263.233C391.614 265.181 386.192 270.732 383.146 270.732C381.087 270.732 380.469 270.285 378.706 269.336C379.24 267.347 379.62 265.304 379.841 263.233C379.841 263.233 398.113 251.239 393.916 263.233Z" fill="black"/>
<path id="Vector_21" d="M398.566 253.131C398.563 257.271 397.275 261.263 394.948 264.339C392.622 267.416 389.422 269.359 385.965 269.795C385.479 269.852 384.988 269.889 384.492 269.889C381.708 269.889 378.987 268.906 376.672 267.065C374.358 265.224 372.554 262.606 371.488 259.544C370.423 256.482 370.144 253.112 370.687 249.861C371.231 246.611 372.571 243.625 374.539 241.281C376.508 238.937 379.016 237.341 381.746 236.694C384.476 236.048 387.306 236.38 389.878 237.648C392.45 238.917 394.648 241.064 396.194 243.82C397.741 246.576 398.566 249.816 398.566 253.131Z" fill="#AE6E79"/>
<path id="Vector_22" opacity="0.1" d="M400.567 327.419L398.561 333.648C398.561 333.648 396.93 333.73 394.385 333.824C385.796 334.151 366.87 334.566 366.025 331.939C365.836 331.272 365.736 330.574 365.729 329.87C365.618 325.866 367.186 319.719 367.186 319.719C367.186 319.719 368.089 307.417 368.089 306.883C368.089 306.348 367.313 297.73 367.313 297.73L368.865 290.815L373.189 287.201C373.189 287.201 375.126 290.74 376.288 291.042C377.449 291.344 379.001 293.047 379.001 293.047C379.001 293.047 382.808 295.813 384.038 294.273C385.268 292.733 394.818 285.969 394.818 285.969L399.855 292.582L400.567 327.419Z" fill="black"/>
<path id="Vector_23" d="M400.567 328.374L398.561 334.598C398.561 334.598 396.93 334.686 394.385 334.78H394.137C393.039 334.824 391.782 334.868 390.441 334.899C383.615 335.088 374.213 335.138 369.298 334.271C367.45 333.956 366.241 333.504 366.041 332.888C365.929 332.517 365.851 332.134 365.808 331.744C365.777 331.455 365.755 331.115 365.745 330.82C365.634 326.816 367.202 320.668 367.202 320.668C367.202 320.668 368.105 308.366 368.105 307.832C368.105 307.298 367.329 298.679 367.329 298.679L368.881 291.765L371.853 289.288L373.205 288.157C373.659 288.967 374.155 289.744 374.688 290.482C375.105 291.148 375.662 291.671 376.303 291.997C377.47 292.305 379.017 294.003 379.017 294.003C379.017 294.003 382.823 296.768 384.054 295.228C384.988 294.053 390.795 289.822 393.477 287.893C394.301 287.295 394.834 286.925 394.834 286.925L395.51 287.817L399.87 293.537L400.567 328.374Z" fill="white"/>
<path id="Vector_24" opacity="0.1" d="M332.39 264.383L326.768 269.072C326.768 269.072 326.72 268.136 326.578 266.853C329.355 265.458 331.044 262.371 331.53 261.385C332.047 263.057 332.39 264.383 332.39 264.383Z" fill="black"/>
<path id="Vector_25" d="M352.146 280.299L350.921 279.909C350.921 279.909 348.915 282.424 347.753 282.757C346.592 283.09 344.142 284.982 344.142 284.982L341.297 287.673C341.297 287.673 339.185 288.062 339.813 286.29C340.441 284.517 338.652 282.292 338.652 282.292C338.652 282.292 335.035 273.454 335.035 271.605C335.035 269.757 332.047 262 332.047 262C332.047 262 328.299 270.688 321.457 267.922C321.457 267.922 326.43 281.217 326.557 284.523C326.684 287.83 329.978 297.051 329.978 297.051C329.978 297.051 331.208 303.897 337.855 303.513C337.855 303.513 347.025 305.544 349.026 303.513C351.026 301.483 352.832 299.886 353.777 299.654C354.722 299.421 355.582 298.12 355.582 298.12V288.98L352.146 280.299Z" fill="#4DC3FF"/>
<path id="Vector_26" opacity="0.1" d="M340.652 288.98C340.652 288.98 342.268 296.133 341.233 296.9L340.652 288.98Z" fill="black"/>
<path id="Vector_27" opacity="0.1" d="M394.386 334.748C385.796 335.075 366.87 335.484 366.025 332.863C365.836 332.196 365.736 331.498 365.729 330.794L393.789 332.555L394.386 334.748Z" fill="black"/>
<path id="Vector_28" opacity="0.1" d="M396.497 398.91C396.497 398.91 395.969 400.657 395.246 402.952C391.682 402.694 386.962 402.424 382.48 402.386C380.896 402.386 379.344 402.386 377.877 402.449C374.762 402.562 372.069 402.864 370.354 403.442C368.184 404.237 365.917 404.586 363.649 404.473C363.068 401.814 362.667 399.903 362.667 399.903C362.667 399.903 372.423 398.929 378.341 398.589L378.806 394.679L396.497 398.91Z" fill="black"/>
<path id="Vector_29" d="M404.052 370.773L402.953 373.539C402.953 373.539 402.8 374.363 402.605 375.67C402.193 378.486 401.549 383.565 401.792 387.614C402.114 393.535 401.079 402.524 401.079 402.524C401.079 402.524 377.322 400.142 370.354 402.524C363.385 404.906 359.953 402.524 359.953 402.524C359.953 402.524 360.798 393.61 358.729 388.997C357.319 385.854 356.327 371.823 356.295 362.595C356.295 358.34 356.474 355.115 356.923 354.461C358.343 352.387 364.409 331.63 364.409 331.63L365.792 331.719L369.488 331.951L390.5 333.271L393.799 333.479L394.148 334.736L404.052 370.773Z" fill="#444053"/>
<path id="Vector_30" d="M414.51 361.546L414.705 364.01C414.705 364.01 404.3 359.974 404.828 355.015C405.355 350.055 404.828 350.614 404.828 350.614L413.19 351.457L414.51 361.546Z" fill="#4DC3FF"/>
<path id="Vector_31" opacity="0.1" d="M414.51 361.546L414.705 364.01C414.705 364.01 404.3 359.974 404.828 355.015C405.355 350.055 404.828 350.614 404.828 350.614L413.19 351.457L414.51 361.546Z" fill="black"/>
<path id="Vector_32" opacity="0.1" d="M347.595 290.966C348.657 292.041 349.909 292.817 351.258 293.236C350.868 293.135 350.505 292.919 350.203 292.607C349.458 291.979 348.751 291.293 348.033 290.627C347.452 290.086 346.729 289.188 346.016 288.968C346.483 289.697 347.012 290.367 347.595 290.966Z" fill="black"/>
<path id="Vector_33" opacity="0.1" d="M347.753 294.204C348.088 294.654 348.359 295.165 348.556 295.719C348.889 297.283 348.869 298.925 348.498 300.477L346.829 295.687C346.539 294.87 346.249 294.053 345.9 293.273C345.747 292.94 344.786 291.551 344.897 291.262C345.193 290.445 347.442 293.745 347.753 294.204Z" fill="black"/>
<path id="Vector_34" opacity="0.1" d="M394.301 320.731C395.438 320.567 396.502 319.974 397.336 319.04C395.621 319.297 393.995 320.102 392.305 320.523C390.737 320.957 389.092 320.776 387.617 320.008C389.56 321.139 392.231 321.177 394.301 320.731Z" fill="black"/>
<path id="Vector_35" opacity="0.1" d="M389.449 306.656C389.141 306.711 388.828 306.618 388.578 306.398C387.29 305.518 386.019 304.601 384.766 303.645C383.547 302.709 382.074 301.759 381.034 300.578C383.594 303.331 385.98 305.657 389.449 306.656Z" fill="black"/>
<path id="Vector_36" opacity="0.1" d="M393.028 322.962C393.705 322.999 394.382 322.933 395.045 322.767C395.715 322.601 396.308 322.138 396.703 321.472C396.463 321.407 396.211 321.454 396.001 321.604C393.955 322.629 391.709 322.95 389.518 322.528C390.568 323.063 391.914 322.956 393.028 322.962Z" fill="black"/>
<path id="Vector_37" opacity="0.1" d="M380.801 358.654C379.457 359.137 378.076 359.459 376.678 359.616C375.59 359.676 374.501 359.65 373.416 359.54L368.136 359.144L365.497 358.943C365.185 358.943 363.913 358.943 364.541 358.195C364.858 357.831 366.621 358.063 367.075 358.044C367.952 358.011 368.831 357.992 369.715 357.988C371.462 357.988 373.215 357.988 374.962 358.114C376.921 358.227 378.848 358.403 380.801 358.654Z" fill="black"/>
<path id="Vector_38" opacity="0.1" d="M374.683 361.766C373.785 361.722 372.629 362.357 371.705 362.495C370.672 362.64 369.63 362.689 368.59 362.639C366.533 362.581 364.5 362.087 362.588 361.181C366.616 361.426 370.655 361.571 374.683 361.766Z" fill="black"/>
<path id="Vector_39" opacity="0.1" d="M363.374 365.06C363.765 365.154 364.149 365.28 364.525 365.437C366.753 366.191 369.124 365.525 371.388 364.858C370.824 365.87 369.805 366.304 368.786 366.581C367.128 367.081 365.401 367.156 363.718 366.801C363.19 366.675 361.865 366.449 361.606 365.795C361.173 364.833 362.878 364.965 363.374 365.06Z" fill="black"/>
<path id="Vector_40" opacity="0.1" d="M375.866 370.019C376.534 370.182 377.193 370.392 377.84 370.648C380.348 371.39 382.95 370.371 385.469 369.686C388.496 368.868 391.6 368.525 394.702 368.668C394.148 368.668 393.266 369.246 392.722 369.441C392.01 369.699 391.286 369.937 390.563 370.151C389.143 370.566 387.702 370.906 386.25 371.151C383.319 371.655 380.353 371.809 377.397 371.61C376.045 371.522 373.701 371.685 372.545 370.874C373.544 370.167 374.71 369.867 375.866 370.019Z" fill="black"/>
<path id="Vector_41" opacity="0.1" d="M376.81 275.214C376.81 275.214 376.937 282.292 375.971 285.523C375.665 286.528 375.19 288.383 374.672 290.464C374.107 292.771 373.49 295.354 373.014 297.378C372.539 299.402 372.223 300.76 372.223 300.76C372.223 300.76 370.042 321.906 369.477 331.983C369.477 332.159 369.477 332.341 369.446 332.511C369.414 333.076 369.361 333.667 369.282 334.277C368.026 344.284 360.777 359.716 358.343 360.948C357.584 361.363 356.891 361.931 356.295 362.627C356.295 358.371 356.474 355.146 356.923 354.493C358.343 352.418 364.409 331.662 364.409 331.662L365.792 331.75C365.761 331.461 365.74 331.121 365.729 330.826C365.618 326.822 367.186 320.674 367.186 320.674C367.186 320.674 368.089 308.372 368.089 307.838C368.089 307.304 367.313 298.686 367.313 298.686L368.865 291.771L371.837 289.294C372.207 283.958 373.088 277.477 375.195 275.71C376.25 274.727 377.091 273.458 377.65 272.008C378.067 272.077 377.307 271.637 377.307 271.637L376.81 275.214Z" fill="black"/>
<path id="Vector_42" d="M377.945 271.247C377.407 271.028 376.835 270.954 376.27 271.03C375.705 271.106 375.161 271.331 374.677 271.687C373.189 272.944 370.285 272.838 369.509 272.611C368.733 272.385 360.666 271.147 360.006 271.455C359.346 271.763 358.069 270.38 357.229 272.228C356.39 274.076 356.004 275.069 355.165 275.528C354.326 275.987 352.837 277.451 353.053 277.759C353.27 278.067 350.942 279.909 350.942 279.909L355.651 298.139C355.651 298.139 352.615 321.196 351.132 323.195C349.648 325.194 336.476 351.098 341.191 355.712C344.923 359.207 348.873 362.359 353.006 365.141C353.534 365.449 355.392 361.3 357.974 359.993C360.555 358.685 368.564 341.386 369.06 331.549C369.556 321.711 371.837 299.804 371.837 299.804C371.837 299.804 374.614 287.811 375.58 284.58C376.546 281.349 376.419 274.271 376.419 274.271L377.945 271.247Z" fill="#4DC3FF"/>
<path id="Vector_43" opacity="0.1" d="M404.051 370.774L402.953 373.539C402.953 373.539 402.8 374.363 402.605 375.67C402.409 375.641 402.225 375.542 402.077 375.387C400.462 373.847 390.99 362.243 390.521 351.941C390.188 344.341 390.346 337.791 390.452 334.874C390.484 333.956 390.515 333.403 390.515 333.284C390.515 333.284 397.875 322.673 397.035 318.914C396.196 315.155 394.258 295.027 394.258 295.027L393.973 292.387L393.482 287.924L392.31 277.125L393.525 277.464C393.731 277.801 393.978 278.1 394.258 278.35L395.515 287.849L399.876 293.569L400.588 328.393L398.582 334.616C398.582 334.616 396.951 334.704 394.406 334.799H394.158L404.051 370.774Z" fill="black"/>
<path id="Vector_44" d="M408.117 313.288C408.117 313.288 406.311 312.439 406.185 313.288C406.058 314.137 405.731 315.972 405.731 315.972C405.731 315.972 406.053 320.435 404.675 322.202C403.297 323.968 403.091 331.423 403.091 331.423C403.091 331.423 400.916 338.803 401.945 341.11C402.32 341.946 402.901 346.139 403.482 351.167C403.851 354.31 404.215 357.761 404.537 360.917C405.123 366.65 405.562 371.396 405.562 371.396C405.562 371.396 404.395 376.469 402.779 374.929C401.164 373.388 391.693 361.785 391.228 351.482C390.912 344.247 391.038 337.961 391.144 334.862C391.186 333.548 391.228 332.806 391.228 332.806C391.228 332.806 398.588 322.195 397.748 318.43C396.909 314.665 394.971 294.543 394.971 294.543L394.633 291.432L394.269 288.087L394.185 287.352L393.018 276.666C393.224 276.722 400.467 278.671 401.423 279.809C402.378 280.947 408.286 282.575 408.286 282.575C409.177 282.862 409.987 283.43 410.631 284.217C411.275 285.004 411.731 285.982 411.95 287.05C412.008 287.264 412.05 287.49 412.092 287.723C412.868 292.186 412.62 292.72 413.148 293.493C413.676 294.267 408.117 313.288 408.117 313.288Z" fill="#4DC3FF"/>
<path id="Vector_45" opacity="0.1" d="M404.58 360.911C401.94 360.282 398.023 358.83 398.112 355.624C398.192 352.626 401.222 351.545 403.518 351.161C403.888 354.292 404.252 357.755 404.58 360.911Z" fill="black"/>
<path id="Vector_46" d="M412.768 359.314C412.662 359.584 412.24 359.817 411.638 360.024C410.226 360.425 408.792 360.704 407.346 360.86C407.346 360.86 398.371 360.012 398.498 355.165C398.593 351.689 402.647 350.765 404.923 350.558C405.426 350.502 405.932 350.477 406.438 350.482C406.438 350.482 413.153 358.321 412.768 359.314Z" fill="#AE6E79"/>
<path id="Vector_47" opacity="0.1" d="M412.768 359.314C412.662 359.584 412.24 359.817 411.638 360.024C409.299 356.297 406.037 351.513 404.437 351.092L404.923 350.558C405.426 350.502 405.932 350.477 406.438 350.482C406.438 350.482 413.153 358.321 412.768 359.314Z" fill="black"/>
<path id="Vector_48" d="M410.508 292.978L413.148 293.443C414.101 295.442 415.159 297.367 416.315 299.207C417.025 300.257 417.432 301.551 417.477 302.897C417.477 302.897 421.352 309.736 422.577 310.503C423.801 311.27 425.676 316.5 425.676 316.5C425.676 316.5 428.711 318.883 428.711 321.573C428.765 323.816 428.959 326.052 429.292 328.261C429.361 328.645 428.843 333.416 427.55 335.804C426.256 338.193 424.963 343.461 425.032 344.404C425.1 345.347 421.415 350.25 420.386 351.783C419.526 353.218 418.771 354.736 418.126 356.322L414.705 364.01C414.705 364.01 407.473 351.325 404.828 350.633C404.828 350.633 407.795 347.251 409.278 346.635C410.762 346.019 412.187 340.978 412.25 339.796C412.314 338.614 413.607 334.799 414.959 334.139C416.31 333.479 417.028 332.756 416.447 331.675C415.867 330.593 416.447 328.532 416.447 328.532C416.447 328.532 412.636 322.535 412.118 319.103C411.601 315.67 408.117 313.338 408.117 313.338L406.116 307.492L410.508 292.978Z" fill="#4DC3FF"/>
<path id="Vector_49" opacity="0.1" d="M420.111 321.674C421.572 320.205 423.411 319.375 425.322 319.323C424.097 319.574 422.809 319.895 421.912 320.913C421.559 321.354 421.243 321.834 420.967 322.346C420.66 322.868 418.169 326.639 417.799 326.042C417.181 325.169 419.61 322.183 420.111 321.674Z" fill="black"/>
<path id="Vector_50" opacity="0.1" d="M414.262 318.034C414.657 317.993 415.036 317.828 415.36 317.555C415.684 317.282 415.941 316.912 416.104 316.481C416.419 315.615 416.613 314.694 416.68 313.753C416.869 312.179 417.135 310.62 417.477 309.083C417.579 308.779 417.623 308.451 417.604 308.125C417.584 307.798 417.503 307.481 417.366 307.197C417.224 306.706 417.033 306.237 416.796 305.801C416.321 306.43 416.183 307.895 415.988 308.737C415.745 309.78 415.523 310.83 415.312 311.88C415.201 312.383 414.325 318.034 414.262 318.034Z" fill="black"/>
<path id="Vector_51" opacity="0.1" d="M411.976 287C411.716 287.405 411.416 287.772 411.084 288.094C410.028 289.093 408.629 289.936 408.497 291.513C408.534 292.026 408.48 292.542 408.339 293.028C408.001 293.72 407.172 293.657 406.512 293.525C405.955 293.465 405.421 293.231 404.965 292.846C404.274 292.142 404.21 290.885 403.682 289.998C403.361 289.541 402.956 289.178 402.499 288.937C402.041 288.696 401.543 288.584 401.043 288.609C400.055 288.571 399.073 288.835 398.086 288.886C397.452 288.924 396.816 288.873 396.191 288.735C395.985 288.697 395.78 288.647 395.579 288.584C395.137 288.455 394.706 288.28 394.29 288.062C394.075 287.96 393.865 287.843 393.662 287.71C393.001 287.306 392.389 286.799 391.841 286.202C390.875 285.146 390.072 283.687 390.151 282.122C390.199 281.16 390.563 280.274 390.679 279.325C391.075 276.609 389.56 274.045 387.918 272.102C387.264 271.329 386.567 270.581 385.912 269.795C384.893 268.676 384.088 267.308 383.552 265.785C383.112 264.164 382.968 262.449 383.13 260.756C383.278 259.04 383.319 257.312 383.251 255.589C382.766 249.479 378.384 244.796 374.002 242.25L373.807 242.131C375.107 240.354 376.707 238.924 378.502 237.934C380.298 236.944 382.249 236.416 384.227 236.385C386.206 236.354 388.168 236.82 389.985 237.753C391.802 238.686 393.433 240.064 394.772 241.799C396.111 243.533 397.128 245.585 397.756 247.819C398.384 250.053 398.609 252.42 398.417 254.765C398.224 257.11 397.619 259.38 396.639 261.427C395.66 263.475 394.329 265.253 392.733 266.646C392.685 266.841 392.643 267.036 392.606 267.224C391.593 272.052 392.263 274.981 393.018 276.597C393.224 276.653 400.467 278.602 401.423 279.74C402.378 280.877 408.286 282.505 408.286 282.505C409.184 282.79 410 283.358 410.65 284.149C411.299 284.94 411.757 285.925 411.976 287Z" fill="black"/>
<path id="Vector_52" d="M372.878 237.699C373.168 237.303 373.606 237.102 373.902 236.718C374.815 235.536 373.902 233.607 374.234 232.048C374.593 230.319 376.378 229.565 377.866 229.747C379.355 229.929 380.749 230.746 382.238 230.948C384.55 231.256 386.789 230.061 389.043 229.364C391.297 228.666 394.021 228.628 395.573 230.684C397.125 232.739 397.02 236.24 398.952 237.73C399.844 238.415 400.969 238.491 401.935 238.987C402.992 239.633 403.869 240.632 404.458 241.86C405.988 244.72 406.661 248.111 406.369 251.484C406.206 253.307 405.762 255.08 405.583 256.903C405.401 258.796 405.508 260.712 405.9 262.56C406.306 264.446 407.188 266.482 408.766 267.086C409.131 267.181 409.485 267.327 409.822 267.52C410.735 268.198 410.614 269.795 410.382 271.04L409.442 276.201C410.345 277.018 411.749 276.666 412.61 277.527C412.954 277.902 413.209 278.379 413.349 278.91C413.773 280.353 413.819 281.916 413.481 283.391C413.142 284.866 412.435 286.184 411.453 287.17C410.398 288.169 408.999 289.011 408.867 290.583C408.907 291.096 408.853 291.613 408.708 292.098C408.376 292.789 407.541 292.726 406.882 292.594C406.326 292.534 405.795 292.299 405.34 291.916C404.643 291.212 404.585 289.954 404.057 289.068C403.736 288.611 403.331 288.248 402.873 288.008C402.415 287.767 401.917 287.654 401.417 287.679C400.425 287.641 399.448 287.905 398.456 287.962C396.167 288.073 393.932 287.112 392.231 285.284C391.26 284.221 390.463 282.769 390.537 281.198C390.584 280.242 390.949 279.35 391.065 278.401C391.455 275.691 389.946 273.12 388.304 271.178C386.662 269.236 384.735 267.444 383.932 264.861C382.929 261.661 383.901 258.091 383.631 254.696C383.146 248.58 378.769 243.903 374.382 241.351C373.405 240.754 371.742 239.239 372.878 237.699Z" fill="#444053"/>
<path id="Vector_53" opacity="0.1" d="M407.404 290.489C406.707 289.778 406.649 288.527 406.121 287.641C405.8 287.184 405.395 286.82 404.937 286.579C404.48 286.337 403.982 286.223 403.481 286.246C402.489 286.208 401.507 286.472 400.52 286.528C398.222 286.649 395.978 285.684 394.274 283.844C393.303 282.788 392.511 281.33 392.585 279.765C392.632 278.803 392.997 277.91 393.113 276.967C393.509 274.252 391.993 271.681 390.352 269.739C388.71 267.796 386.788 266.005 385.98 263.421C384.983 260.228 385.98 256.657 385.685 253.257C385.194 247.14 380.817 242.464 376.435 239.911C375.411 239.314 373.748 237.799 374.883 236.259C375.168 235.863 375.607 235.662 375.902 235.279C376.815 234.103 375.902 232.167 376.24 230.614C376.305 230.305 376.418 230.013 376.573 229.753C375.469 229.998 374.461 230.74 374.192 231.997C373.87 233.556 374.772 235.486 373.859 236.668C373.563 237.051 373.125 237.253 372.835 237.642C371.7 239.182 373.363 240.704 374.387 241.294C378.774 243.847 383.151 248.53 383.636 254.64C383.906 258.04 382.934 261.611 383.937 264.81C384.74 267.388 386.667 269.211 388.309 271.128C389.95 273.045 391.476 275.635 391.07 278.35C390.847 279.269 390.671 280.204 390.542 281.148C390.468 282.713 391.265 284.171 392.236 285.227C393.937 287.068 396.18 288.033 398.476 287.911C399.469 287.855 400.446 287.597 401.438 287.629C401.938 287.606 402.436 287.72 402.894 287.962C403.351 288.204 403.756 288.567 404.078 289.024C404.606 289.91 404.664 291.168 405.361 291.872C405.816 292.253 406.348 292.485 406.902 292.544C407.562 292.689 408.396 292.739 408.729 292.054C408.847 291.774 408.899 291.461 408.877 291.149C408.346 291.087 407.837 290.859 407.404 290.489Z" fill="black"/>
</g>
<g id="big-mark">
<path id="Vector_54" d="M330.553 253.131H294.036V210.286H330.579L330.553 253.131ZM330.025 188.53H294.564C294.564 121.948 347.716 125.839 347.716 83.717C347.716 60.5153 331.767 41.9276 312.281 41.9276C292.796 41.9276 276.852 61.9674 276.852 84.377H241.417C241.401 73.2911 243.223 62.3105 246.779 52.0648C250.335 41.8191 255.554 32.5099 262.137 24.671C268.721 16.8321 276.539 10.6176 285.144 6.38403C293.749 2.15043 302.971 -0.0190422 312.281 2.23261e-06C351.422 2.23261e-06 383.146 37.1817 383.146 83.717C383.146 136.387 329.999 142.384 329.999 188.53H330.025Z" fill="#3D6CB9"/>
</g>
<g id="small-marks">
<path id="Vector_55" opacity="0.1" d="M148.422 240.37H139.004V229.294H148.422V240.37ZM148.28 223.713H139.147C139.147 206.552 152.846 207.551 152.846 196.683C152.842 195.261 152.601 193.854 152.14 192.542C151.678 191.231 151.004 190.04 150.156 189.039C149.308 188.038 148.302 187.246 147.197 186.708C146.091 186.169 144.908 185.896 143.713 185.902C141.301 185.969 139.005 187.145 137.306 189.184C135.607 191.224 134.637 193.968 134.601 196.84H125.468C125.529 191.133 127.47 185.682 130.875 181.664C134.279 177.646 138.873 175.382 143.667 175.359C148.46 175.337 153.069 177.559 156.5 181.545C159.931 185.532 161.908 190.964 162.006 196.67C161.98 210.248 148.28 211.794 148.28 223.687V223.713Z" fill="#3D6CB9"/>
<path id="Vector_56" opacity="0.1" d="M219.735 317.317H210.317V306.273H219.735V317.317ZM219.598 300.666H210.465C210.465 283.499 224.165 284.504 224.165 273.636C224.16 272.214 223.92 270.807 223.458 269.496C222.996 268.185 222.322 266.995 221.474 265.995C220.625 264.994 219.62 264.202 218.514 263.665C217.409 263.127 216.225 262.854 215.031 262.862C212.609 262.914 210.299 264.085 208.59 266.129C206.88 268.173 205.906 270.928 205.872 273.812H196.739C196.799 268.105 198.741 262.654 202.145 258.636C205.55 254.618 210.144 252.353 214.937 252.331C219.731 252.309 224.34 254.531 227.771 258.517C231.201 262.504 233.179 267.936 233.277 273.642C233.292 287.22 219.598 288.773 219.598 300.666Z" fill="#3D6CB9"/>
<path id="Vector_57" opacity="0.1" d="M263.1 181.1H256.273V173.11H263.1V181.1ZM262.999 169.024H256.379C256.379 156.591 266.309 157.313 266.309 149.443C266.305 148.413 266.131 147.394 265.796 146.444C265.461 145.494 264.972 144.632 264.357 143.907C263.742 143.182 263.014 142.609 262.213 142.219C261.412 141.829 260.554 141.631 259.689 141.636C257.937 141.678 256.267 142.529 255.032 144.009C253.797 145.489 253.093 147.483 253.069 149.569H246.449C246.435 145.388 247.816 141.371 250.289 138.403C252.763 135.435 256.125 133.758 259.636 133.741C263.148 133.724 266.521 135.369 269.014 138.314C271.507 141.259 272.916 145.262 272.93 149.443C272.919 159.281 262.999 160.406 262.999 169.024Z" fill="#3D6CB9"/>
<path id="Vector_58" opacity="0.1" d="M379.688 192.377H375.828V187.851H379.688V192.377ZM379.629 185.556H375.865C375.865 178.529 381.477 178.937 381.477 174.487C381.477 173.905 381.38 173.328 381.192 172.791C381.004 172.254 380.728 171.767 380.38 171.358C380.032 170.948 379.62 170.625 379.167 170.407C378.713 170.189 378.228 170.08 377.739 170.087C376.75 170.111 375.806 170.592 375.108 171.428C374.41 172.264 374.011 173.39 373.996 174.569H370.253C370.297 172.246 371.101 170.035 372.493 168.407C373.886 166.78 375.757 165.864 377.709 165.855C379.66 165.846 381.537 166.744 382.94 168.359C384.343 169.974 385.161 172.177 385.22 174.499C385.241 180.025 379.629 180.685 379.629 185.556Z" fill="#3D6CB9"/>
<path id="Vector_59" opacity="0.1" d="M438.689 398.224H434.83V393.699H438.689V398.224ZM438.631 391.404H434.888C434.888 384.37 440.505 384.785 440.505 380.334C440.498 379.16 440.1 378.037 439.399 377.212C438.697 376.387 437.749 375.928 436.762 375.934C435.772 375.957 434.828 376.437 434.129 377.274C433.431 378.11 433.033 379.237 433.019 380.416H429.276C429.32 378.093 430.124 375.883 431.516 374.255C432.909 372.627 434.78 371.711 436.732 371.702C438.683 371.693 440.56 372.592 441.963 374.207C443.366 375.821 444.184 378.025 444.243 380.347C444.264 385.898 438.652 386.533 438.652 391.404H438.631Z" fill="#3D6CB9"/>
</g>
</g>
<defs>
<linearGradient id="paint0_linear" x1="368.073" y1="523.027" x2="368.073" y2="228.37" gradientUnits="userSpaceOnUse">
<stop stop-color="#808080" stop-opacity="0.25"/>
<stop offset="0.54" stop-color="#808080" stop-opacity="0.12"/>
<stop offset="1" stop-color="#808080" stop-opacity="0.1"/>
</linearGradient>
<clipPath id="clip0">
<rect width="530" height="526" fill="white"/>
</clipPath>
</defs>
</svg>
