<svg width="500" height="450" viewBox="0 0 500 450" fill="none" xmlns="http://www.w3.org/2000/svg">
<g id="location" clip-path="url(#clip22)">
<g id="map">
<path id="Vector" d="M362.973 352.953H293.026L173.889 365.351L53.8291 352.953V49.186L173.391 58.4847L295.535 49.186L415.023 66.7506L411.956 300.023L362.973 352.953Z" fill="url(#paint0_linear)"/>
<path id="Vector_2" d="M360.693 348.73H292.276L175.745 360.794L58.312 348.73V53.1736L175.258 62.221L294.73 53.1736L411.604 70.2638L408.604 297.232L360.693 348.73Z" fill="white"/>
<path id="Vector_3" d="M361.079 340.683H289.023L179.107 352.062L68.3403 340.683V61.905L178.648 70.4391L291.337 61.905L401.577 78.0251V297.065L361.079 340.683Z" fill="#6C63FF"/>
<path id="Vector_4" d="M355.977 348.269L356.824 290.725L408.604 292.962L355.977 348.269Z" fill="url(#paint1_linear)"/>
<path id="Vector_5" d="M360.693 348.269L361.464 295.169L408.604 297.233L360.693 348.269Z" fill="white"/>
<path id="Vector_6" opacity="0.1" d="M178.647 352.062L288.955 340.683V61.905L178.647 70.4391" fill="black"/>
</g>
<g id="roads">
<path id="Vector_7" d="M500 424.379L246.964 274.318L311.236 45.6344L289.363 36.3455L258.216 147.17L10.0552 0L0 25.621L250.607 174.242L193.392 377.815L215.265 387.104L239.356 301.39L489.945 450L500 424.379Z" fill="white"/>
<path id="Vector_8" d="M68.3403 182.381L227.156 257.684L237.71 281.113L227.203 292.834L68.3403 212.151V182.381Z" fill="white"/>
<path id="Vector_9" d="M284.118 303.618L350.384 70.5394L376.744 74.3939L302.506 315.808L284.118 303.618Z" fill="white"/>
<path id="Vector_10" d="M343.537 182.381L401.576 198.329V228.099L330.526 200.939L343.537 182.381Z" fill="white"/>
<path id="Vector_11" d="M122.339 239.576L107.68 348.159L124.317 351.91L146.233 251.711L146.208 237.51L122.339 239.576Z" fill="white"/>
<path id="Vector_12" d="M121.748 97.823L105.3 199.905L118.036 207.269L148.397 97.7916L121.748 97.823Z" fill="white"/>
</g>
<g id="mark">
<path id="Vector_13" d="M279.673 163.365C279.673 185.884 241.599 249.654 241.599 249.654C241.599 249.654 203.525 185.884 203.525 163.365C203.523 158.01 204.507 152.706 206.419 147.758C208.332 142.809 211.136 138.313 214.672 134.525C218.208 130.737 222.405 127.733 227.026 125.683C231.646 123.633 236.598 122.578 241.599 122.578C246.6 122.578 251.552 123.633 256.172 125.683C260.792 127.733 264.99 130.737 268.526 134.525C272.062 138.313 274.866 142.809 276.779 147.758C278.691 152.706 279.675 158.01 279.673 163.365Z" fill="#FF5252"/>
<path id="Vector_14" d="M241.599 172.848C247.956 172.848 253.109 167.329 253.109 160.521C253.109 153.713 247.956 148.194 241.599 148.194C235.241 148.194 230.088 153.713 230.088 160.521C230.088 167.329 235.241 172.848 241.599 172.848Z" fill="white"/>
</g>
<g id="dots">
<path id="Vector_15" d="M153.212 81.3815C155.147 81.3815 156.715 79.7022 156.715 77.6306C156.715 75.5591 155.147 73.8798 153.212 73.8798C151.278 73.8798 149.71 75.5591 149.71 77.6306C149.71 79.7022 151.278 81.3815 153.212 81.3815Z" fill="#FF5252"/>
<path id="Vector_16" d="M111.182 275.487C113.117 275.487 114.685 273.807 114.685 271.736C114.685 269.664 113.117 267.985 111.182 267.985C109.248 267.985 107.68 269.664 107.68 271.736C107.68 273.807 109.248 275.487 111.182 275.487Z" fill="#FF5252"/>
<path id="Vector_17" d="M107.68 303.149C109.614 303.149 111.182 301.47 111.182 299.398C111.182 297.327 109.614 295.647 107.68 295.647C105.745 295.647 104.177 297.327 104.177 299.398C104.177 301.47 105.745 303.149 107.68 303.149Z" fill="#FF5252"/>
<path id="Vector_18" d="M144.894 296.585C146.828 296.585 148.397 294.906 148.397 292.834C148.397 290.763 146.828 289.083 144.894 289.083C142.96 289.083 141.392 290.763 141.392 292.834C141.392 294.906 142.96 296.585 144.894 296.585Z" fill="#FF5252"/>
<path id="Vector_19" d="M84.9136 184.06C86.848 184.06 88.4161 182.381 88.4161 180.309C88.4161 178.238 86.848 176.559 84.9136 176.559C82.9793 176.559 81.4111 178.238 81.4111 180.309C81.4111 182.381 82.9793 184.06 84.9136 184.06Z" fill="#FF5252"/>
<path id="Vector_20" d="M360.734 180.309C362.669 180.309 364.237 178.63 364.237 176.559C364.237 174.487 362.669 172.808 360.734 172.808C358.8 172.808 357.232 174.487 357.232 176.559C357.232 178.63 358.8 180.309 360.734 180.309Z" fill="#FF5252"/>
<path id="Vector_21" d="M330.526 310.651C332.46 310.651 334.028 308.971 334.028 306.9C334.028 304.828 332.46 303.149 330.526 303.149C328.592 303.149 327.023 304.828 327.023 306.9C327.023 308.971 328.592 310.651 330.526 310.651Z" fill="#FF5252"/>
</g>
</g>
<defs>
<linearGradient id="paint0_linear" x1="234.426" y1="365.351" x2="234.426" y2="49.1859" gradientUnits="userSpaceOnUse">
<stop stop-color="#808080" stop-opacity="0.25"/>
<stop offset="0.53514" stop-color="#808080" stop-opacity="0.12"/>
<stop offset="1" stop-color="#808080" stop-opacity="0.1"/>
</linearGradient>
<linearGradient id="paint1_linear" x1="382.29" y1="348.269" x2="382.29" y2="290.725" gradientUnits="userSpaceOnUse">
<stop stop-opacity="0.12"/>
<stop offset="0.55135" stop-opacity="0.09"/>
<stop offset="1" stop-opacity="0.02"/>
</linearGradient>
<clipPath id="clip0">
<rect width="500" height="450" fill="white"/>
</clipPath>
</defs>
</svg>
