<svg width="320" height="568" viewBox="0 0 320 568" fill="none" xmlns="http://www.w3.org/2000/svg">
<g id="menu-background" clip-path="url(#clip0)">
<rect width="320" height="568" fill="#FAFAF6"/>
<g id="top">
<g id="fifth-vector">
<path id="Vector" opacity="0.4" d="M0 0V333.518C53.3333 234.55 106.667 181.757 160 175.139C213.333 168.522 266.667 142.9 320 98.2754V0H0Z" fill="url(#paint0_linear)"/>
</g>
<g id="fourth-vector">
<path id="Vector_2" opacity="0.4" d="M0 1.52588e-05V286.067C53.3333 177.481 106.667 117.47 160 106.035C213.333 94.5995 266.667 44.2958 320 -44.8766V1.52588e-05H0Z" fill="url(#paint1_linear)"/>
</g>
<g id="third-vector">
<path id="Vector_3" opacity="0.4" d="M0 0V243.307C53.3333 173.785 106.667 131.036 160 115.059C213.333 99.082 266.667 52.8619 320 -23.6014V0H0Z" fill="url(#paint2_linear)"/>
</g>
<g id="second-vector">
<path id="Vector_4" opacity="0.4" d="M0 1.33514e-05V260.908C53.3333 229.704 106.667 204.813 160 186.234C213.333 167.656 266.667 97.5402 320 -24.1125V1.33514e-05H0Z" fill="url(#paint3_linear)"/>
</g>
<g id="first-vector">
<path id="Vector_5" opacity="0.4" d="M0 1.14441e-05V262.21C53.3333 183.95 106.667 141.159 160 133.838C213.333 126.517 266.667 64.1039 320 -53.4001V1.14441e-05H0Z" fill="url(#paint4_linear)"/>
</g>
</g>
<g id="bottom">
<g id="fifth-vector_2">
<path id="Vector_6" opacity="0.4" d="M363 689.518L363 356C304.333 454.968 245.667 507.761 187 514.379C128.333 520.996 69.6667 546.618 11 591.243V689.518H363Z" fill="url(#paint5_linear)"/>
</g>
<g id="third-vector_2">
<path id="Vector_7" opacity="0.4" d="M380 599.307L380 356C326.667 425.522 273.333 468.271 220 484.248C166.667 500.225 113.333 546.446 60 622.909V599.307H380Z" fill="url(#paint6_linear)"/>
</g>
<g id="first-vector_2">
<path id="Vector_8" opacity="0.4" d="M357 602.21L357 340C303.667 418.26 250.333 461.051 197 468.372C143.667 475.693 90.3333 538.106 37 655.61V602.21H357Z" fill="url(#paint7_linear)"/>
</g>
<g id="second-vector_2">
<path id="Vector_9" opacity="0.4" d="M380 620.908L380 360C326.667 391.204 273.333 416.096 220 434.674C166.667 453.252 113.333 523.368 60 645.021V620.908H380Z" fill="url(#paint8_linear)"/>
</g>
</g>
</g>
<defs>
<linearGradient id="paint0_linear" x1="0" y1="0" x2="320" y2="0" gradientUnits="userSpaceOnUse">
<stop stop-color="#3D6CB9"/>
<stop offset="1" stop-color="#00D1FF"/>
</linearGradient>
<linearGradient id="paint1_linear" x1="0" y1="-44.8766" x2="320" y2="-44.8766" gradientUnits="userSpaceOnUse">
<stop stop-color="#3D6CB9"/>
<stop offset="1" stop-color="#00D1FF"/>
</linearGradient>
<linearGradient id="paint2_linear" x1="0" y1="-23.6014" x2="320" y2="-23.6014" gradientUnits="userSpaceOnUse">
<stop stop-color="#3D6CB9"/>
<stop offset="1" stop-color="#00D1FF"/>
</linearGradient>
<linearGradient id="paint3_linear" x1="0" y1="-24.1125" x2="320" y2="-24.1125" gradientUnits="userSpaceOnUse">
<stop stop-color="#3D6CB9"/>
<stop offset="1" stop-color="#00D1FF"/>
</linearGradient>
<linearGradient id="paint4_linear" x1="0" y1="-53.4001" x2="320" y2="-53.4001" gradientUnits="userSpaceOnUse">
<stop stop-color="#3D6CB9"/>
<stop offset="1" stop-color="#00D1FF"/>
</linearGradient>
<linearGradient id="paint5_linear" x1="363" y1="689.518" x2="11" y2="689.518" gradientUnits="userSpaceOnUse">
<stop stop-color="#3D6CB9"/>
<stop offset="1" stop-color="#00D1FF"/>
</linearGradient>
<linearGradient id="paint6_linear" x1="380" y1="622.909" x2="60" y2="622.909" gradientUnits="userSpaceOnUse">
<stop stop-color="#3D6CB9"/>
<stop offset="1" stop-color="#00D1FF"/>
</linearGradient>
<linearGradient id="paint7_linear" x1="357" y1="655.61" x2="37" y2="655.61" gradientUnits="userSpaceOnUse">
<stop stop-color="#3D6CB9"/>
<stop offset="1" stop-color="#00D1FF"/>
</linearGradient>
<linearGradient id="paint8_linear" x1="380" y1="645.021" x2="60" y2="645.021" gradientUnits="userSpaceOnUse">
<stop stop-color="#3D6CB9"/>
<stop offset="1" stop-color="#00D1FF"/>
</linearGradient>
<clipPath id="clip0">
<rect width="320" height="568" fill="white"/>
</clipPath>
</defs>
</svg>
