<svg width="1440" height="898" viewBox="0 0 1440 898" fill="none" xmlns="http://www.w3.org/2000/svg">
<g id="menu-background" clip-path="url(#clip1)">
<rect width="1440" height="899" transform="translate(0 -1)" fill="#FAFAF6"/>
<g id="top">
<g id="fifth-vector">
<path id="Vector" opacity="0.4" d="M0 -1V526.875C240 370.233 480 286.675 720 276.201C960 265.727 1200 225.175 1440 154.545V-1H0Z" fill="url(#paint0_linear)"/>
</g>
<g id="fourth-vector">
<path id="Vector_2" opacity="0.4" d="M0 -0.999992V451.771C240 279.907 480 184.925 720 166.826C960 148.727 1200 69.1089 1440 -72.0283V-0.999992H0Z" fill="url(#paint1_linear)"/>
</g>
<g id="third-vector">
<path id="Vector_3" opacity="0.4" d="M0 -1.00002V384.094C240 274.058 480 206.397 720 181.109C960 155.822 1200 82.6669 1440 -38.3551V-1.00002H0Z" fill="url(#paint2_linear)"/>
</g>
<g id="second-vector">
<path id="Vector_4" opacity="0.4" d="M0 -0.999985V411.951C240 362.563 480 323.166 720 293.761C960 264.357 1200 153.381 1440 -39.1639V-0.999985H0Z" fill="url(#paint3_linear)"/>
</g>
<g id="first-vector">
<path id="Vector_5" opacity="0.4" d="M0 -1V414.012C240 290.146 480 222.419 720 210.831C960 199.244 1200 100.46 1440 -85.5189V-1H0Z" fill="url(#paint4_linear)"/>
</g>
</g>
<g id="bottom">
<g id="fifth-vector_2">
<path id="Vector_6" opacity="0.4" d="M1633.5 1090.33L1633.5 562.458C1369.5 719.099 1105.5 802.657 841.5 813.131C577.5 823.605 313.5 864.157 49.5 934.787V1090.33H1633.5Z" fill="url(#paint5_linear)"/>
</g>
<g id="third-vector_2">
<path id="Vector_7" opacity="0.4" d="M1710 947.552L1710 562.458C1470 672.493 1230 740.155 990 765.443C750 790.73 510 863.885 270 984.907V947.552L1710 947.552Z" fill="url(#paint6_linear)"/>
</g>
<g id="first-vector_2">
<path id="Vector_8" opacity="0.4" d="M1606.5 952.145L1606.5 537.134C1366.5 661 1126.5 728.726 886.5 740.314C646.5 751.902 406.5 850.685 166.5 1036.66V952.145H1606.5Z" fill="url(#paint7_linear)"/>
</g>
<g id="second-vector_2">
<path id="Vector_9" opacity="0.4" d="M1710 981.74L1710 568.789C1470 618.177 1230 657.574 990 686.979C750 716.383 510 827.359 270 1019.9V981.74L1710 981.74Z" fill="url(#paint8_linear)"/>
</g>
</g>
</g>
<defs>
<linearGradient id="paint0_linear" x1="0" y1="-1" x2="1440" y2="-1" gradientUnits="userSpaceOnUse">
<stop stop-color="#3D6CB9"/>
<stop offset="1" stop-color="#00D1FF"/>
</linearGradient>
<linearGradient id="paint1_linear" x1="0" y1="-72.0283" x2="1440" y2="-72.0283" gradientUnits="userSpaceOnUse">
<stop stop-color="#3D6CB9"/>
<stop offset="1" stop-color="#00D1FF"/>
</linearGradient>
<linearGradient id="paint2_linear" x1="0" y1="-38.3551" x2="1440" y2="-38.3551" gradientUnits="userSpaceOnUse">
<stop stop-color="#3D6CB9"/>
<stop offset="1" stop-color="#00D1FF"/>
</linearGradient>
<linearGradient id="paint3_linear" x1="0" y1="-39.1639" x2="1440" y2="-39.1639" gradientUnits="userSpaceOnUse">
<stop stop-color="#3D6CB9"/>
<stop offset="1" stop-color="#00D1FF"/>
</linearGradient>
<linearGradient id="paint4_linear" x1="0" y1="-85.5189" x2="1440" y2="-85.5189" gradientUnits="userSpaceOnUse">
<stop stop-color="#3D6CB9"/>
<stop offset="1" stop-color="#00D1FF"/>
</linearGradient>
<linearGradient id="paint5_linear" x1="1633.5" y1="1090.33" x2="49.5" y2="1090.33" gradientUnits="userSpaceOnUse">
<stop stop-color="#3D6CB9"/>
<stop offset="1" stop-color="#00D1FF"/>
</linearGradient>
<linearGradient id="paint6_linear" x1="1710" y1="984.907" x2="270" y2="984.907" gradientUnits="userSpaceOnUse">
<stop stop-color="#3D6CB9"/>
<stop offset="1" stop-color="#00D1FF"/>
</linearGradient>
<linearGradient id="paint7_linear" x1="1606.5" y1="1036.66" x2="166.5" y2="1036.66" gradientUnits="userSpaceOnUse">
<stop stop-color="#3D6CB9"/>
<stop offset="1" stop-color="#00D1FF"/>
</linearGradient>
<linearGradient id="paint8_linear" x1="1710" y1="1019.9" x2="270" y2="1019.9" gradientUnits="userSpaceOnUse">
<stop stop-color="#3D6CB9"/>
<stop offset="1" stop-color="#00D1FF"/>
</linearGradient>
<clipPath id="clip0">
<rect width="1440" height="899" fill="white" transform="translate(0 -1)"/>
</clipPath>
</defs>
</svg>
