<svg width="1440" height="393" viewBox="0 0 1440 393" fill="none" xmlns="http://www.w3.org/2000/svg">
<g id="top">
<path id="fifth" opacity="0.4" d="M0 22.1538V393C120 352.517 240 328.878 360 322.082C480 315.287 600 277.491 720 208.696C840 139.901 960 92.2525 1080 65.7508C1200 39.2492 1320 22.6656 1440 16V22.1538H0Z" fill="url(#paint0_linear)"/>
<path id="fourth" opacity="0.4" d="M0 26V346C120 316.458 240 294.434 360 279.926C480 265.419 600 235.213 720 189.308C840 143.403 960 121.496 1080 123.587C1200 125.679 1320 110.865 1440 79.1461V26H0Z" fill="url(#paint1_linear)"/>
<path id="third" opacity="0.4" d="M0 26V320C120 287.332 240 263.771 360 249.318C480 234.864 600 209.854 720 174.287C840 138.72 960 103.87 1080 69.7375C1200 35.6051 1320 25.4887 1440 39.3883V26H0Z" fill="url(#paint2_linear)"/>
<path id="second" opacity="0.4" d="M0 16.2592V320C120 278.411 240 252.708 360 242.891C480 233.074 600 234.58 720 247.408C840 260.236 960 218.37 1080 121.809C1200 25.2476 1320 -13.9036 1440 4.35537V16.2592H0Z" fill="url(#paint3_linear)"/>
<path id="first" opacity="0.4" d="M0 20.0775V361C120 272.255 240 222.981 360 213.18C480 203.378 600 189.867 720 172.646C840 155.425 960 123.807 1080 77.793C1200 31.7789 1320 9.53935 1440 11.0743V20.0775H0Z" fill="url(#paint4_linear)"/>
</g>
<defs>
<linearGradient id="paint0_linear" x1="0" y1="16" x2="1440" y2="16" gradientUnits="userSpaceOnUse">
<stop stop-color="#3D6CB9"/>
<stop offset="1" stop-color="#00D1FF"/>
</linearGradient>
<linearGradient id="paint1_linear" x1="0" y1="26" x2="1440" y2="26" gradientUnits="userSpaceOnUse">
<stop stop-color="#3D6CB9"/>
<stop offset="1" stop-color="#00D1FF"/>
</linearGradient>
<linearGradient id="paint2_linear" x1="0" y1="26" x2="1440" y2="26" gradientUnits="userSpaceOnUse">
<stop stop-color="#3D6CB9"/>
<stop offset="1" stop-color="#00D1FF"/>
</linearGradient>
<linearGradient id="paint3_linear" x1="0" y1="0" x2="1440" y2="0" gradientUnits="userSpaceOnUse">
<stop stop-color="#3D6CB9"/>
<stop offset="1" stop-color="#00D1FF"/>
</linearGradient>
<linearGradient id="paint4_linear" x1="0" y1="11" x2="1440" y2="11" gradientUnits="userSpaceOnUse">
<stop stop-color="#3D6CB9"/>
<stop offset="1" stop-color="#00D1FF"/>
</linearGradient>
</defs>
</svg>
