<svg width="1440" height="527" viewBox="0 0 1440 527" fill="none" xmlns="http://www.w3.org/2000/svg">
<g id="top">
<g id="fifth-vector">
<path id="Vector" opacity="0.4" d="M0 -1V526.875C240 370.233 480 286.675 720 276.201C960 265.727 1200 225.175 1440 154.545V-1H0Z" fill="url(#paint0_linear)"/>
</g>
<g id="fourth-vector">
<path id="Vector_2" opacity="0.4" d="M0 -0.999992V451.771C240 279.907 480 184.925 720 166.826C960 148.727 1200 69.1089 1440 -72.0283V-0.999992H0Z" fill="url(#paint1_linear)"/>
</g>
<g id="third-vector">
<path id="Vector_3" opacity="0.4" d="M0 -1.00002V384.094C240 274.058 480 206.397 720 181.109C960 155.822 1200 82.6669 1440 -38.3551V-1.00002H0Z" fill="url(#paint2_linear)"/>
</g>
<g id="second-vector">
<path id="Vector_4" opacity="0.4" d="M0 -0.999985V411.951C240 362.563 480 323.166 720 293.761C960 264.357 1200 153.381 1440 -39.1639V-0.999985H0Z" fill="url(#paint3_linear)"/>
</g>
<g id="first-vector">
<path id="Vector_5" opacity="0.4" d="M0 -1V414.012C240 290.146 480 222.419 720 210.831C960 199.244 1200 100.46 1440 -85.5189V-1H0Z" fill="url(#paint4_linear)"/>
</g>
</g>
<defs>
<linearGradient id="paint0_linear" x1="0" y1="-1" x2="1440" y2="-1" gradientUnits="userSpaceOnUse">
<stop stop-color="#3D6CB9"/>
<stop offset="1" stop-color="#00D1FF"/>
</linearGradient>
<linearGradient id="paint1_linear" x1="0" y1="-72.0283" x2="1440" y2="-72.0283" gradientUnits="userSpaceOnUse">
<stop stop-color="#3D6CB9"/>
<stop offset="1" stop-color="#00D1FF"/>
</linearGradient>
<linearGradient id="paint2_linear" x1="0" y1="-38.3551" x2="1440" y2="-38.3551" gradientUnits="userSpaceOnUse">
<stop stop-color="#3D6CB9"/>
<stop offset="1" stop-color="#00D1FF"/>
</linearGradient>
<linearGradient id="paint3_linear" x1="0" y1="-39.1639" x2="1440" y2="-39.1639" gradientUnits="userSpaceOnUse">
<stop stop-color="#3D6CB9"/>
<stop offset="1" stop-color="#00D1FF"/>
</linearGradient>
<linearGradient id="paint4_linear" x1="0" y1="-85.5189" x2="1440" y2="-85.5189" gradientUnits="userSpaceOnUse">
<stop stop-color="#3D6CB9"/>
<stop offset="1" stop-color="#00D1FF"/>
</linearGradient>
</defs>
</svg>
